G04 Layer_Color=16711935*
%FSLAX25Y25*%
%MOIN*%
G70*
G01*
G75*
%ADD40R,0.04343X0.03950*%
%ADD43R,0.05721X0.03556*%
%ADD50C,0.00800*%
%ADD51R,0.06706X0.06706*%
%ADD52C,0.06706*%
%ADD53R,0.06706X0.06706*%
%ADD54R,0.06312X0.08674*%
%ADD55O,0.06312X0.08674*%
%ADD56R,0.08674X0.06312*%
%ADD57O,0.08674X0.06312*%
%ADD58C,0.04300*%
%ADD60R,0.03950X0.04343*%
%ADD61C,0.04800*%
D40*
X59000Y65012D02*
D03*
Y59500D02*
D03*
X33500Y42000D02*
D03*
Y47512D02*
D03*
X52000Y59500D02*
D03*
Y65012D02*
D03*
X40000Y47512D02*
D03*
Y42000D02*
D03*
X70500Y41988D02*
D03*
Y47500D02*
D03*
X46500Y41988D02*
D03*
Y47500D02*
D03*
X58000Y42000D02*
D03*
Y47512D02*
D03*
X64500Y42000D02*
D03*
Y47512D02*
D03*
X96500Y23488D02*
D03*
Y29000D02*
D03*
X110500Y23488D02*
D03*
Y29000D02*
D03*
X103500Y23488D02*
D03*
Y29000D02*
D03*
D43*
X85000Y30980D02*
D03*
Y23500D02*
D03*
X75157Y27240D02*
D03*
D50*
X9449Y84646D02*
D03*
X127953D02*
D03*
X9843Y9843D02*
D03*
X127953D02*
D03*
D51*
X7000Y61000D02*
D03*
D52*
X17000D02*
D03*
X7000Y51000D02*
D03*
X17000D02*
D03*
X7000Y41000D02*
D03*
X17000D02*
D03*
X7000Y31000D02*
D03*
X17000D02*
D03*
X28000Y86500D02*
D03*
X38000D02*
D03*
X48000D02*
D03*
X58000D02*
D03*
D53*
X68000D02*
D03*
D54*
X25984Y10630D02*
D03*
X51575D02*
D03*
X77165D02*
D03*
X102756D02*
D03*
D55*
X33858D02*
D03*
X59449D02*
D03*
X85039D02*
D03*
X110630D02*
D03*
D56*
X126772Y59055D02*
D03*
D57*
Y66929D02*
D03*
D58*
X88000Y44740D02*
D03*
D60*
X10500Y68500D02*
D03*
X16012D02*
D03*
D61*
X95000Y80500D02*
D03*
M02*
