G04 Layer_Color=255*
%FSLAX25Y25*%
%MOIN*%
G70*
G01*
G75*
%ADD10R,0.03543X0.03150*%
%ADD13R,0.04921X0.02756*%
%ADD24R,0.05906X0.05906*%
%ADD25C,0.05906*%
%ADD26R,0.05906X0.05906*%
%ADD27R,0.05512X0.07874*%
%ADD28O,0.05512X0.07874*%
%ADD29R,0.07874X0.05512*%
%ADD30O,0.07874X0.05512*%
%ADD33R,0.03150X0.03543*%
D10*
X59000Y65012D02*
D03*
Y59500D02*
D03*
X33500Y42000D02*
D03*
Y47512D02*
D03*
X52000Y59500D02*
D03*
Y65012D02*
D03*
X40000Y47512D02*
D03*
Y42000D02*
D03*
X70500Y41988D02*
D03*
Y47500D02*
D03*
X46500Y41988D02*
D03*
Y47500D02*
D03*
X58000Y42000D02*
D03*
Y47512D02*
D03*
X64500Y42000D02*
D03*
Y47512D02*
D03*
X96500Y23488D02*
D03*
Y29000D02*
D03*
X110500Y23488D02*
D03*
Y29000D02*
D03*
X103500Y23488D02*
D03*
Y29000D02*
D03*
D13*
X85000Y30980D02*
D03*
Y23500D02*
D03*
X75157Y27240D02*
D03*
D24*
X7000Y61000D02*
D03*
D25*
X17000D02*
D03*
X7000Y51000D02*
D03*
X17000D02*
D03*
X7000Y41000D02*
D03*
X17000D02*
D03*
X7000Y31000D02*
D03*
X17000D02*
D03*
X28000Y86500D02*
D03*
X38000D02*
D03*
X48000D02*
D03*
X58000D02*
D03*
D26*
X68000D02*
D03*
D27*
X25984Y10630D02*
D03*
X51575D02*
D03*
X77165D02*
D03*
X102756D02*
D03*
D28*
X33858D02*
D03*
X59449D02*
D03*
X85039D02*
D03*
X110630D02*
D03*
D29*
X126772Y59055D02*
D03*
D30*
Y66929D02*
D03*
D33*
X10500Y68500D02*
D03*
X16012D02*
D03*
M02*
