G04 Layer_Color=128*
%FSLAX25Y25*%
%MOIN*%
G70*
G01*
G75*
%ADD63C,0.00200*%
D63*
X109055Y10630D02*
X112205D01*
X110630Y9055D02*
Y12205D01*
X101181Y10630D02*
X104331D01*
X102756Y9055D02*
Y12205D01*
X75591Y10630D02*
X78740D01*
X77165Y9055D02*
Y12205D01*
X83465Y10630D02*
X86614D01*
X85039Y9055D02*
Y12205D01*
X125197Y66929D02*
X128347D01*
X126772Y65354D02*
Y68504D01*
X125197Y59055D02*
X128347D01*
X126772Y57480D02*
Y60630D01*
X50000Y10630D02*
X53150D01*
X51575Y9055D02*
Y12205D01*
X57874Y10630D02*
X61024D01*
X59449Y9055D02*
Y12205D01*
X32283Y10630D02*
X35433D01*
X33858Y9055D02*
Y12205D01*
X24409Y10630D02*
X27559D01*
X25984Y9055D02*
Y12205D01*
X66228Y86500D02*
X69772D01*
X68000Y84728D02*
Y88272D01*
X56228Y86500D02*
X59772D01*
X58000Y84728D02*
Y88272D01*
X46228Y86500D02*
X49772D01*
X48000Y84728D02*
Y88272D01*
X36228Y86500D02*
X39772D01*
X38000Y84728D02*
Y88272D01*
X26228Y86500D02*
X29772D01*
X28000Y84728D02*
Y88272D01*
X15228Y31000D02*
X18772D01*
X17000Y29228D02*
Y32772D01*
X5228Y31000D02*
X8772D01*
X7000Y29228D02*
Y32772D01*
X15228Y41000D02*
X18772D01*
X17000Y39228D02*
Y42772D01*
X5228Y41000D02*
X8772D01*
X7000Y39228D02*
Y42772D01*
X15228Y51000D02*
X18772D01*
X17000Y49228D02*
Y52772D01*
X5228Y51000D02*
X8772D01*
X7000Y49228D02*
Y52772D01*
X15228Y61000D02*
X18772D01*
X17000Y59228D02*
Y62772D01*
X5228Y61000D02*
X8772D01*
X7000Y59228D02*
Y62772D01*
X123622Y9843D02*
X132283D01*
X127953Y5512D02*
Y14173D01*
X5512Y9843D02*
X14173D01*
X9843Y5512D02*
Y14173D01*
X123622Y84646D02*
X132283D01*
X127953Y80315D02*
Y88976D01*
X5118Y84646D02*
X13780D01*
X9449Y80315D02*
Y88976D01*
X115500Y43000D02*
X117500D01*
X116500Y42000D02*
Y44000D01*
X105000Y38500D02*
X107000D01*
X106000Y37500D02*
Y39500D01*
X93750Y80500D02*
X96250D01*
X95000Y79250D02*
Y81750D01*
X79000Y86000D02*
X81000D01*
X80000Y85000D02*
Y87000D01*
X105000Y71000D02*
X107000D01*
X106000Y70000D02*
Y72000D01*
X94000Y71000D02*
X96000D01*
X95000Y70000D02*
Y72000D01*
X86500Y89000D02*
X88500D01*
X87500Y88000D02*
Y90000D01*
X94000Y89000D02*
X96000D01*
X95000Y88000D02*
Y90000D01*
X103000Y89000D02*
X105000D01*
X104000Y88000D02*
Y90000D01*
X110500Y89000D02*
X112500D01*
X111500Y88000D02*
Y90000D01*
X45500Y58500D02*
X47500D01*
X46500Y57500D02*
Y59500D01*
X65000Y70000D02*
X67000D01*
X66000Y69000D02*
Y71000D01*
X34500Y62500D02*
X36500D01*
X35500Y61500D02*
Y63500D01*
X34461Y58039D02*
X36461D01*
X35461Y57039D02*
Y59039D01*
X51000Y54000D02*
X53000D01*
X52000Y53000D02*
Y55000D01*
X51000Y48500D02*
X53000D01*
X52000Y47500D02*
Y49500D01*
X44988Y53500D02*
X46988D01*
X45988Y52500D02*
Y54500D01*
X55500Y34000D02*
X57500D01*
X56500Y33000D02*
Y35000D01*
X58992Y71992D02*
X60992D01*
X59992Y70992D02*
Y72992D01*
X72500Y70500D02*
X74500D01*
X73500Y69500D02*
Y71500D01*
X80500Y68500D02*
X82500D01*
X81500Y67500D02*
Y69500D01*
X39500Y53000D02*
X41500D01*
X40500Y52000D02*
Y54000D01*
X27102Y41602D02*
X29102D01*
X28102Y40602D02*
Y42602D01*
X11500Y24500D02*
X13500D01*
X12500Y23500D02*
Y25500D01*
X7000Y24000D02*
X9000D01*
X8000Y23000D02*
Y25000D01*
X23500Y37000D02*
X25500D01*
X24500Y36000D02*
Y38000D01*
X45000Y63500D02*
X47000D01*
X46000Y62500D02*
Y64500D01*
X41000Y66000D02*
X43000D01*
X42000Y65000D02*
Y67000D01*
X21000Y69500D02*
X23000D01*
X22000Y68500D02*
Y70500D01*
X25000Y73500D02*
X27000D01*
X26000Y72500D02*
Y74500D01*
X75000Y38500D02*
X77000D01*
X76000Y37500D02*
Y39500D01*
X69500Y52500D02*
X71500D01*
X70500Y51500D02*
Y53500D01*
X94000Y55488D02*
X96000D01*
X95000Y54488D02*
Y56488D01*
X18500Y24500D02*
X20500D01*
X19500Y23500D02*
Y25500D01*
X87000Y44740D02*
X89000D01*
X88000Y43740D02*
Y45740D01*
M02*
