M48
;Layer_Color=9474304
;FILE_FORMAT=2:5
INCH,LZ
;TYPE=PLATED
T1F00S00C0.02000
T2F00S00C0.02500
T3F00S00C0.03150
T4F00S00C0.03543
%
T01
X00245Y0037
X0028102Y0041602
X00405Y0053
X0045988Y00535
X00465Y00585
X0046Y00635
X0042Y0066
X00355Y00625
X0035461Y0058039
X0052Y0054
Y00485
X00565Y0034
X0076Y00385
X0088Y004474
X0095Y0055488
Y0071
X0106
X00815Y00685
X00735Y00705
X0066Y007
X0059992Y0071992
X00705Y00525
X01165Y0043
X0026Y00735
X0022Y00695
X00195Y00245
X00125
X0008Y0024
X008Y0086
X00875Y0089
X0095
X0104
X01115
T02
X0095Y00805
T03
X0025984Y001063
X0033858
X0051575
X0059449
X0077165
X0085039
X0102756
X011063
X0126772Y0059055
Y0066929
T04
X0007Y0031
Y0041
Y0051
Y0061
X0017
Y0051
Y0041
Y0031
X0028Y00865
X0038
X0048
X0058
X0068
M30
