G04 Layer_Physical_Order=1*
G04 Layer_Color=255*
%FSLAX25Y25*%
%MOIN*%
G70*
G01*
G75*
%ADD10R,0.03543X0.03150*%
%ADD11R,0.05512X0.05000*%
%ADD12R,0.04331X0.02362*%
%ADD13R,0.04921X0.02756*%
%ADD14R,0.03858X0.03661*%
%ADD15R,0.07874X0.07874*%
%ADD16R,0.03000X0.06299*%
%ADD17R,0.02362X0.01102*%
%ADD18O,0.01102X0.07087*%
%ADD19O,0.07087X0.01102*%
%ADD20C,0.02000*%
%ADD21C,0.03000*%
%ADD22C,0.01000*%
%ADD23C,0.01200*%
%ADD24R,0.05906X0.05906*%
%ADD25C,0.05906*%
%ADD26R,0.05906X0.05906*%
%ADD27R,0.05512X0.07874*%
%ADD28O,0.05512X0.07874*%
%ADD29R,0.07874X0.05512*%
%ADD30O,0.07874X0.05512*%
%ADD31C,0.03500*%
%ADD32C,0.03000*%
G36*
X51982Y46750D02*
X51784Y46747D01*
X51595Y46732D01*
X51416Y46707D01*
X51246Y46670D01*
X51086Y46622D01*
X50935Y46564D01*
X50793Y46494D01*
X50661Y46413D01*
X50538Y46321D01*
X50425Y46218D01*
X49718Y46925D01*
X49821Y47038D01*
X49913Y47161D01*
X49994Y47293D01*
X50064Y47435D01*
X50122Y47586D01*
X50170Y47746D01*
X50207Y47916D01*
X50232Y48095D01*
X50247Y48284D01*
X50250Y48482D01*
X51982Y46750D01*
D02*
G37*
G36*
X47668Y48234D02*
X47633Y48140D01*
X47602Y48012D01*
X47575Y47848D01*
X47533Y47416D01*
X47502Y46507D01*
X47500Y46134D01*
X46500D01*
X46498Y46507D01*
X46398Y48012D01*
X46367Y48140D01*
X46332Y48234D01*
X46292Y48293D01*
X47708D01*
X47668Y48234D01*
D02*
G37*
G36*
X29007Y45680D02*
X28922Y45650D01*
X28847Y45599D01*
X28782Y45529D01*
X28727Y45438D01*
X28682Y45326D01*
X28647Y45195D01*
X28622Y45043D01*
X28607Y44871D01*
X28602Y44679D01*
X27602D01*
X27597Y44871D01*
X27582Y45043D01*
X27557Y45195D01*
X27522Y45326D01*
X27477Y45438D01*
X27422Y45529D01*
X27357Y45599D01*
X27282Y45650D01*
X27197Y45680D01*
X27102Y45691D01*
X29102D01*
X29007Y45680D01*
D02*
G37*
G36*
X104240Y46949D02*
X104220Y47056D01*
X104160Y47152D01*
X104060Y47236D01*
X103920Y47309D01*
X103740Y47371D01*
X103520Y47422D01*
X103260Y47461D01*
X103037Y47482D01*
X102740Y47461D01*
X102480Y47422D01*
X102260Y47371D01*
X102080Y47309D01*
X101940Y47236D01*
X101840Y47152D01*
X101780Y47056D01*
X101760Y46949D01*
Y50075D01*
X101780Y49968D01*
X101840Y49872D01*
X101940Y49788D01*
X102080Y49714D01*
X102260Y49652D01*
X102480Y49602D01*
X102740Y49562D01*
X102963Y49542D01*
X103260Y49562D01*
X103520Y49602D01*
X103740Y49652D01*
X103920Y49714D01*
X104060Y49788D01*
X104160Y49872D01*
X104220Y49968D01*
X104240Y50075D01*
Y46949D01*
D02*
G37*
G36*
X77760Y51679D02*
X77797Y51641D01*
X77859Y51608D01*
X77945Y51579D01*
X78056Y51555D01*
X78191Y51535D01*
X78536Y51509D01*
X78980Y51500D01*
Y49500D01*
X78746Y49498D01*
X78056Y49445D01*
X77945Y49421D01*
X77859Y49392D01*
X77797Y49359D01*
X77760Y49321D01*
X77748Y49279D01*
Y51721D01*
X77760Y51679D01*
D02*
G37*
G36*
X32293Y48697D02*
X32317Y48697D01*
Y47697D01*
X32293Y47697D01*
Y47489D01*
X32234Y47529D01*
X32140Y47564D01*
X32012Y47595D01*
X31848Y47622D01*
X31416Y47664D01*
X30507Y47695D01*
X30134Y47697D01*
Y48697D01*
X30507Y48699D01*
X32012Y48799D01*
X32140Y48830D01*
X32234Y48865D01*
X32293Y48904D01*
Y48697D01*
D02*
G37*
G36*
X49476Y44313D02*
X48461D01*
X48462Y44325D01*
X48463Y44357D01*
X48469Y45325D01*
X49468D01*
X49476Y44313D01*
D02*
G37*
G36*
X113780Y44456D02*
X113840Y44360D01*
X113940Y44276D01*
X114080Y44203D01*
X114260Y44141D01*
X114480Y44090D01*
X114740Y44051D01*
X114774Y44047D01*
X114831Y44056D01*
X114947Y44081D01*
X115046Y44110D01*
X115130Y44144D01*
X115198Y44182D01*
X115250Y44225D01*
Y44016D01*
X115760Y44000D01*
Y42000D01*
X115380Y41994D01*
X115250Y41985D01*
Y41775D01*
X115198Y41818D01*
X115130Y41856D01*
X115046Y41890D01*
X114947Y41919D01*
X114831Y41944D01*
X114777Y41952D01*
X114740Y41949D01*
X114480Y41910D01*
X114260Y41859D01*
X114080Y41797D01*
X113940Y41724D01*
X113840Y41640D01*
X113780Y41544D01*
X113760Y41437D01*
Y44563D01*
X113780Y44456D01*
D02*
G37*
G36*
X4204Y44525D02*
X4395Y44401D01*
X4614Y44292D01*
X4863Y44198D01*
X5142Y44120D01*
X5449Y44056D01*
X5785Y44007D01*
X6546Y43956D01*
X6971Y43953D01*
X4047Y41030D01*
X4044Y41454D01*
X3993Y42215D01*
X3944Y42551D01*
X3881Y42858D01*
X3802Y43137D01*
X3708Y43385D01*
X3599Y43605D01*
X3475Y43796D01*
X3336Y43957D01*
X4043Y44664D01*
X4204Y44525D01*
D02*
G37*
G36*
X32683Y40110D02*
X32673Y40205D01*
X32642Y40290D01*
X32592Y40365D01*
X32521Y40430D01*
X32430Y40485D01*
X32318Y40530D01*
X32187Y40565D01*
X32035Y40590D01*
X31863Y40605D01*
X31671Y40610D01*
Y41610D01*
X31863Y41615D01*
X32035Y41630D01*
X32187Y41655D01*
X32318Y41690D01*
X32430Y41735D01*
X32521Y41790D01*
X32592Y41855D01*
X32642Y41930D01*
X32673Y42015D01*
X32683Y42110D01*
Y40110D01*
D02*
G37*
G36*
X47508Y44313D02*
X46492D01*
X46494Y44325D01*
X46495Y44357D01*
X46500Y45325D01*
X47500D01*
X47508Y44313D01*
D02*
G37*
G36*
X45539D02*
X44524D01*
X44525Y44325D01*
X44526Y44357D01*
X44532Y45325D01*
X45531D01*
X45539Y44313D01*
D02*
G37*
G36*
X28610Y44177D02*
X28631Y44025D01*
X28668Y43874D01*
X28718Y43725D01*
X28784Y43577D01*
X28863Y43430D01*
X28958Y43284D01*
X29066Y43139D01*
X29190Y42995D01*
X29327Y42852D01*
X26877D01*
X27015Y42995D01*
X27138Y43139D01*
X27247Y43284D01*
X27341Y43430D01*
X27421Y43577D01*
X27486Y43725D01*
X27537Y43874D01*
X27573Y44025D01*
X27595Y44177D01*
X27602Y44329D01*
X28602D01*
X28610Y44177D01*
D02*
G37*
G36*
X47802Y59682D02*
X47870Y59644D01*
X47954Y59610D01*
X48053Y59581D01*
X48169Y59556D01*
X48301Y59536D01*
X48612Y59509D01*
X48986Y59500D01*
Y57500D01*
X48791Y57498D01*
X48301Y57464D01*
X48169Y57444D01*
X48053Y57419D01*
X47954Y57390D01*
X47870Y57356D01*
X47802Y57318D01*
X47750Y57275D01*
Y59725D01*
X47802Y59682D01*
D02*
G37*
G36*
X34211Y56814D02*
X34068Y56952D01*
X33924Y57075D01*
X33779Y57184D01*
X33633Y57278D01*
X33486Y57358D01*
X33338Y57423D01*
X33189Y57474D01*
X33038Y57510D01*
X32886Y57532D01*
X32734Y57539D01*
Y58539D01*
X32886Y58547D01*
X33038Y58568D01*
X33189Y58605D01*
X33338Y58655D01*
X33486Y58721D01*
X33633Y58800D01*
X33779Y58895D01*
X33924Y59003D01*
X34068Y59127D01*
X34211Y59264D01*
Y56814D01*
D02*
G37*
G36*
X53000Y58500D02*
X51657Y56486D01*
X53000D01*
X53002Y56291D01*
X53036Y55801D01*
X53056Y55669D01*
X53081Y55553D01*
X53110Y55454D01*
X53144Y55370D01*
X53182Y55302D01*
X53225Y55250D01*
X50775D01*
X50818Y55302D01*
X50856Y55370D01*
X50890Y55454D01*
X50919Y55553D01*
X50944Y55669D01*
X50964Y55801D01*
X50974Y55915D01*
X50920Y56220D01*
X50820Y56520D01*
X50680Y56780D01*
X50500Y57000D01*
X50280Y57180D01*
X50020Y57320D01*
X49720Y57420D01*
X49380Y57480D01*
X49000Y57500D01*
Y59500D01*
X49380Y59520D01*
X49720Y59580D01*
X50020Y59680D01*
X50280Y59820D01*
X50500Y60000D01*
X50680Y60220D01*
X50820Y60480D01*
X50920Y60780D01*
X50980Y61120D01*
X51000Y61500D01*
X53000Y58500D01*
D02*
G37*
G36*
X31317Y60514D02*
X31349Y60513D01*
X32317Y60508D01*
Y59508D01*
X31305Y59500D01*
Y60516D01*
X31317Y60514D01*
D02*
G37*
G36*
X74583Y55150D02*
X74563Y55309D01*
X74503Y55452D01*
X74403Y55577D01*
X74263Y55686D01*
X74083Y55779D01*
X73863Y55854D01*
X73603Y55913D01*
X73303Y55955D01*
X73147Y55966D01*
X72740Y55937D01*
X72480Y55898D01*
X72260Y55848D01*
X72080Y55786D01*
X71940Y55712D01*
X71840Y55628D01*
X71780Y55532D01*
X71760Y55425D01*
Y58551D01*
X71780Y58444D01*
X71840Y58348D01*
X71940Y58264D01*
X72080Y58191D01*
X72260Y58129D01*
X72480Y58078D01*
X72740Y58039D01*
X73040Y58011D01*
X73092Y58009D01*
X73603Y58060D01*
X73863Y58116D01*
X74083Y58188D01*
X74263Y58276D01*
X74403Y58380D01*
X74503Y58500D01*
X74563Y58635D01*
X74583Y58787D01*
Y55150D01*
D02*
G37*
G36*
X31317Y58546D02*
X31349Y58544D01*
X32317Y58539D01*
Y57539D01*
X31305Y57531D01*
Y58547D01*
X31317Y58546D01*
D02*
G37*
G36*
X93750Y54263D02*
X93698Y54306D01*
X93630Y54344D01*
X93546Y54378D01*
X93447Y54407D01*
X93331Y54432D01*
X93199Y54452D01*
X92888Y54479D01*
X92514Y54488D01*
Y56488D01*
X92709Y56490D01*
X93199Y56524D01*
X93331Y56544D01*
X93447Y56569D01*
X93546Y56598D01*
X93630Y56632D01*
X93698Y56670D01*
X93750Y56713D01*
Y54263D01*
D02*
G37*
G36*
X40483Y51250D02*
X40415Y51244D01*
X40340Y51222D01*
X40257Y51187D01*
X40166Y51137D01*
X40067Y51073D01*
X39959Y50994D01*
X39720Y50793D01*
X39449Y50535D01*
X38035Y51949D01*
X38171Y52089D01*
X38494Y52459D01*
X38573Y52567D01*
X38637Y52666D01*
X38687Y52757D01*
X38723Y52840D01*
X38743Y52916D01*
X38750Y52982D01*
X40483Y51250D01*
D02*
G37*
G36*
X71682Y51198D02*
X71644Y51130D01*
X71610Y51046D01*
X71581Y50947D01*
X71556Y50831D01*
X71536Y50699D01*
X71509Y50388D01*
X71500Y50014D01*
X69500D01*
X69498Y50209D01*
X69464Y50699D01*
X69444Y50831D01*
X69419Y50947D01*
X69390Y51046D01*
X69356Y51130D01*
X69318Y51198D01*
X69275Y51250D01*
X71725D01*
X71682Y51198D01*
D02*
G37*
G36*
X110240Y46949D02*
X110220Y47056D01*
X110160Y47152D01*
X110060Y47236D01*
X109920Y47309D01*
X109740Y47371D01*
X109520Y47422D01*
X109260Y47461D01*
X109037Y47482D01*
X108740Y47461D01*
X108480Y47422D01*
X108260Y47371D01*
X108080Y47309D01*
X107940Y47236D01*
X107840Y47152D01*
X107780Y47056D01*
X107760Y46949D01*
Y50075D01*
X107780Y49968D01*
X107840Y49872D01*
X107940Y49788D01*
X108080Y49714D01*
X108260Y49652D01*
X108480Y49602D01*
X108740Y49562D01*
X108963Y49542D01*
X109260Y49562D01*
X109520Y49602D01*
X109740Y49652D01*
X109920Y49714D01*
X110060Y49788D01*
X110160Y49872D01*
X110220Y49968D01*
X110240Y50075D01*
Y46949D01*
D02*
G37*
G36*
X31317Y54609D02*
X31349Y54607D01*
X32317Y54602D01*
Y53602D01*
X31305Y53594D01*
Y54610D01*
X31317Y54609D01*
D02*
G37*
G36*
X51982Y52250D02*
X51916Y52244D01*
X51840Y52223D01*
X51757Y52187D01*
X51666Y52137D01*
X51567Y52073D01*
X51459Y51994D01*
X51220Y51793D01*
X50949Y51535D01*
X49535Y52949D01*
X49671Y53089D01*
X49994Y53459D01*
X50073Y53567D01*
X50137Y53666D01*
X50187Y53757D01*
X50222Y53840D01*
X50244Y53916D01*
X50250Y53983D01*
X51982Y52250D01*
D02*
G37*
G36*
X46039Y51751D02*
X45899Y51738D01*
X45773Y51708D01*
X45662Y51660D01*
X45566Y51595D01*
X45485Y51513D01*
X45418Y51413D01*
X45366Y51296D01*
X45330Y51162D01*
X45307Y51010D01*
X45300Y50841D01*
X44300Y51165D01*
X44266Y53192D01*
X46039Y51751D01*
D02*
G37*
G36*
X28069Y25484D02*
X28467Y25260D01*
X28259Y25045D01*
X27934Y24664D01*
X27816Y24498D01*
X27729Y24348D01*
X27672Y24215D01*
X27646Y24098D01*
X27650Y23998D01*
X27683Y23913D01*
X27748Y23845D01*
X27410Y24100D01*
X27124Y23773D01*
X27055Y23660D01*
X27014Y23569D01*
X27000Y23499D01*
X25999Y24500D01*
X26069Y24514D01*
X26160Y24555D01*
X26273Y24624D01*
X26408Y24721D01*
X26493Y24791D01*
X26149Y25051D01*
X26234Y25004D01*
X26332Y24984D01*
X26442Y24990D01*
X26565Y25023D01*
X26700Y25081D01*
X26848Y25166D01*
X27008Y25278D01*
X27180Y25415D01*
X27543Y25752D01*
X27673Y25880D01*
X28069Y25484D01*
D02*
G37*
G36*
X71256Y22012D02*
X71236Y22105D01*
X71176Y22188D01*
X71076Y22261D01*
X70936Y22324D01*
X70756Y22378D01*
X70536Y22422D01*
X70276Y22456D01*
X69636Y22495D01*
X69526Y22497D01*
X69380Y22494D01*
X68740Y22449D01*
X68480Y22410D01*
X68260Y22359D01*
X68080Y22297D01*
X67940Y22224D01*
X67840Y22140D01*
X67780Y22044D01*
X67760Y21937D01*
Y25063D01*
X67780Y24956D01*
X67840Y24860D01*
X67940Y24776D01*
X68080Y24703D01*
X68260Y24641D01*
X68480Y24590D01*
X68740Y24551D01*
X69040Y24522D01*
X69530Y24507D01*
X69638Y24510D01*
X69979Y24540D01*
X70281Y24590D01*
X70542Y24660D01*
X70763Y24750D01*
X70944Y24860D01*
X71086Y24990D01*
X71187Y25140D01*
X71247Y25310D01*
X71268Y25500D01*
X71256Y22012D01*
D02*
G37*
G36*
X10218Y25683D02*
X10114Y25568D01*
X10022Y25444D01*
X9943Y25312D01*
X9877Y25171D01*
X9823Y25021D01*
X9782Y24862D01*
X9754Y24694D01*
X9738Y24518D01*
X9735Y24333D01*
X9745Y24139D01*
X7896Y25747D01*
X8098Y25764D01*
X8289Y25790D01*
X8471Y25826D01*
X8642Y25871D01*
X8804Y25926D01*
X8955Y25989D01*
X9096Y26063D01*
X9228Y26145D01*
X9349Y26237D01*
X9460Y26339D01*
X10218Y25683D01*
D02*
G37*
G36*
X98268Y30500D02*
X98248Y30690D01*
X98188Y30860D01*
X98087Y31010D01*
X97946Y31140D01*
X97765Y31250D01*
X97544Y31340D01*
X97282Y31410D01*
X96980Y31460D01*
X96638Y31490D01*
X96508Y31493D01*
X96378Y31490D01*
X96037Y31460D01*
X95736Y31410D01*
X95475Y31340D01*
X95253Y31250D01*
X95072Y31140D01*
X94931Y31010D01*
X94830Y30860D01*
X94769Y30690D01*
X94748Y30500D01*
X94760Y32575D01*
X96256Y33267D01*
Y33500D01*
X96638Y33510D01*
X96980Y33540D01*
X97282Y33590D01*
X97544Y33660D01*
X97765Y33750D01*
X97946Y33860D01*
X98087Y33990D01*
X98188Y34140D01*
X98248Y34310D01*
X98268Y34500D01*
Y30500D01*
D02*
G37*
G36*
X115544Y32800D02*
X120366D01*
X120625Y32300D01*
X120554Y32200D01*
X115544D01*
Y24800D01*
X116474D01*
X116666Y24338D01*
X114218Y21890D01*
X113756Y22081D01*
Y24000D01*
X110000D01*
Y24500D01*
X109500D01*
Y28000D01*
X106244D01*
Y27146D01*
X106193Y27085D01*
X106174Y27022D01*
X106138Y26968D01*
X106106Y26809D01*
X106024Y26787D01*
X105827Y26755D01*
X105694Y26743D01*
X105306D01*
X105173Y26755D01*
X104976Y26787D01*
X104894Y26809D01*
X104862Y26968D01*
X104826Y27022D01*
X104807Y27085D01*
X104756Y27146D01*
Y28000D01*
X101500D01*
Y24500D01*
X100500D01*
Y28000D01*
X97244D01*
Y26743D01*
X95772D01*
Y27820D01*
X95972Y28237D01*
X95972Y28237D01*
X95972Y28237D01*
Y30207D01*
X95995Y30213D01*
X96191Y30245D01*
X96323Y30257D01*
X96694D01*
X96827Y30245D01*
X97023Y30213D01*
X97044Y30207D01*
Y28800D01*
X104956D01*
Y30207D01*
X104976Y30213D01*
X105173Y30245D01*
X105306Y30257D01*
X106044D01*
Y28800D01*
X113956D01*
Y33777D01*
X115544D01*
Y32800D01*
D02*
G37*
G36*
X107268Y22500D02*
X107248Y22690D01*
X107188Y22860D01*
X107087Y23010D01*
X106946Y23140D01*
X106765Y23250D01*
X106544Y23340D01*
X106282Y23410D01*
X105980Y23460D01*
X105638Y23490D01*
X105500Y23494D01*
X105362Y23490D01*
X105020Y23460D01*
X104718Y23410D01*
X104456Y23340D01*
X104235Y23250D01*
X104054Y23140D01*
X103913Y23010D01*
X103812Y22860D01*
X103752Y22690D01*
X103732Y22500D01*
Y26500D01*
X103752Y26310D01*
X103812Y26140D01*
X103913Y25990D01*
X104054Y25860D01*
X104235Y25750D01*
X104456Y25660D01*
X104718Y25590D01*
X105020Y25540D01*
X105362Y25510D01*
X105500Y25506D01*
X105638Y25510D01*
X105980Y25540D01*
X106282Y25590D01*
X106544Y25660D01*
X106765Y25750D01*
X106946Y25860D01*
X107087Y25990D01*
X107188Y26140D01*
X107248Y26310D01*
X107268Y26500D01*
Y22500D01*
D02*
G37*
G36*
X80268D02*
X80248Y22690D01*
X80188Y22860D01*
X80087Y23010D01*
X79946Y23140D01*
X79765Y23250D01*
X79544Y23340D01*
X79282Y23410D01*
X78980Y23460D01*
X78638Y23490D01*
X78256Y23500D01*
Y25500D01*
X78638Y25510D01*
X78980Y25540D01*
X79282Y25590D01*
X79544Y25660D01*
X79765Y25750D01*
X79946Y25860D01*
X80087Y25990D01*
X80188Y26140D01*
X80248Y26310D01*
X80268Y26500D01*
Y22500D01*
D02*
G37*
G36*
X78175Y16173D02*
X78205Y15831D01*
X78255Y15529D01*
X78325Y15267D01*
X78415Y15046D01*
X78525Y14865D01*
X78655Y14724D01*
X78805Y14623D01*
X78975Y14563D01*
X79165Y14543D01*
X75165D01*
X75355Y14563D01*
X75525Y14623D01*
X75675Y14724D01*
X75805Y14865D01*
X75915Y15046D01*
X76005Y15267D01*
X76075Y15529D01*
X76125Y15831D01*
X76155Y16173D01*
X76165Y16555D01*
X78165D01*
X78175Y16173D01*
D02*
G37*
G36*
X114690Y13957D02*
X114334Y13588D01*
X113773Y12914D01*
X113567Y12610D01*
X113410Y12327D01*
X113304Y12066D01*
X113247Y11827D01*
X113240Y11610D01*
X113283Y11414D01*
X113375Y11240D01*
X111019Y14518D01*
X111149Y14381D01*
X111305Y14299D01*
X111486Y14270D01*
X111694Y14295D01*
X111926Y14373D01*
X112185Y14505D01*
X112469Y14691D01*
X112779Y14931D01*
X113114Y15224D01*
X113476Y15571D01*
X114690Y13957D01*
D02*
G37*
G36*
X89196Y13373D02*
X88847Y13009D01*
X88287Y12337D01*
X88076Y12028D01*
X87912Y11738D01*
X87794Y11466D01*
X87722Y11212D01*
X87697Y10976D01*
X87717Y10758D01*
X87785Y10559D01*
X85972Y14383D01*
X86076Y14220D01*
X86209Y14114D01*
X86369Y14063D01*
X86558Y14069D01*
X86774Y14130D01*
X87018Y14248D01*
X87291Y14422D01*
X87591Y14652D01*
X87919Y14938D01*
X88275Y15280D01*
X89196Y13373D01*
D02*
G37*
G36*
X14906Y27373D02*
X15916Y26954D01*
X16932Y26820D01*
X17073Y26625D01*
X17187Y26332D01*
X16923Y25988D01*
X16626Y25270D01*
X16524Y24500D01*
X16626Y23730D01*
X16923Y23012D01*
X17396Y22396D01*
X18012Y21923D01*
X18730Y21626D01*
X19500Y21524D01*
X20270Y21626D01*
X20988Y21923D01*
X21604Y22396D01*
X22077Y23012D01*
X22374Y23730D01*
X22528Y23810D01*
X23028Y23506D01*
Y22084D01*
X23024Y22070D01*
X23028Y22022D01*
Y21954D01*
X23018Y21887D01*
X23028Y21843D01*
Y20725D01*
X24094D01*
X24107Y20721D01*
X24194Y20711D01*
X24234Y20700D01*
X24350Y20649D01*
X24527Y20550D01*
X24751Y20403D01*
X24999Y20220D01*
X25872Y19455D01*
X29261Y16067D01*
X29054Y15567D01*
X26484D01*
Y10630D01*
Y5693D01*
X29740D01*
Y7747D01*
X30240Y7846D01*
X30403Y7454D01*
X31037Y6627D01*
X31863Y5993D01*
X32826Y5595D01*
X33858Y5459D01*
X34891Y5595D01*
X35853Y5993D01*
X36680Y6627D01*
X37314Y7454D01*
X37712Y8416D01*
X37848Y9449D01*
Y11811D01*
X37712Y12844D01*
X37314Y13806D01*
X36680Y14632D01*
X35999Y15154D01*
X35931Y15500D01*
X35548Y16072D01*
X35914Y16414D01*
X36642Y15928D01*
X37500Y15757D01*
X47398D01*
X47819Y15567D01*
X47819Y15257D01*
Y11130D01*
X51575D01*
Y10630D01*
X52075D01*
Y5693D01*
X55331D01*
Y7747D01*
X55831Y7846D01*
X55993Y7454D01*
X56627Y6627D01*
X57454Y5993D01*
X58416Y5595D01*
X59449Y5459D01*
X60482Y5595D01*
X61444Y5993D01*
X62270Y6627D01*
X62904Y7454D01*
X63303Y8416D01*
X63439Y9449D01*
Y11811D01*
X63303Y12844D01*
X62904Y13806D01*
X62270Y14632D01*
X61692Y15076D01*
Y15551D01*
X61521Y16410D01*
X61035Y17137D01*
X58586Y19586D01*
X57942Y20017D01*
X57980Y20397D01*
X58025Y20517D01*
X59260D01*
X60118Y20687D01*
X60175Y20725D01*
X62972D01*
Y20725D01*
X63228Y20925D01*
X65500D01*
Y23500D01*
X66500D01*
Y20925D01*
X67078D01*
X67092Y20912D01*
X67197Y20870D01*
X67291Y20807D01*
X67416Y20782D01*
X67535Y20734D01*
X67648Y20736D01*
X67760Y20714D01*
X67885Y20739D01*
X68012Y20740D01*
X68116Y20785D01*
X68228Y20807D01*
X68334Y20878D01*
X68445Y20925D01*
X68772D01*
Y21217D01*
X68875Y21232D01*
X69224Y21257D01*
X69840D01*
X70159Y21237D01*
X70244Y21226D01*
Y21000D01*
X70576D01*
X70593Y20984D01*
X70694Y20944D01*
X70784Y20883D01*
X70914Y20857D01*
X71037Y20808D01*
X71145Y20810D01*
X71252Y20788D01*
X71382Y20814D01*
X71514Y20816D01*
X71614Y20859D01*
X71720Y20880D01*
X71831Y20953D01*
X71939Y21000D01*
X73500D01*
Y24500D01*
X74500D01*
Y20828D01*
X74922Y20405D01*
Y16117D01*
X74911Y15984D01*
X74878Y15788D01*
X74856Y15705D01*
X74697Y15673D01*
X74643Y15637D01*
X74581Y15618D01*
X74520Y15567D01*
X73409D01*
Y11130D01*
X77165D01*
Y10630D01*
X77665D01*
Y5693D01*
X80921D01*
Y7747D01*
X81421Y7846D01*
X81584Y7454D01*
X82218Y6627D01*
X83044Y5993D01*
X84007Y5595D01*
X85039Y5459D01*
X86072Y5595D01*
X87034Y5993D01*
X87861Y6627D01*
X88495Y7454D01*
X88893Y8416D01*
X89029Y9449D01*
Y11228D01*
X89116Y11381D01*
X89265Y11599D01*
X89683Y12101D01*
X94339Y16757D01*
X112250D01*
X112441Y16295D01*
X112169Y16023D01*
X112001Y15876D01*
X111759Y15689D01*
X111699Y15650D01*
X111663Y15665D01*
X111222Y15723D01*
X111216Y15725D01*
X111207Y15725D01*
X110630Y15801D01*
X109597Y15665D01*
X108635Y15267D01*
X107808Y14632D01*
X107174Y13806D01*
X107012Y13413D01*
X106512Y13513D01*
Y15567D01*
X103256D01*
Y10630D01*
Y5693D01*
X106512D01*
Y7747D01*
X107012Y7846D01*
X107174Y7454D01*
X107808Y6627D01*
X108635Y5993D01*
X109597Y5595D01*
X110630Y5459D01*
X111663Y5595D01*
X112625Y5993D01*
X113451Y6627D01*
X114085Y7454D01*
X114484Y8416D01*
X114620Y9449D01*
Y11811D01*
X114601Y11952D01*
X114611Y11969D01*
X114752Y12178D01*
X115170Y12679D01*
X116538Y14048D01*
X117000Y13856D01*
Y2243D01*
X19500D01*
Y13500D01*
X11901Y21099D01*
X12134Y21573D01*
X12500Y21524D01*
X13270Y21626D01*
X13988Y21923D01*
X14604Y22396D01*
X15077Y23012D01*
X15374Y23730D01*
X15475Y24500D01*
X15374Y25270D01*
X15077Y25988D01*
X14604Y26604D01*
X14030Y27044D01*
X13982Y27109D01*
X13963Y27201D01*
X14083Y27373D01*
X14766Y27480D01*
X14906Y27373D01*
D02*
G37*
G36*
X27600Y23460D02*
X27507Y23312D01*
X27481Y23126D01*
X27522Y22901D01*
X27630Y22638D01*
X27805Y22335D01*
X28047Y21995D01*
X28356Y21615D01*
X29174Y20740D01*
X27270Y19816D01*
X26858Y20219D01*
X25767Y21173D01*
X25452Y21407D01*
X25161Y21598D01*
X24894Y21746D01*
X24652Y21852D01*
X24434Y21916D01*
X24240Y21937D01*
X27760Y23569D01*
X27600Y23460D01*
D02*
G37*
G36*
X83500Y21000D02*
X86756D01*
Y22257D01*
X97244D01*
Y21243D01*
X93409D01*
X92551Y21072D01*
X91823Y20586D01*
X86977Y15740D01*
X86816Y15600D01*
X86611Y15442D01*
X86072Y15665D01*
X85039Y15801D01*
X84007Y15665D01*
X83044Y15267D01*
X82218Y14632D01*
X81584Y13806D01*
X81421Y13413D01*
X80921Y13513D01*
Y15567D01*
X79811D01*
X79750Y15618D01*
X79688Y15637D01*
X79634Y15673D01*
X79475Y15705D01*
X79453Y15788D01*
X79420Y15984D01*
X79409Y16117D01*
Y21000D01*
X82500D01*
Y24500D01*
X83500D01*
Y21000D01*
D02*
G37*
G36*
X55380Y37896D02*
X55379Y37867D01*
X55374Y36985D01*
X54374D01*
X54366Y37908D01*
X55382D01*
X55380Y37896D01*
D02*
G37*
G36*
X132623Y38073D02*
X132342Y38030D01*
X132060Y37959D01*
X131778Y37859D01*
X131495Y37730D01*
X131212Y37574D01*
X130929Y37388D01*
X130645Y37174D01*
X130360Y36932D01*
X130075Y36661D01*
X127247D01*
X127503Y36932D01*
X127703Y37174D01*
X127846Y37388D01*
X127931Y37574D01*
X127960Y37730D01*
X127931Y37859D01*
X127846Y37959D01*
X127703Y38030D01*
X127503Y38073D01*
X127247Y38087D01*
X132903D01*
X132623Y38073D01*
D02*
G37*
G36*
X94020Y40620D02*
X94080Y40280D01*
X94180Y39980D01*
X94255Y39841D01*
X94831Y39843D01*
X94673Y39824D01*
X94532Y39768D01*
X94407Y39676D01*
X94381Y39645D01*
X94500Y39500D01*
X94720Y39320D01*
X94980Y39180D01*
X95280Y39080D01*
X95620Y39020D01*
X96000Y39000D01*
Y37000D01*
X95620Y36980D01*
X95280Y36920D01*
X94980Y36820D01*
X94720Y36680D01*
X94500Y36500D01*
X94320Y36280D01*
X94180Y36020D01*
X94080Y35720D01*
X94020Y35380D01*
X94000Y35000D01*
X92000Y38000D01*
X91994Y38348D01*
X91942Y38934D01*
X91897Y39172D01*
X91840Y39373D01*
X91769Y39538D01*
X91686Y39666D01*
X91589Y39758D01*
X91480Y39813D01*
X91359Y39831D01*
X93225Y39837D01*
X94000Y41000D01*
X94020Y40620D01*
D02*
G37*
G36*
X29737Y42271D02*
X29836Y42133D01*
X29942Y42010D01*
X30056Y41904D01*
X30178Y41814D01*
X30307Y41741D01*
X30445Y41684D01*
X30590Y41643D01*
X30742Y41618D01*
X30902Y41610D01*
X30594Y40610D01*
X30455Y40605D01*
X30310Y40589D01*
X30160Y40562D01*
X30005Y40525D01*
X29844Y40477D01*
X29506Y40348D01*
X29328Y40268D01*
X28957Y40075D01*
X29646Y42426D01*
X29737Y42271D01*
D02*
G37*
G36*
X107354Y41423D02*
X107280Y41380D01*
X107214Y41308D01*
X107157Y41207D01*
X107109Y41078D01*
X107070Y40920D01*
X107039Y40733D01*
X107018Y40517D01*
X107000Y40000D01*
X105000D01*
X104996Y40273D01*
X104961Y40733D01*
X104930Y40920D01*
X104891Y41078D01*
X104843Y41207D01*
X104786Y41308D01*
X104720Y41380D01*
X104646Y41423D01*
X104563Y41437D01*
X107437D01*
X107354Y41423D01*
D02*
G37*
G36*
X68257Y50143D02*
Y47500D01*
X68428Y46642D01*
X68914Y45914D01*
X71674Y43154D01*
X72401Y42668D01*
X73228Y42503D01*
Y42413D01*
X75500D01*
Y44988D01*
X76500D01*
Y42413D01*
X78772D01*
X79123Y42059D01*
Y39976D01*
X78623Y39877D01*
X78577Y39988D01*
X78104Y40604D01*
X77488Y41077D01*
X76770Y41374D01*
X76000Y41475D01*
X75230Y41374D01*
X74512Y41077D01*
X73896Y40604D01*
X73423Y39988D01*
X73271Y39621D01*
X72638Y39358D01*
X72074Y38926D01*
X71641Y38362D01*
X71369Y37705D01*
X71283Y37044D01*
X71277Y37016D01*
X71272Y36662D01*
X71243Y36200D01*
X70044D01*
Y35243D01*
X69782Y35226D01*
X69478Y35223D01*
X69459Y35219D01*
X68783Y35131D01*
X68126Y34858D01*
X67563Y34426D01*
X66711Y33574D01*
X66710Y33574D01*
X66318Y33192D01*
X65597Y32561D01*
X65295Y32330D01*
X65014Y32138D01*
X64768Y31992D01*
X64562Y31892D01*
X64402Y31833D01*
X64295Y31807D01*
X64137Y31794D01*
X64112Y31787D01*
X63891D01*
X63700Y32249D01*
X67226Y35774D01*
X67601Y36337D01*
X67733Y37000D01*
Y49926D01*
X68233Y50162D01*
X68257Y50143D01*
D02*
G37*
G36*
X84641Y39831D02*
X84719Y39801D01*
X84789Y39711D01*
X84851Y39561D01*
X84904Y39351D01*
X84949Y39081D01*
X84986Y38751D01*
X85030Y37988D01*
X85051D01*
X85058Y37418D01*
X85162Y36068D01*
X85224Y35738D01*
X85301Y35468D01*
X85391Y35258D01*
X85495Y35108D01*
X85612Y35018D01*
X85744Y34988D01*
X80551D01*
X80836Y35018D01*
X81091Y35108D01*
X81316Y35258D01*
X81511Y35468D01*
X81676Y35738D01*
X81811Y36068D01*
X81916Y36458D01*
X81991Y36908D01*
X82035Y37410D01*
X81991Y37914D01*
X81916Y38365D01*
X81811Y38756D01*
X81676Y39088D01*
X81511Y39359D01*
X81316Y39570D01*
X81091Y39721D01*
X80836Y39812D01*
X80551Y39843D01*
X84641Y39831D01*
D02*
G37*
G36*
X71268Y30732D02*
X71250Y30783D01*
X71197Y30828D01*
X71108Y30869D01*
X70983Y30904D01*
X70823Y30933D01*
X70627Y30957D01*
X70129Y30989D01*
X69608Y30998D01*
X69881Y30771D01*
X69478Y30356D01*
X68523Y29222D01*
X68290Y28880D01*
X68099Y28557D01*
X67951Y28253D01*
X67844Y27966D01*
X67781Y27698D01*
X67760Y27449D01*
X64240Y30575D01*
X64490Y30596D01*
X64758Y30659D01*
X65044Y30766D01*
X65349Y30914D01*
X65671Y31105D01*
X66013Y31338D01*
X66373Y31614D01*
X67148Y32293D01*
X67563Y32696D01*
X69488Y31097D01*
Y34000D01*
X69826Y34003D01*
X70823Y34067D01*
X70983Y34096D01*
X71108Y34131D01*
X71197Y34172D01*
X71250Y34217D01*
X71268Y34268D01*
Y30732D01*
D02*
G37*
G36*
X123658Y30244D02*
X123294Y29866D01*
X122714Y29174D01*
X122498Y28859D01*
X122330Y28566D01*
X122213Y28293D01*
X122144Y28042D01*
X122124Y27812D01*
X122153Y27603D01*
X122232Y27415D01*
X120160Y30976D01*
X120281Y30831D01*
X120438Y30749D01*
X120631Y30732D01*
X120860Y30779D01*
X121125Y30889D01*
X121425Y31064D01*
X121762Y31303D01*
X122135Y31605D01*
X122988Y32402D01*
X123658Y30244D01*
D02*
G37*
G36*
X103752Y34310D02*
X103812Y34140D01*
X103913Y33990D01*
X104054Y33860D01*
X104235Y33750D01*
X104456Y33660D01*
X104718Y33590D01*
X105020Y33540D01*
X105362Y33510D01*
X105744Y33500D01*
Y31500D01*
X105362Y31490D01*
X105020Y31460D01*
X104718Y31410D01*
X104456Y31340D01*
X104235Y31250D01*
X104054Y31140D01*
X103913Y31010D01*
X103812Y30860D01*
X103752Y30690D01*
X103732Y30500D01*
Y34500D01*
X103752Y34310D01*
D02*
G37*
G36*
X75505Y36615D02*
X75582Y35705D01*
X75628Y35482D01*
X75684Y35300D01*
X75751Y35158D01*
X75828Y35057D01*
X75915Y34996D01*
X76012Y34976D01*
X71988D01*
X72085Y34996D01*
X72172Y35057D01*
X72249Y35158D01*
X72316Y35300D01*
X72372Y35482D01*
X72418Y35705D01*
X72454Y35968D01*
X72495Y36615D01*
X72500Y37000D01*
X75500D01*
X75505Y36615D01*
D02*
G37*
G36*
X80256Y30012D02*
X80226Y30200D01*
X80136Y30368D01*
X79986Y30516D01*
X79776Y30644D01*
X79506Y30753D01*
X79176Y30842D01*
X78786Y30911D01*
X78541Y30938D01*
X78214Y30911D01*
X77824Y30842D01*
X77494Y30753D01*
X77224Y30644D01*
X77014Y30516D01*
X76864Y30368D01*
X76774Y30200D01*
X76744Y30012D01*
Y34988D01*
X76774Y34800D01*
X76864Y34632D01*
X77014Y34484D01*
X77224Y34356D01*
X77494Y34247D01*
X77824Y34158D01*
X78214Y34089D01*
X78459Y34062D01*
X78786Y34089D01*
X79176Y34158D01*
X79506Y34247D01*
X79776Y34356D01*
X79986Y34484D01*
X80136Y34632D01*
X80226Y34800D01*
X80256Y34988D01*
Y30012D01*
D02*
G37*
G36*
X94008Y34195D02*
X94068Y33555D01*
X94121Y33295D01*
X94190Y33075D01*
X94274Y32895D01*
X94372Y32755D01*
X94486Y32655D01*
X94615Y32595D01*
X94760Y32575D01*
X91240D01*
X91385Y32595D01*
X91514Y32655D01*
X91628Y32755D01*
X91726Y32895D01*
X91810Y33075D01*
X91878Y33295D01*
X91932Y33555D01*
X91970Y33855D01*
X91992Y34195D01*
X92000Y34575D01*
X94000D01*
X94008Y34195D01*
D02*
G37*
G36*
X35482Y60750D02*
X35284Y60747D01*
X35095Y60732D01*
X34916Y60707D01*
X34746Y60670D01*
X34586Y60622D01*
X34435Y60563D01*
X34293Y60494D01*
X34161Y60413D01*
X34038Y60321D01*
X33925Y60218D01*
X33218Y60925D01*
X33321Y61038D01*
X33413Y61161D01*
X33494Y61293D01*
X33564Y61435D01*
X33622Y61586D01*
X33670Y61746D01*
X33707Y61916D01*
X33732Y62095D01*
X33747Y62284D01*
X33750Y62483D01*
X35482Y60750D01*
D02*
G37*
G36*
X45539Y76202D02*
X44524D01*
X44525Y76215D01*
X44526Y76247D01*
X44532Y77214D01*
X45531D01*
X45539Y76202D01*
D02*
G37*
G36*
X37665D02*
X36650D01*
X36651Y76215D01*
X36652Y76247D01*
X36658Y77214D01*
X37657D01*
X37665Y76202D01*
D02*
G37*
G36*
X47508D02*
X46492D01*
X46494Y76215D01*
X46495Y76247D01*
X46500Y77214D01*
X47500D01*
X47508Y76202D01*
D02*
G37*
G36*
X45038Y89740D02*
X45141Y89267D01*
X44547Y88493D01*
X44149Y87532D01*
X44079Y87000D01*
X48000D01*
Y86000D01*
X44079D01*
X44149Y85468D01*
X44547Y84507D01*
X45181Y83681D01*
X45950Y83091D01*
X46014Y82920D01*
X46041Y82492D01*
X43806Y80257D01*
X43430Y79695D01*
X43298Y79031D01*
Y77971D01*
X43063Y77778D01*
X42380Y77642D01*
X42079Y77441D01*
X41778Y77642D01*
X41094Y77778D01*
X40411Y77642D01*
X40110Y77441D01*
X39809Y77642D01*
X39126Y77778D01*
X38891Y77971D01*
Y81860D01*
X38900Y81901D01*
X38924Y81962D01*
X38966Y82039D01*
X39036Y82134D01*
X39139Y82247D01*
X39281Y82374D01*
X39463Y82512D01*
X39687Y82658D01*
X39981Y82824D01*
X39985Y82827D01*
X40094Y82873D01*
X40962Y83538D01*
X41627Y84406D01*
X42046Y85416D01*
X42189Y86500D01*
X42046Y87584D01*
X41627Y88594D01*
X41111Y89267D01*
X41357Y89767D01*
X45029D01*
X45038Y89740D01*
D02*
G37*
G36*
X49476Y76202D02*
X48461D01*
X48462Y76215D01*
X48463Y76247D01*
X48469Y77214D01*
X49468D01*
X49476Y76202D01*
D02*
G37*
G36*
X96296Y77342D02*
X96234Y77282D01*
X96179Y77182D01*
X96132Y77042D01*
X96092Y76862D01*
X96059Y76642D01*
X96015Y76082D01*
X96000Y75362D01*
X94000D01*
X93996Y75742D01*
X93909Y76862D01*
X93868Y77042D01*
X93821Y77182D01*
X93766Y77282D01*
X93704Y77342D01*
X93634Y77362D01*
X96366D01*
X96296Y77342D01*
D02*
G37*
G36*
X116603Y73320D02*
X116630Y73016D01*
X116654Y72892D01*
X116684Y72788D01*
X116721Y72703D01*
X116765Y72636D01*
X116816Y72589D01*
X116873Y72560D01*
X116937Y72551D01*
X116639D01*
X116678Y71895D01*
X116702Y71784D01*
X116729Y71702D01*
X116760Y71650D01*
X115240D01*
X115270Y71702D01*
X115298Y71784D01*
X115322Y71895D01*
X115342Y72036D01*
X115374Y72406D01*
X115379Y72551D01*
X115063D01*
X115127Y72560D01*
X115184Y72589D01*
X115235Y72636D01*
X115279Y72703D01*
X115316Y72788D01*
X115346Y72892D01*
X115370Y73016D01*
X115386Y73158D01*
X115397Y73320D01*
X115400Y73500D01*
X116600D01*
X116603Y73320D01*
D02*
G37*
G36*
X117780Y72456D02*
X117840Y72360D01*
X117940Y72276D01*
X118080Y72203D01*
X118260Y72141D01*
X118480Y72090D01*
X118740Y72051D01*
X119040Y72022D01*
X119760Y72000D01*
Y70000D01*
X119380Y69994D01*
X118740Y69949D01*
X118480Y69910D01*
X118260Y69859D01*
X118080Y69797D01*
X117940Y69724D01*
X117840Y69640D01*
X117780Y69544D01*
X117760Y69437D01*
Y72563D01*
X117780Y72456D01*
D02*
G37*
G36*
X96002Y73291D02*
X96036Y72801D01*
X96056Y72669D01*
X96081Y72553D01*
X96110Y72454D01*
X96144Y72370D01*
X96182Y72302D01*
X96225Y72250D01*
X93775D01*
X93818Y72302D01*
X93856Y72370D01*
X93890Y72454D01*
X93919Y72553D01*
X93944Y72669D01*
X93964Y72801D01*
X93991Y73112D01*
X94000Y73486D01*
X96000D01*
X96002Y73291D01*
D02*
G37*
G36*
X56131Y73550D02*
X55994Y73406D01*
X55872Y73263D01*
X55764Y73120D01*
X55671Y72978D01*
X55591Y72837D01*
X55527Y72695D01*
X55476Y72555D01*
X55440Y72414D01*
X55419Y72275D01*
X55412Y72136D01*
Y74964D01*
X55419Y74835D01*
X55440Y74734D01*
X55476Y74662D01*
X55527Y74619D01*
X55591Y74604D01*
X55671Y74619D01*
X55764Y74662D01*
X55872Y74734D01*
X55994Y74835D01*
X56131Y74964D01*
Y73550D01*
D02*
G37*
G36*
X28282Y75075D02*
X28179Y74962D01*
X28087Y74839D01*
X28006Y74707D01*
X27937Y74565D01*
X27878Y74414D01*
X27830Y74254D01*
X27793Y74084D01*
X27768Y73905D01*
X27753Y73716D01*
X27750Y73518D01*
X26017Y75250D01*
X26216Y75253D01*
X26405Y75268D01*
X26584Y75293D01*
X26754Y75330D01*
X26914Y75378D01*
X27065Y75437D01*
X27207Y75506D01*
X27339Y75587D01*
X27462Y75679D01*
X27575Y75782D01*
X28282Y75075D01*
D02*
G37*
G36*
X96004Y85258D02*
X96092Y84138D01*
X96132Y83958D01*
X96179Y83818D01*
X96234Y83718D01*
X96296Y83658D01*
X96366Y83638D01*
X93634D01*
X93704Y83658D01*
X93766Y83718D01*
X93821Y83818D01*
X93868Y83958D01*
X93909Y84138D01*
X93941Y84358D01*
X93985Y84918D01*
X94000Y85638D01*
X96000D01*
X96004Y85258D01*
D02*
G37*
G36*
X90091Y82914D02*
X90081Y82921D01*
X90051Y82928D01*
X90001Y82934D01*
X89841Y82943D01*
X89091Y82953D01*
Y83953D01*
X90091Y83992D01*
Y82914D01*
D02*
G37*
G36*
X96182Y87698D02*
X96144Y87630D01*
X96110Y87546D01*
X96081Y87447D01*
X96056Y87331D01*
X96036Y87199D01*
X96009Y86888D01*
X96000Y86514D01*
X94000D01*
X93998Y86709D01*
X93964Y87199D01*
X93944Y87331D01*
X93919Y87447D01*
X93890Y87546D01*
X93856Y87630D01*
X93818Y87698D01*
X93775Y87750D01*
X96225D01*
X96182Y87698D01*
D02*
G37*
G36*
X115000Y80000D02*
X120500Y74500D01*
X135552D01*
Y47137D01*
X125863D01*
Y37035D01*
X123918Y35090D01*
X123456Y35281D01*
Y36605D01*
X124426Y37574D01*
X124858Y38138D01*
X125130Y38795D01*
X125223Y39500D01*
Y49000D01*
X125130Y49705D01*
X124858Y50362D01*
X124426Y50926D01*
X113138Y62213D01*
X113345Y62713D01*
X114618D01*
X114649Y62705D01*
X114716Y62713D01*
X115432D01*
X115463Y62696D01*
X115693Y62536D01*
X116246Y62070D01*
X120847Y57469D01*
X121575Y56983D01*
X121635Y56971D01*
Y55099D01*
X131909D01*
Y63011D01*
X130138D01*
X130000Y63347D01*
X129997Y63511D01*
X130774Y64108D01*
X131408Y64934D01*
X131807Y65896D01*
X131943Y66929D01*
X131807Y67962D01*
X131408Y68924D01*
X130774Y69750D01*
X129948Y70385D01*
X128986Y70783D01*
X127953Y70919D01*
X125591D01*
X124558Y70783D01*
X124138Y70609D01*
X123707Y70965D01*
X122086Y72586D01*
X121358Y73072D01*
X120500Y73243D01*
X119152D01*
X119116Y73244D01*
X118972Y73258D01*
Y73775D01*
X117817D01*
X117779Y73782D01*
X117696Y74202D01*
X117298Y74798D01*
X109313Y82782D01*
X108718Y83180D01*
X108016Y83319D01*
X100921D01*
Y85004D01*
X99659D01*
X99442Y85148D01*
X98740Y85288D01*
X97243D01*
Y86957D01*
X97251Y87053D01*
X97260Y87110D01*
X97268Y87145D01*
X97273Y87159D01*
X97355Y87282D01*
X97367Y87341D01*
X97396Y87395D01*
X97413Y87574D01*
X97439Y87702D01*
X97679Y88282D01*
X97708Y88500D01*
X92292D01*
X92321Y88282D01*
X92561Y87702D01*
X92587Y87574D01*
X92604Y87395D01*
X92633Y87341D01*
X92645Y87282D01*
X92727Y87159D01*
X92732Y87145D01*
X92740Y87110D01*
X92747Y87064D01*
X92757Y86919D01*
Y85204D01*
X90149D01*
X90091Y85215D01*
X90067Y85211D01*
X90043Y85215D01*
X89773Y85204D01*
X88879D01*
Y85186D01*
X84453D01*
X83789Y85054D01*
X83227Y84678D01*
X82605Y84057D01*
X82228Y84387D01*
X82402Y84613D01*
X82679Y85282D01*
X82708Y85500D01*
X77292D01*
X77321Y85282D01*
X77598Y84613D01*
X78039Y84039D01*
X78437Y83733D01*
X78267Y83233D01*
X72153D01*
Y90653D01*
X63847D01*
Y83233D01*
X61357D01*
X61111Y83733D01*
X61627Y84406D01*
X62046Y85416D01*
X62189Y86500D01*
X62046Y87584D01*
X61627Y88594D01*
X60962Y89462D01*
X60094Y90127D01*
X59084Y90546D01*
X58000Y90689D01*
X57909Y90677D01*
X57592Y90679D01*
X56914Y90725D01*
X56660Y90762D01*
X56433Y90809D01*
X56246Y90861D01*
X56103Y90915D01*
X56002Y90965D01*
X55955Y90996D01*
X55168Y91783D01*
X55360Y92245D01*
X87250D01*
X87282Y91745D01*
X87232Y91738D01*
X86782Y91679D01*
X86113Y91402D01*
X85539Y90961D01*
X85098Y90387D01*
X84821Y89718D01*
X84792Y89500D01*
X90208D01*
X90179Y89718D01*
X89902Y90387D01*
X89461Y90961D01*
X88887Y91402D01*
X88218Y91679D01*
X87768Y91738D01*
X87718Y91745D01*
X87750Y92245D01*
X94750D01*
X94782Y91745D01*
X94282Y91679D01*
X93613Y91402D01*
X93039Y90961D01*
X92598Y90387D01*
X92321Y89718D01*
X92292Y89500D01*
X97708D01*
X97679Y89718D01*
X97402Y90387D01*
X96961Y90961D01*
X96387Y91402D01*
X95718Y91679D01*
X95218Y91745D01*
X95250Y92245D01*
X103750D01*
X103782Y91745D01*
X103732Y91738D01*
X103282Y91679D01*
X102613Y91402D01*
X102039Y90961D01*
X101598Y90387D01*
X101321Y89718D01*
X101292Y89500D01*
X106708D01*
X106679Y89718D01*
X106402Y90387D01*
X105961Y90961D01*
X105387Y91402D01*
X104718Y91679D01*
X104268Y91738D01*
X104218Y91745D01*
X104250Y92245D01*
X111250D01*
X111282Y91745D01*
X111232Y91738D01*
X110782Y91679D01*
X110113Y91402D01*
X109539Y90961D01*
X109098Y90387D01*
X108821Y89718D01*
X108792Y89500D01*
X114208D01*
X114179Y89718D01*
X113902Y90387D01*
X113461Y90961D01*
X112887Y91402D01*
X112218Y91679D01*
X111768Y91738D01*
X111718Y91745D01*
X111750Y92245D01*
X115000D01*
Y80000D01*
D02*
G37*
G36*
X55204Y90025D02*
X55395Y89901D01*
X55615Y89792D01*
X55863Y89698D01*
X56142Y89619D01*
X56449Y89556D01*
X56786Y89507D01*
X57546Y89456D01*
X57970Y89453D01*
X55047Y86529D01*
X55044Y86954D01*
X54993Y87714D01*
X54944Y88051D01*
X54880Y88358D01*
X54802Y88636D01*
X54708Y88885D01*
X54599Y89105D01*
X54475Y89296D01*
X54336Y89457D01*
X55043Y90164D01*
X55204Y90025D01*
D02*
G37*
G36*
X29769Y84089D02*
X29268Y83515D01*
X29064Y83242D01*
X28892Y82980D01*
X28751Y82728D01*
X28641Y82485D01*
X28563Y82253D01*
X28516Y82031D01*
X28500Y81818D01*
X27500D01*
X27484Y82031D01*
X27437Y82253D01*
X27359Y82485D01*
X27249Y82728D01*
X27108Y82980D01*
X26936Y83242D01*
X26732Y83515D01*
X26231Y84089D01*
X25933Y84391D01*
X30067D01*
X29769Y84089D01*
D02*
G37*
G36*
X90091Y78977D02*
X90081Y78984D01*
X90051Y78991D01*
X90001Y78997D01*
X89841Y79006D01*
X89091Y79016D01*
Y80016D01*
X90091Y80055D01*
Y78977D01*
D02*
G37*
G36*
X96040Y79410D02*
X96032Y79375D01*
X96025Y79323D01*
X96013Y79168D01*
X96000Y78653D01*
X96000Y78482D01*
X94000D01*
X93950Y79429D01*
X96050D01*
X96040Y79410D01*
D02*
G37*
G36*
X90091Y80945D02*
X90081Y80953D01*
X90051Y80959D01*
X90001Y80965D01*
X89841Y80975D01*
X89091Y80984D01*
Y81984D01*
X90091Y82023D01*
Y80945D01*
D02*
G37*
G36*
X39379Y83889D02*
X39052Y83705D01*
X38759Y83514D01*
X38501Y83319D01*
X38277Y83118D01*
X38088Y82911D01*
X37933Y82699D01*
X37813Y82481D01*
X37726Y82258D01*
X37675Y82030D01*
X37657Y81796D01*
X36658Y82098D01*
X36645Y82260D01*
X36608Y82452D01*
X36546Y82673D01*
X36459Y82925D01*
X36211Y83519D01*
X35864Y84234D01*
X35417Y85069D01*
X39379Y83889D01*
D02*
G37*
G36*
X95767Y82518D02*
X96000D01*
X96004Y82433D01*
X96714Y82180D01*
X96609Y82068D01*
X96521Y81957D01*
X96448Y81846D01*
X96391Y81736D01*
X96350Y81627D01*
X96324Y81518D01*
X96314Y81410D01*
X96320Y81303D01*
X96342Y81196D01*
X96379Y81090D01*
X95212Y81571D01*
X93950D01*
X93959Y81590D01*
X93968Y81625D01*
X93976Y81677D01*
X93988Y81832D01*
X93999Y82347D01*
X94000Y82518D01*
X95351D01*
X95356Y82522D01*
X95463Y82626D01*
X95767Y82518D01*
D02*
G37*
G36*
X72250Y69275D02*
X72198Y69318D01*
X72130Y69356D01*
X72046Y69390D01*
X71947Y69419D01*
X71831Y69444D01*
X71699Y69464D01*
X71388Y69491D01*
X71014Y69500D01*
Y71500D01*
X71209Y71502D01*
X71699Y71536D01*
X71831Y71556D01*
X71947Y71581D01*
X72046Y71610D01*
X72130Y71644D01*
X72198Y71682D01*
X72250Y71725D01*
Y69275D01*
D02*
G37*
G36*
X83025Y67631D02*
X83020Y67590D01*
X83011Y67449D01*
X83000Y66549D01*
X81778Y66075D01*
X83000D01*
X83008Y65695D01*
X83068Y65055D01*
X83122Y64795D01*
X83190Y64575D01*
X83274Y64395D01*
X83372Y64255D01*
X83486Y64155D01*
X83615Y64095D01*
X83760Y64075D01*
X80240D01*
X80385Y64095D01*
X80514Y64155D01*
X80628Y64255D01*
X80726Y64395D01*
X80810Y64575D01*
X80879Y64795D01*
X80932Y65055D01*
X80970Y65355D01*
X80992Y65695D01*
X80997Y65939D01*
X80997Y65967D01*
X80971Y66304D01*
X80949Y66448D01*
X80921Y66574D01*
X80886Y66683D01*
X80845Y66776D01*
X80797Y66852D01*
X80743Y66910D01*
X80683Y66952D01*
X83031Y67652D01*
X83025Y67631D01*
D02*
G37*
G36*
X71008Y65683D02*
X71068Y65043D01*
X71122Y64783D01*
X71190Y64563D01*
X71273Y64383D01*
X71372Y64243D01*
X71486Y64143D01*
X71615Y64083D01*
X71760Y64063D01*
X68240D01*
X68385Y64083D01*
X68514Y64143D01*
X68628Y64243D01*
X68726Y64383D01*
X68810Y64563D01*
X68879Y64783D01*
X68932Y65043D01*
X68970Y65343D01*
X68992Y65683D01*
X69000Y66063D01*
X71000D01*
X71008Y65683D01*
D02*
G37*
G36*
X115396Y64691D02*
X115340Y64728D01*
X115278Y64762D01*
X115207Y64792D01*
X115130Y64817D01*
X115045Y64839D01*
X114953Y64857D01*
X114747Y64880D01*
X114633Y64886D01*
X114512Y64888D01*
Y66088D01*
X114633Y66090D01*
X114854Y66106D01*
X114953Y66120D01*
X115130Y66159D01*
X115207Y66185D01*
X115278Y66214D01*
X115340Y66248D01*
X115396Y66285D01*
Y64691D01*
D02*
G37*
G36*
X56790Y65405D02*
X56777Y65407D01*
X56745Y65408D01*
X55778Y65413D01*
Y66413D01*
X56790Y66421D01*
Y65405D01*
D02*
G37*
G36*
X101510Y68108D02*
X101540Y67768D01*
X101590Y67468D01*
X101660Y67208D01*
X101750Y66988D01*
X101860Y66808D01*
X101990Y66668D01*
X102140Y66568D01*
X102310Y66508D01*
X102500Y66488D01*
X101533D01*
X101561Y65060D01*
X99439D01*
X99450Y65102D01*
X99461Y65202D01*
X99478Y65579D01*
X99486Y66488D01*
X98500D01*
X98690Y66508D01*
X98860Y66568D01*
X99010Y66668D01*
X99140Y66808D01*
X99250Y66988D01*
X99340Y67208D01*
X99410Y67468D01*
X99460Y67768D01*
X99490Y68108D01*
X99500Y68488D01*
X101500D01*
X101510Y68108D01*
D02*
G37*
G36*
X45277Y61906D02*
X45119Y61969D01*
X44965Y62013D01*
X44815Y62038D01*
X44670Y62044D01*
X44528Y62030D01*
X44391Y61997D01*
X44258Y61946D01*
X44128Y61875D01*
X44003Y61784D01*
X43882Y61675D01*
X43508Y62715D01*
X43597Y62810D01*
X43687Y62917D01*
X43864Y63165D01*
X43952Y63306D01*
X44128Y63623D01*
X44302Y63985D01*
X44389Y64183D01*
X45277Y61906D01*
D02*
G37*
G36*
X24900Y61468D02*
X24888Y61470D01*
X24856Y61471D01*
X23888Y61476D01*
Y62476D01*
X24900Y62484D01*
Y61468D01*
D02*
G37*
G36*
X117638Y66410D02*
X117574Y66233D01*
X117569Y66026D01*
X117623Y65789D01*
X117735Y65521D01*
X117906Y65223D01*
X118135Y64895D01*
X118423Y64536D01*
X119174Y63728D01*
X117563Y62511D01*
X117162Y62898D01*
X116438Y63509D01*
X116116Y63732D01*
X115820Y63901D01*
X115550Y64015D01*
X115307Y64074D01*
X115089Y64079D01*
X114899Y64030D01*
X114734Y63925D01*
X117760Y66557D01*
X117638Y66410D01*
D02*
G37*
G36*
X113473Y67380D02*
X113556Y67311D01*
X113639Y67250D01*
X113722Y67197D01*
X113807Y67152D01*
X113892Y67116D01*
X113978Y67088D01*
X114065Y67067D01*
X114152Y67055D01*
X114240Y67051D01*
X114252Y64063D01*
X114239Y64235D01*
X114200Y64416D01*
X114135Y64606D01*
X114045Y64805D01*
X113929Y65013D01*
X113788Y65229D01*
X113621Y65455D01*
X113211Y65932D01*
X112968Y66184D01*
X113392Y67457D01*
X113473Y67380D01*
D02*
G37*
G36*
X24900Y63437D02*
X24888Y63438D01*
X24856Y63440D01*
X23888Y63445D01*
Y64445D01*
X24900Y64453D01*
Y63437D01*
D02*
G37*
G36*
X122806Y70122D02*
X123446Y69595D01*
X123723Y69416D01*
X123971Y69295D01*
X124190Y69230D01*
X124381Y69222D01*
X124543Y69271D01*
X124677Y69376D01*
X124782Y69539D01*
X123043Y65874D01*
X122936Y66204D01*
X122686Y66827D01*
X122544Y67121D01*
X122225Y67674D01*
X122048Y67933D01*
X121660Y68414D01*
X121448Y68638D01*
X122443Y70471D01*
X122806Y70122D01*
D02*
G37*
G36*
X29937Y69002D02*
X29836Y68880D01*
X29764Y68772D01*
X29721Y68678D01*
X29707Y68599D01*
X29721Y68535D01*
X29764Y68484D01*
X29836Y68448D01*
X29937Y68427D01*
X30066Y68420D01*
X27238D01*
X27377Y68427D01*
X27517Y68448D01*
X27657Y68484D01*
X27798Y68535D01*
X27939Y68599D01*
X28081Y68678D01*
X28223Y68772D01*
X28365Y68880D01*
X28508Y69002D01*
X28652Y69139D01*
X30066D01*
X29937Y69002D01*
D02*
G37*
G36*
X109665Y72990D02*
Y68500D01*
X109804Y67798D01*
X110202Y67202D01*
X112364Y65041D01*
X112664Y64691D01*
X112783Y64531D01*
X112881Y64380D01*
X112952Y64254D01*
X112996Y64156D01*
X113019Y64090D01*
X113025Y64058D01*
X113028Y64021D01*
Y63030D01*
X112528Y62823D01*
X108926Y66426D01*
X108362Y66859D01*
X107705Y67131D01*
X107000Y67223D01*
X106295Y67131D01*
X105638Y66859D01*
X105462Y66723D01*
X104456D01*
Y67700D01*
X102795D01*
X102787Y67728D01*
X102755Y67923D01*
X102743Y68053D01*
Y70839D01*
X103243Y70872D01*
X103272Y70650D01*
X103321Y70282D01*
X103598Y69613D01*
X104039Y69039D01*
X104613Y68598D01*
X105282Y68321D01*
X105500Y68292D01*
Y71000D01*
Y73708D01*
X105282Y73679D01*
X104613Y73402D01*
X104039Y72961D01*
X103598Y72387D01*
X103321Y71718D01*
X103272Y71350D01*
X103243Y71128D01*
X102743Y71161D01*
Y77000D01*
X102685Y77294D01*
X103002Y77680D01*
X104974D01*
X109665Y72990D01*
D02*
G37*
G36*
X43569Y69785D02*
X43568Y69753D01*
X43563Y68786D01*
X42563D01*
X42555Y69797D01*
X43571D01*
X43569Y69785D01*
D02*
G37*
G36*
X60660Y71226D02*
X60625Y71133D01*
X60594Y71004D01*
X60567Y70840D01*
X60557Y70742D01*
X61217D01*
X61079Y70600D01*
X60956Y70456D01*
X60847Y70311D01*
X60753Y70165D01*
X60673Y70018D01*
X60608Y69869D01*
X60557Y69720D01*
X60521Y69569D01*
X60499Y69418D01*
X60495Y69324D01*
X60497Y69239D01*
X60512Y69067D01*
X60537Y68915D01*
X60572Y68784D01*
X60617Y68673D01*
X60672Y68582D01*
X60737Y68511D01*
X60812Y68460D01*
X60897Y68430D01*
X60992Y68420D01*
X58992D01*
X59087Y68430D01*
X59172Y68460D01*
X59247Y68511D01*
X59312Y68582D01*
X59367Y68673D01*
X59412Y68784D01*
X59447Y68915D01*
X59472Y69067D01*
X59487Y69239D01*
X59489Y69324D01*
X59485Y69418D01*
X59463Y69569D01*
X59427Y69720D01*
X59376Y69869D01*
X59311Y70018D01*
X59231Y70165D01*
X59137Y70311D01*
X59028Y70456D01*
X58905Y70600D01*
X58767Y70742D01*
X59408D01*
X59390Y71004D01*
X59359Y71133D01*
X59324Y71226D01*
X59285Y71285D01*
X60700D01*
X60660Y71226D01*
D02*
G37*
G36*
X95500Y68292D02*
X95718Y68321D01*
X96387Y68598D01*
X96961Y69039D01*
X97402Y69613D01*
X97679Y70282D01*
X97757Y70872D01*
X98257Y70839D01*
Y68053D01*
X98245Y67923D01*
X98213Y67728D01*
X98205Y67700D01*
X96544D01*
Y60300D01*
X104456D01*
Y61277D01*
X105028D01*
Y58225D01*
X105028D01*
X105014Y57731D01*
X104256D01*
Y59500D01*
X101000D01*
Y56000D01*
Y52500D01*
X104256D01*
Y53245D01*
X105228D01*
Y52913D01*
X107500D01*
Y55488D01*
X108000D01*
Y55988D01*
X110772D01*
Y56224D01*
X111234Y56415D01*
X119777Y47872D01*
Y44105D01*
X119277Y44005D01*
X119077Y44488D01*
X118604Y45104D01*
X117988Y45577D01*
X117270Y45874D01*
X116500Y45976D01*
X115730Y45874D01*
X115472Y45767D01*
X114972Y46101D01*
Y51287D01*
X110298D01*
X110240Y51298D01*
X110182Y51287D01*
X109472D01*
X109028Y51287D01*
Y51287D01*
X108972D01*
Y51287D01*
X107817D01*
X107760Y51298D01*
X107702Y51287D01*
X104298D01*
X104240Y51298D01*
X104183Y51287D01*
X103472D01*
X103028Y51287D01*
Y51287D01*
X102972D01*
Y51287D01*
X101818D01*
X101760Y51298D01*
X101702Y51287D01*
X100288D01*
X99890Y51553D01*
X99032Y51723D01*
X93000D01*
X92142Y51553D01*
X91414Y51066D01*
X91277Y50861D01*
X90741D01*
X90534Y51361D01*
X91672Y52500D01*
X93256D01*
Y52633D01*
X93258Y52646D01*
X93393Y52829D01*
X93578Y52961D01*
X93756Y53027D01*
X94282Y52809D01*
X94500Y52780D01*
Y55488D01*
Y58196D01*
X94282Y58167D01*
X93756Y57950D01*
X93578Y58015D01*
X93393Y58147D01*
X93258Y58331D01*
X93256Y58343D01*
Y59500D01*
X90000D01*
Y56000D01*
X89000D01*
Y59500D01*
X85744D01*
Y57731D01*
X84772D01*
Y59320D01*
X84972Y59737D01*
X84972Y59737D01*
X84972Y59737D01*
Y60269D01*
X89500D01*
X89657Y60300D01*
X93456D01*
Y67700D01*
X91743D01*
Y70839D01*
X92243Y70872D01*
X92321Y70282D01*
X92598Y69613D01*
X93039Y69039D01*
X93613Y68598D01*
X94282Y68321D01*
X94500Y68292D01*
Y71000D01*
X95500D01*
Y68292D01*
D02*
G37*
G36*
X23296Y68302D02*
X23233Y68178D01*
X23191Y68054D01*
X23172Y67931D01*
X23175Y67807D01*
X23200Y67683D01*
X23246Y67560D01*
X23315Y67436D01*
X23406Y67313D01*
X23518Y67189D01*
X22623Y66670D01*
X22423Y66868D01*
X21312Y67853D01*
X21195Y67937D01*
X21088Y68007D01*
X23381Y68426D01*
X23296Y68302D01*
D02*
G37*
G36*
X43563Y68440D02*
X43564Y68158D01*
X43652Y66675D01*
X43675Y66533D01*
X43702Y66409D01*
X41786Y67737D01*
X41934Y67764D01*
X42066Y67806D01*
X42182Y67864D01*
X42283Y67938D01*
X42369Y68027D01*
X42439Y68132D01*
X42493Y68252D01*
X42532Y68388D01*
X42555Y68540D01*
X42563Y68707D01*
X43563Y68440D01*
D02*
G37*
G36*
X67087Y68608D02*
X66964Y68464D01*
X66855Y68319D01*
X66761Y68173D01*
X66681Y68026D01*
X66616Y67877D01*
X66565Y67728D01*
X66529Y67577D01*
X66507Y67426D01*
X66500Y67273D01*
X65500D01*
X65493Y67426D01*
X65471Y67577D01*
X65435Y67728D01*
X65384Y67877D01*
X65319Y68026D01*
X65239Y68173D01*
X65145Y68319D01*
X65036Y68464D01*
X64913Y68608D01*
X64775Y68750D01*
X67225D01*
X67087Y68608D01*
D02*
G37*
%LPC*%
G36*
X113756Y28000D02*
X110500D01*
Y25000D01*
X113756D01*
Y28000D01*
D02*
G37*
G36*
X25484Y15567D02*
X22228D01*
Y11130D01*
X25484D01*
Y15567D01*
D02*
G37*
G36*
Y10130D02*
X22228D01*
Y5693D01*
X25484D01*
Y10130D01*
D02*
G37*
G36*
X51075D02*
X47819D01*
Y5693D01*
X51075D01*
Y10130D01*
D02*
G37*
G36*
X76665D02*
X73409D01*
Y5693D01*
X76665D01*
Y10130D01*
D02*
G37*
G36*
X102256Y15567D02*
X99000D01*
Y11130D01*
X102256D01*
Y15567D01*
D02*
G37*
G36*
Y10130D02*
X99000D01*
Y5693D01*
X102256D01*
Y10130D01*
D02*
G37*
G36*
X80500Y88708D02*
Y86500D01*
X82708D01*
X82679Y86718D01*
X82402Y87387D01*
X81961Y87961D01*
X81387Y88402D01*
X80718Y88679D01*
X80500Y88708D01*
D02*
G37*
G36*
X90208Y88500D02*
X88000D01*
Y86292D01*
X88218Y86321D01*
X88887Y86598D01*
X89461Y87039D01*
X89902Y87613D01*
X90179Y88282D01*
X90208Y88500D01*
D02*
G37*
G36*
X87000D02*
X84792D01*
X84821Y88282D01*
X85098Y87613D01*
X85539Y87039D01*
X86113Y86598D01*
X86782Y86321D01*
X87000Y86292D01*
Y88500D01*
D02*
G37*
G36*
X114208D02*
X112000D01*
Y86292D01*
X112218Y86321D01*
X112887Y86598D01*
X113461Y87039D01*
X113902Y87613D01*
X114179Y88282D01*
X114208Y88500D01*
D02*
G37*
G36*
X79500Y88708D02*
X79282Y88679D01*
X78613Y88402D01*
X78039Y87961D01*
X77598Y87387D01*
X77321Y86718D01*
X77292Y86500D01*
X79500D01*
Y88708D01*
D02*
G37*
G36*
X111000Y88500D02*
X108792D01*
X108821Y88282D01*
X109098Y87613D01*
X109539Y87039D01*
X110113Y86598D01*
X110782Y86321D01*
X111000Y86292D01*
Y88500D01*
D02*
G37*
G36*
X103500D02*
X101292D01*
X101321Y88282D01*
X101598Y87613D01*
X102039Y87039D01*
X102613Y86598D01*
X103282Y86321D01*
X103500Y86292D01*
Y88500D01*
D02*
G37*
G36*
X106708D02*
X104500D01*
Y86292D01*
X104718Y86321D01*
X105387Y86598D01*
X105961Y87039D01*
X106402Y87613D01*
X106679Y88282D01*
X106708Y88500D01*
D02*
G37*
G36*
X106500Y73708D02*
Y71500D01*
X108708D01*
X108679Y71718D01*
X108402Y72387D01*
X107961Y72961D01*
X107387Y73402D01*
X106718Y73679D01*
X106500Y73708D01*
D02*
G37*
G36*
X108708Y70500D02*
X106500D01*
Y68292D01*
X106718Y68321D01*
X107387Y68598D01*
X107961Y69039D01*
X108402Y69613D01*
X108679Y70282D01*
X108708Y70500D01*
D02*
G37*
G36*
X100000Y59500D02*
X96744D01*
Y58246D01*
X96629Y58132D01*
X96244Y57950D01*
X95718Y58167D01*
X95500Y58196D01*
Y55488D01*
Y52780D01*
X95718Y52809D01*
X96244Y53027D01*
X96629Y52844D01*
X96744Y52730D01*
Y52500D01*
X100000D01*
Y56000D01*
Y59500D01*
D02*
G37*
G36*
X110772Y54988D02*
X108500D01*
Y52913D01*
X110772D01*
Y54988D01*
D02*
G37*
%LPD*%
D10*
X70000Y56988D02*
D03*
Y62500D02*
D03*
X32000Y23500D02*
D03*
Y29012D02*
D03*
X54000D02*
D03*
Y23500D02*
D03*
X26000D02*
D03*
Y29012D02*
D03*
X60000D02*
D03*
Y23500D02*
D03*
X66000D02*
D03*
Y29012D02*
D03*
X82000Y57000D02*
D03*
Y62512D02*
D03*
X76000Y50500D02*
D03*
Y44988D02*
D03*
X106000Y48512D02*
D03*
Y43000D02*
D03*
X116000Y65488D02*
D03*
Y71000D02*
D03*
X108000Y61000D02*
D03*
Y55488D02*
D03*
X93000Y31012D02*
D03*
Y25500D02*
D03*
X112000Y43000D02*
D03*
Y48512D02*
D03*
X100000D02*
D03*
Y43000D02*
D03*
D11*
X74000Y32500D02*
D03*
Y24500D02*
D03*
X83000Y32500D02*
D03*
Y24500D02*
D03*
X89500Y56000D02*
D03*
Y64000D02*
D03*
X100500D02*
D03*
Y56000D02*
D03*
X110000Y24500D02*
D03*
Y32500D02*
D03*
X101000D02*
D03*
Y24500D02*
D03*
X119500Y28500D02*
D03*
Y36500D02*
D03*
D12*
X82488Y41000D02*
D03*
Y48480D02*
D03*
X93512D02*
D03*
Y44740D02*
D03*
Y41000D02*
D03*
D13*
X47134Y22760D02*
D03*
Y30240D02*
D03*
X37291Y26500D02*
D03*
D14*
X76500Y56968D02*
D03*
Y63032D02*
D03*
D15*
X131000Y25465D02*
D03*
Y42000D02*
D03*
D16*
X95000Y80500D02*
D03*
D17*
X91260Y77547D02*
D03*
Y79516D02*
D03*
Y81484D02*
D03*
Y83453D02*
D03*
X98740D02*
D03*
Y81484D02*
D03*
Y79516D02*
D03*
Y77547D02*
D03*
D18*
X33220Y41110D02*
D03*
X35189D02*
D03*
X37157D02*
D03*
X39126D02*
D03*
X41094D02*
D03*
X43063D02*
D03*
X45031D02*
D03*
X47000D02*
D03*
X48968D02*
D03*
X50937D02*
D03*
X52905D02*
D03*
X54874D02*
D03*
Y73000D02*
D03*
X52905D02*
D03*
X50937D02*
D03*
X48968D02*
D03*
X47000D02*
D03*
X45031D02*
D03*
X43063D02*
D03*
X41094D02*
D03*
X39126D02*
D03*
X37157D02*
D03*
X35189D02*
D03*
X33220D02*
D03*
D19*
X59992Y46228D02*
D03*
Y48197D02*
D03*
Y50165D02*
D03*
Y52134D02*
D03*
Y54102D02*
D03*
Y56071D02*
D03*
Y58039D02*
D03*
Y60008D02*
D03*
Y61976D02*
D03*
Y63945D02*
D03*
Y65913D02*
D03*
Y67882D02*
D03*
X28102D02*
D03*
Y65913D02*
D03*
Y63945D02*
D03*
Y61976D02*
D03*
Y60008D02*
D03*
Y58039D02*
D03*
Y56071D02*
D03*
Y54102D02*
D03*
Y52134D02*
D03*
Y50165D02*
D03*
Y48197D02*
D03*
Y46228D02*
D03*
D20*
X95000Y55488D02*
X108000D01*
X83512D02*
X91488D01*
X88000Y44740D02*
X96260D01*
X88000Y52000D02*
X91488Y55488D01*
X88000Y24500D02*
X101000D01*
X73260Y44740D02*
X88000D01*
X77165Y21335D02*
Y24500D01*
X40500Y53000D02*
X46250Y58750D01*
X93000Y49480D02*
X99032D01*
X98500Y77000D02*
X100500D01*
X89500D02*
X91500D01*
X84000Y62512D02*
X89500D01*
X81000Y48480D02*
X83551D01*
X32000Y24000D02*
X38000Y18000D01*
X36354Y29012D02*
X38866Y26500D01*
X112000Y43000D02*
X116500D01*
X101000Y32500D02*
X108500D01*
X104000Y38000D02*
X106000Y40000D01*
X93000Y38000D02*
X104000D01*
X120500Y28500D02*
X131000Y39000D01*
X106000Y40000D02*
Y43000D01*
X91488Y55488D02*
X95000D01*
X70500Y47500D02*
Y52500D01*
Y47500D02*
X73260Y44740D01*
X69500Y73500D02*
X70000Y73000D01*
X61500Y73500D02*
X69500D01*
X70000Y70000D02*
Y73000D01*
X59992Y71992D02*
X61500Y73500D01*
X70500Y70500D02*
X73500D01*
X70000Y70000D02*
X70500Y70500D01*
X81500Y68500D02*
X82000Y68000D01*
Y62512D02*
Y68000D01*
X116000Y71000D02*
X120500D01*
X124571Y66929D01*
X122433Y59055D02*
X126772D01*
X116000Y65488D02*
X122433Y59055D01*
X124571Y66929D02*
X126772D01*
X88000Y44740D02*
Y52000D01*
X93000Y38000D02*
Y41000D01*
Y31012D02*
Y38000D01*
X120000Y28500D02*
X120500D01*
X119500D02*
X120000D01*
X83000Y24500D02*
X88000D01*
X110630Y11311D02*
X125318Y26000D01*
X110630Y10630D02*
Y11311D01*
X114500Y19000D02*
X120000Y24500D01*
X93409Y19000D02*
X114500D01*
X77165Y24500D02*
X83000D01*
X77165Y10630D02*
Y21335D01*
X33858Y10630D02*
Y14642D01*
X26000Y22500D02*
Y23500D01*
Y22500D02*
X33858Y14642D01*
X37500Y18000D02*
X38000D01*
X57000D01*
X32000Y23500D02*
X37500Y18000D01*
X57000D02*
X59449Y15551D01*
Y10630D02*
Y15551D01*
X47134Y30240D02*
X52772D01*
X82000Y57000D02*
X83512Y55488D01*
X78980Y50500D02*
X81000Y48480D01*
X76000Y50500D02*
X78980D01*
X74000Y24500D02*
X77165Y21335D01*
X73000Y23500D02*
X74000Y24500D01*
X66000Y23500D02*
X73000D01*
X83520Y48512D02*
X83551Y48480D01*
X98000Y43000D02*
X100000D01*
X96260Y44740D02*
X98000Y43000D01*
X94488Y32500D02*
X101000D01*
X93000Y31012D02*
X94488Y32500D01*
X85039Y10630D02*
X93409Y19000D01*
X106000Y48512D02*
X112000D01*
X100000D02*
X106000D01*
X101000Y24500D02*
X110000D01*
X99032Y49480D02*
X100000Y48512D01*
X131000Y39000D02*
Y42000D01*
X52772Y30240D02*
X54000Y29012D01*
X59260Y22760D02*
X60000Y23500D01*
X32000Y29012D02*
X36354D01*
X70000Y62500D02*
Y70000D01*
X33000Y48197D02*
X35697D01*
X40500Y53000D01*
X46500Y58500D02*
X52000D01*
Y62500D01*
Y54000D02*
Y58500D01*
X88000Y24500D02*
Y44740D01*
X70000Y56988D02*
X76480D01*
X76500Y56968D01*
X89500Y64000D02*
Y77000D01*
X100500Y64000D02*
Y77000D01*
X95000Y71000D02*
Y80500D01*
Y81315D01*
Y89000D01*
X47000Y49000D02*
X52000Y54000D01*
X54000Y31500D02*
X56500Y34000D01*
X54000Y29012D02*
Y31500D01*
X125318Y26000D02*
X131000D01*
X120000Y24500D02*
Y28500D01*
X47134Y22760D02*
X59260D01*
D21*
X107000Y64500D02*
X122500Y49000D01*
X108500Y32500D02*
X112500Y36500D01*
X119500D01*
X122500Y39500D02*
Y49000D01*
X119500Y36500D02*
X122500Y39500D01*
X66000Y29012D02*
X69488Y32500D01*
X100500Y64000D02*
X105500D01*
X74000Y32500D02*
Y37000D01*
Y32500D02*
X83000D01*
X69488D02*
X74000D01*
X83551Y33051D02*
Y41000D01*
X83000Y32500D02*
X83551Y33051D01*
X108500Y32500D02*
X110000D01*
D22*
X19500Y23500D02*
X25012Y29012D01*
X16585Y31181D02*
X18404Y33000D01*
X76000Y62512D02*
Y65500D01*
X6142Y41181D02*
X6480Y41520D01*
X6142Y31181D02*
X12500Y37539D01*
X60000Y31000D02*
X66000Y37000D01*
X60000Y29012D02*
Y31000D01*
X19328Y68000D02*
X23383Y63945D01*
X4500Y68000D02*
X19328D01*
X2500Y66000D02*
X4500Y68000D01*
X2500Y45500D02*
Y66000D01*
X28000Y75500D02*
Y86500D01*
X26000Y73500D02*
X28000Y75500D01*
X30500Y79500D02*
X32500Y81500D01*
X22948Y61976D02*
X28102D01*
X23383Y63945D02*
X28102D01*
X18924Y66000D02*
X22948Y61976D01*
X14500Y66000D02*
X18924D01*
X22000Y68000D02*
Y69500D01*
X57874Y76000D02*
X75500D01*
X42000Y66000D02*
X43063Y67063D01*
Y73000D01*
X75500Y76000D02*
X77000Y74500D01*
X45000Y63500D02*
X46000D01*
X38411Y56911D02*
X45000Y63500D01*
X35189Y37189D02*
Y41110D01*
X33700Y35700D02*
X35189Y37189D01*
X30200Y35700D02*
X33700D01*
X23359Y38141D02*
X24500Y37000D01*
X23359Y38141D02*
Y48939D01*
X21659Y39159D02*
Y51159D01*
X18500Y36000D02*
X21659Y39159D01*
X12500Y28672D02*
Y33500D01*
X8000Y24172D02*
X12500Y28672D01*
Y33500D02*
X15000Y36000D01*
X18500D01*
X18404Y33000D02*
X27500D01*
X30200Y35700D01*
X12500Y37539D02*
Y64000D01*
X22634Y52134D02*
X28102D01*
X31945Y34000D02*
X51889D01*
X29028Y31084D02*
X31945Y34000D01*
X16766Y31000D02*
X17000D01*
X16585Y31181D02*
X16766Y31000D01*
X25012Y29012D02*
X26000D01*
X29028Y26528D02*
Y31084D01*
X26000Y23500D02*
X29028Y26528D01*
X28102Y41602D02*
X28594Y41110D01*
X22000Y68000D02*
X24087Y65913D01*
X28102D01*
X12500Y64000D02*
X14500Y66000D01*
X38411Y56817D02*
Y56911D01*
X35696Y54102D02*
X38411Y56817D01*
X6480Y41520D02*
X7000Y41000D01*
X2500Y45500D02*
X6480Y41520D01*
X35000Y91500D02*
X53000D01*
X32500Y89000D02*
X35000Y91500D01*
X32500Y81500D02*
Y89000D01*
X45031Y73000D02*
Y79031D01*
X52000Y63500D02*
X54413Y65913D01*
X59992D01*
X77000Y66500D02*
Y74500D01*
X59992Y67882D02*
Y71992D01*
X47000Y41110D02*
Y49000D01*
X48968Y45469D02*
X52000Y48500D01*
X48968Y41110D02*
Y45469D01*
X54874Y36985D02*
Y41110D01*
X51889Y34000D02*
X54874Y36985D01*
X37157Y73000D02*
Y85658D01*
X28594Y41110D02*
X33220D01*
X33008Y60008D02*
X35000Y62000D01*
X53000Y91500D02*
X58000Y86500D01*
X76000Y65500D02*
X77000Y66500D01*
X66000Y37000D02*
Y70000D01*
X48968Y73000D02*
Y77469D01*
X49500Y78000D01*
X47000Y73000D02*
Y77904D01*
X48796Y79700D01*
X45031Y79031D02*
X47500Y81500D01*
X45031Y41110D02*
Y47857D01*
X44800Y48089D02*
X45031Y47857D01*
X44800Y48089D02*
Y52312D01*
X52000Y62500D02*
Y63500D01*
X49500Y78000D02*
X85000D01*
X83700Y79700D02*
X85484Y81484D01*
X91260D01*
X48796Y79700D02*
X83700D01*
X82500Y81500D02*
X84453Y83453D01*
X91260D01*
X47500Y81500D02*
X82500D01*
X85000Y78000D02*
X86516Y79516D01*
X91260D01*
X44800Y52312D02*
X45988Y53500D01*
X37157Y85658D02*
X38000Y86500D01*
X30500Y70280D02*
Y79500D01*
X28102Y41602D02*
Y46228D01*
X54874Y73000D02*
X57874Y76000D01*
X28102Y58039D02*
X35461D01*
X28102Y54102D02*
X35696D01*
X28102Y60008D02*
X33008D01*
X28102Y48197D02*
X33000D01*
X28102Y67882D02*
X30500Y70280D01*
X21659Y51159D02*
X22634Y52134D01*
X24586Y50165D02*
X28102D01*
X23359Y48939D02*
X24586Y50165D01*
D23*
X97138Y83453D02*
X98740D01*
X95000Y81315D02*
X97138Y83453D01*
X111500Y68500D02*
X114512Y65488D01*
X116000D01*
X98740Y79516D02*
X105734D01*
X111500Y73750D01*
Y68500D02*
Y73750D01*
X98740Y81484D02*
X108016D01*
X116000Y73500D01*
Y71000D02*
Y73500D01*
D24*
X7000Y61000D02*
D03*
D25*
X17000D02*
D03*
X7000Y51000D02*
D03*
X17000D02*
D03*
X7000Y41000D02*
D03*
X17000D02*
D03*
X7000Y31000D02*
D03*
X17000D02*
D03*
X28000Y86500D02*
D03*
X38000D02*
D03*
X48000D02*
D03*
X58000D02*
D03*
D26*
X68000D02*
D03*
D27*
X25984Y10630D02*
D03*
X51575D02*
D03*
X77165D02*
D03*
X102756D02*
D03*
D28*
X33858D02*
D03*
X59449D02*
D03*
X85039D02*
D03*
X110630D02*
D03*
D29*
X126772Y59055D02*
D03*
D30*
Y66929D02*
D03*
D31*
X88000Y44740D02*
D03*
X116500Y43000D02*
D03*
X19500Y24500D02*
D03*
X95000Y55488D02*
D03*
X70500Y52500D02*
D03*
X76000Y38500D02*
D03*
X26000Y73500D02*
D03*
X22000Y69500D02*
D03*
X42000Y66000D02*
D03*
X46000Y63500D02*
D03*
X24500Y37000D02*
D03*
X8000Y24000D02*
D03*
X12500Y24500D02*
D03*
X28102Y41602D02*
D03*
X40500Y53000D02*
D03*
X81500Y68500D02*
D03*
X73500Y70500D02*
D03*
X59992Y71992D02*
D03*
X56500Y34000D02*
D03*
X45988Y53500D02*
D03*
X52000Y48500D02*
D03*
Y54000D02*
D03*
X35461Y58039D02*
D03*
X35500Y62500D02*
D03*
X66000Y70000D02*
D03*
X46500Y58500D02*
D03*
X111500Y89000D02*
D03*
X104000D02*
D03*
X95000D02*
D03*
X87500D02*
D03*
X95000Y71000D02*
D03*
X106000D02*
D03*
X80000Y86000D02*
D03*
D32*
X95000Y80500D02*
D03*
M02*
