G04 Layer_Color=8388736*
%FSLAX25Y25*%
%MOIN*%
G70*
G01*
G75*
%ADD40R,0.04343X0.03950*%
%ADD41R,0.06312X0.05800*%
%ADD42R,0.05131X0.03162*%
%ADD43R,0.05721X0.03556*%
%ADD44R,0.04658X0.04461*%
%ADD45R,0.08674X0.08674*%
%ADD46R,0.03400X0.06699*%
%ADD47R,0.02762X0.01502*%
%ADD48O,0.01502X0.07487*%
%ADD49O,0.07487X0.01502*%
%ADD50C,0.00800*%
%ADD51R,0.06706X0.06706*%
%ADD52C,0.06706*%
%ADD53R,0.06706X0.06706*%
%ADD54R,0.06312X0.08674*%
%ADD55O,0.06312X0.08674*%
%ADD56R,0.08674X0.06312*%
%ADD57O,0.08674X0.06312*%
%ADD58C,0.04300*%
%ADD59C,0.03800*%
D40*
X70000Y56988D02*
D03*
Y62500D02*
D03*
X32000Y23500D02*
D03*
Y29012D02*
D03*
X54000D02*
D03*
Y23500D02*
D03*
X26000D02*
D03*
Y29012D02*
D03*
X60000D02*
D03*
Y23500D02*
D03*
X66000D02*
D03*
Y29012D02*
D03*
X82000Y57000D02*
D03*
Y62512D02*
D03*
X76000Y50500D02*
D03*
Y44988D02*
D03*
X106000Y48512D02*
D03*
Y43000D02*
D03*
X116000Y65488D02*
D03*
Y71000D02*
D03*
X108000Y61000D02*
D03*
Y55488D02*
D03*
X93000Y31012D02*
D03*
Y25500D02*
D03*
X112000Y43000D02*
D03*
Y48512D02*
D03*
X100000D02*
D03*
Y43000D02*
D03*
D41*
X74000Y32500D02*
D03*
Y24500D02*
D03*
X83000Y32500D02*
D03*
Y24500D02*
D03*
X89500Y56000D02*
D03*
Y64000D02*
D03*
X100500D02*
D03*
Y56000D02*
D03*
X110000Y24500D02*
D03*
Y32500D02*
D03*
X101000D02*
D03*
Y24500D02*
D03*
X119500Y28500D02*
D03*
Y36500D02*
D03*
D42*
X82488Y41000D02*
D03*
Y48480D02*
D03*
X93512D02*
D03*
Y44740D02*
D03*
Y41000D02*
D03*
D43*
X47134Y22760D02*
D03*
Y30240D02*
D03*
X37291Y26500D02*
D03*
D44*
X76500Y56968D02*
D03*
Y63032D02*
D03*
D45*
X131000Y25465D02*
D03*
Y42000D02*
D03*
D46*
X95000Y80500D02*
D03*
D47*
X91260Y77547D02*
D03*
Y79516D02*
D03*
Y81484D02*
D03*
Y83453D02*
D03*
X98740D02*
D03*
Y81484D02*
D03*
Y79516D02*
D03*
Y77547D02*
D03*
D48*
X33220Y41110D02*
D03*
X35189D02*
D03*
X37157D02*
D03*
X39126D02*
D03*
X41094D02*
D03*
X43063D02*
D03*
X45031D02*
D03*
X47000D02*
D03*
X48968D02*
D03*
X50937D02*
D03*
X52905D02*
D03*
X54874D02*
D03*
Y73000D02*
D03*
X52905D02*
D03*
X50937D02*
D03*
X48968D02*
D03*
X47000D02*
D03*
X45031D02*
D03*
X43063D02*
D03*
X41094D02*
D03*
X39126D02*
D03*
X37157D02*
D03*
X35189D02*
D03*
X33220D02*
D03*
D49*
X59992Y46228D02*
D03*
Y48197D02*
D03*
Y50165D02*
D03*
Y52134D02*
D03*
Y54102D02*
D03*
Y56071D02*
D03*
Y58039D02*
D03*
Y60008D02*
D03*
Y61976D02*
D03*
Y63945D02*
D03*
Y65913D02*
D03*
Y67882D02*
D03*
X28102D02*
D03*
Y65913D02*
D03*
Y63945D02*
D03*
Y61976D02*
D03*
Y60008D02*
D03*
Y58039D02*
D03*
Y56071D02*
D03*
Y54102D02*
D03*
Y52134D02*
D03*
Y50165D02*
D03*
Y48197D02*
D03*
Y46228D02*
D03*
D50*
X9449Y84646D02*
D03*
X127953D02*
D03*
X9843Y9843D02*
D03*
X127953D02*
D03*
D51*
X7000Y61000D02*
D03*
D52*
X17000D02*
D03*
X7000Y51000D02*
D03*
X17000D02*
D03*
X7000Y41000D02*
D03*
X17000D02*
D03*
X7000Y31000D02*
D03*
X17000D02*
D03*
X28000Y86500D02*
D03*
X38000D02*
D03*
X48000D02*
D03*
X58000D02*
D03*
D53*
X68000D02*
D03*
D54*
X25984Y10630D02*
D03*
X51575D02*
D03*
X77165D02*
D03*
X102756D02*
D03*
D55*
X33858D02*
D03*
X59449D02*
D03*
X85039D02*
D03*
X110630D02*
D03*
D56*
X126772Y59055D02*
D03*
D57*
Y66929D02*
D03*
D58*
X88000Y44740D02*
D03*
D59*
X95000Y80500D02*
D03*
M02*
