G04 Layer_Color=2752767*
%FSLAX25Y25*%
%MOIN*%
G70*
G01*
G75*
%ADD37C,0.00800*%
%ADD63C,0.00200*%
%ADD64C,0.00267*%
%ADD65C,0.01280*%
%ADD66C,0.00667*%
D37*
X37830Y178165D02*
X38663Y178998D01*
X40329D01*
X41162Y178165D01*
Y177332D01*
X40329Y176499D01*
X39496D01*
X40329D01*
X41162Y175666D01*
Y174833D01*
X40329Y174000D01*
X38663D01*
X37830Y174833D01*
X45327Y174000D02*
Y178998D01*
X42828Y176499D01*
X46160D01*
X98986Y174000D02*
X95654D01*
X98986Y177332D01*
Y178165D01*
X98153Y178998D01*
X96487D01*
X95654Y178165D01*
X100653D02*
X101486Y178998D01*
X103152D01*
X103985Y178165D01*
Y174833D01*
X103152Y174000D01*
X101486D01*
X100653Y174833D01*
Y178165D01*
X105651Y174000D02*
Y177332D01*
X106484D01*
X107317Y176499D01*
Y174000D01*
Y176499D01*
X108150Y177332D01*
X108983Y176499D01*
Y174000D01*
X110649D02*
X112315D01*
X111482D01*
Y177332D01*
X110649D01*
X114815Y174000D02*
X116481D01*
X115648D01*
Y178998D01*
X114815D01*
X125644Y174000D02*
X123978Y175666D01*
Y177332D01*
X125644Y178998D01*
X128144Y178165D02*
X128977Y178998D01*
X130643D01*
X131476Y178165D01*
Y174833D01*
X130643Y174000D01*
X128977D01*
X128144Y174833D01*
Y178165D01*
X133142Y174000D02*
Y174833D01*
X133975D01*
Y174000D01*
X133142D01*
X140640Y178998D02*
X137307D01*
Y176499D01*
X138973Y177332D01*
X139806D01*
X140640Y176499D01*
Y174833D01*
X139806Y174000D01*
X138140D01*
X137307Y174833D01*
X142306Y178165D02*
X143139Y178998D01*
X144805D01*
X145638Y178165D01*
Y174833D01*
X144805Y174000D01*
X143139D01*
X142306Y174833D01*
Y178165D01*
X147304D02*
X148137Y178998D01*
X149803D01*
X150636Y178165D01*
Y177332D01*
X149803Y176499D01*
X150636Y175666D01*
Y174833D01*
X149803Y174000D01*
X148137D01*
X147304Y174833D01*
Y175666D01*
X148137Y176499D01*
X147304Y177332D01*
Y178165D01*
X148137Y176499D02*
X149803D01*
X152302Y174000D02*
Y177332D01*
X153136D01*
X153969Y176499D01*
Y174000D01*
Y176499D01*
X154802Y177332D01*
X155635Y176499D01*
Y174000D01*
X157301D02*
Y177332D01*
X158134D01*
X158967Y176499D01*
Y174000D01*
Y176499D01*
X159800Y177332D01*
X160633Y176499D01*
Y174000D01*
X162299D02*
X163965Y175666D01*
Y177332D01*
X162299Y178998D01*
X207461Y174000D02*
Y178998D01*
X209960D01*
X210793Y178165D01*
Y176499D01*
X209960Y175666D01*
X207461D01*
X212459Y178998D02*
X215792D01*
X214126D01*
Y174000D01*
X217458Y178998D02*
Y174000D01*
Y176499D01*
X220790D01*
Y178998D01*
Y174000D01*
X249291D02*
Y178998D01*
X251790D01*
X252623Y178165D01*
Y176499D01*
X251790Y175666D01*
X249291D01*
X250957D02*
X252623Y174000D01*
X255122D02*
X256788D01*
X257621Y174833D01*
Y176499D01*
X256788Y177332D01*
X255122D01*
X254289Y176499D01*
Y174833D01*
X255122Y174000D01*
X259288Y177332D02*
Y174833D01*
X260121Y174000D01*
X262620D01*
Y177332D01*
X264286Y174000D02*
Y177332D01*
X266785D01*
X267618Y176499D01*
Y174000D01*
X272617Y178998D02*
Y174000D01*
X270117D01*
X269284Y174833D01*
Y176499D01*
X270117Y177332D01*
X272617D01*
X37830Y164000D02*
X39496D01*
X38663D01*
Y168998D01*
X37830Y168165D01*
X98986Y164000D02*
X95654D01*
X98986Y167332D01*
Y168165D01*
X98153Y168998D01*
X96487D01*
X95654Y168165D01*
X103985Y168998D02*
X100653D01*
Y166499D01*
X102319Y167332D01*
X103152D01*
X103985Y166499D01*
Y164833D01*
X103152Y164000D01*
X101486D01*
X100653Y164833D01*
X105651Y164000D02*
Y167332D01*
X106484D01*
X107317Y166499D01*
Y164000D01*
Y166499D01*
X108150Y167332D01*
X108983Y166499D01*
Y164000D01*
X110649D02*
X112315D01*
X111482D01*
Y167332D01*
X110649D01*
X114815Y164000D02*
X116481D01*
X115648D01*
Y168998D01*
X114815D01*
X125644Y164000D02*
X123978Y165666D01*
Y167332D01*
X125644Y168998D01*
X128144Y168165D02*
X128977Y168998D01*
X130643D01*
X131476Y168165D01*
Y164833D01*
X130643Y164000D01*
X128977D01*
X128144Y164833D01*
Y168165D01*
X133142Y164000D02*
Y164833D01*
X133975D01*
Y164000D01*
X133142D01*
X140640Y168998D02*
X138973Y168165D01*
X137307Y166499D01*
Y164833D01*
X138140Y164000D01*
X139806D01*
X140640Y164833D01*
Y165666D01*
X139806Y166499D01*
X137307D01*
X142306Y168165D02*
X143139Y168998D01*
X144805D01*
X145638Y168165D01*
Y167332D01*
X144805Y166499D01*
X143972D01*
X144805D01*
X145638Y165666D01*
Y164833D01*
X144805Y164000D01*
X143139D01*
X142306Y164833D01*
X150636Y168998D02*
X147304D01*
Y166499D01*
X148970Y167332D01*
X149803D01*
X150636Y166499D01*
Y164833D01*
X149803Y164000D01*
X148137D01*
X147304Y164833D01*
X152302Y164000D02*
Y167332D01*
X153136D01*
X153969Y166499D01*
Y164000D01*
Y166499D01*
X154802Y167332D01*
X155635Y166499D01*
Y164000D01*
X157301D02*
Y167332D01*
X158134D01*
X158967Y166499D01*
Y164000D01*
Y166499D01*
X159800Y167332D01*
X160633Y166499D01*
Y164000D01*
X162299D02*
X163965Y165666D01*
Y167332D01*
X162299Y168998D01*
X207461Y164000D02*
Y168998D01*
X209960D01*
X210793Y168165D01*
Y166499D01*
X209960Y165666D01*
X207461D01*
X212459Y168998D02*
X215792D01*
X214126D01*
Y164000D01*
X217458Y168998D02*
Y164000D01*
Y166499D01*
X220790D01*
Y168998D01*
Y164000D01*
X249291D02*
Y168998D01*
X251790D01*
X252623Y168165D01*
Y166499D01*
X251790Y165666D01*
X249291D01*
X250957D02*
X252623Y164000D01*
X255122D02*
X256788D01*
X257621Y164833D01*
Y166499D01*
X256788Y167332D01*
X255122D01*
X254289Y166499D01*
Y164833D01*
X255122Y164000D01*
X259288Y167332D02*
Y164833D01*
X260121Y164000D01*
X262620D01*
Y167332D01*
X264286Y164000D02*
Y167332D01*
X266785D01*
X267618Y166499D01*
Y164000D01*
X272617Y168998D02*
Y164000D01*
X270117D01*
X269284Y164833D01*
Y166499D01*
X270117Y167332D01*
X272617D01*
X37830Y154000D02*
X39496D01*
X38663D01*
Y158998D01*
X37830Y158165D01*
X41995D02*
X42828Y158998D01*
X44494D01*
X45327Y158165D01*
Y154833D01*
X44494Y154000D01*
X42828D01*
X41995Y154833D01*
Y158165D01*
X95654D02*
X96487Y158998D01*
X98153D01*
X98986Y158165D01*
Y157332D01*
X98153Y156499D01*
X97320D01*
X98153D01*
X98986Y155666D01*
Y154833D01*
X98153Y154000D01*
X96487D01*
X95654Y154833D01*
X100653Y154000D02*
X102319D01*
X101486D01*
Y158998D01*
X100653Y158165D01*
X104818Y154000D02*
Y154833D01*
X105651D01*
Y154000D01*
X104818D01*
X111482D02*
Y158998D01*
X108983Y156499D01*
X112315D01*
X113981Y154833D02*
X114815Y154000D01*
X116481D01*
X117314Y154833D01*
Y158165D01*
X116481Y158998D01*
X114815D01*
X113981Y158165D01*
Y157332D01*
X114815Y156499D01*
X117314D01*
X122312Y158998D02*
X120646Y158165D01*
X118980Y156499D01*
Y154833D01*
X119813Y154000D01*
X121479D01*
X122312Y154833D01*
Y155666D01*
X121479Y156499D01*
X118980D01*
X123978Y154000D02*
Y157332D01*
X124811D01*
X125644Y156499D01*
Y154000D01*
Y156499D01*
X126478Y157332D01*
X127311Y156499D01*
Y154000D01*
X128977D02*
X130643D01*
X129810D01*
Y157332D01*
X128977D01*
X133142Y154000D02*
X134808D01*
X133975D01*
Y158998D01*
X133142D01*
X143972Y154000D02*
X142306Y155666D01*
Y157332D01*
X143972Y158998D01*
X146471Y158165D02*
X147304Y158998D01*
X148970D01*
X149803Y158165D01*
Y154833D01*
X148970Y154000D01*
X147304D01*
X146471Y154833D01*
Y158165D01*
X151469Y154000D02*
Y154833D01*
X152302D01*
Y154000D01*
X151469D01*
X155635Y158165D02*
X156468Y158998D01*
X158134D01*
X158967Y158165D01*
Y157332D01*
X158134Y156499D01*
X158967Y155666D01*
Y154833D01*
X158134Y154000D01*
X156468D01*
X155635Y154833D01*
Y155666D01*
X156468Y156499D01*
X155635Y157332D01*
Y158165D01*
X156468Y156499D02*
X158134D01*
X160633Y154000D02*
Y157332D01*
X161466D01*
X162299Y156499D01*
Y154000D01*
Y156499D01*
X163132Y157332D01*
X163965Y156499D01*
Y154000D01*
X165631D02*
Y157332D01*
X166464D01*
X167298Y156499D01*
Y154000D01*
Y156499D01*
X168131Y157332D01*
X168964Y156499D01*
Y154000D01*
X170630D02*
X172296Y155666D01*
Y157332D01*
X170630Y158998D01*
X207461Y154000D02*
Y158998D01*
X209960D01*
X210793Y158165D01*
Y156499D01*
X209960Y155666D01*
X207461D01*
X212459Y158998D02*
X215792D01*
X214126D01*
Y154000D01*
X217458Y158998D02*
Y154000D01*
Y156499D01*
X220790D01*
Y158998D01*
Y154000D01*
X249291D02*
Y158998D01*
X251790D01*
X252623Y158165D01*
Y156499D01*
X251790Y155666D01*
X249291D01*
X250957D02*
X252623Y154000D01*
X255122D02*
X256788D01*
X257621Y154833D01*
Y156499D01*
X256788Y157332D01*
X255122D01*
X254289Y156499D01*
Y154833D01*
X255122Y154000D01*
X259288Y157332D02*
Y154833D01*
X260121Y154000D01*
X262620D01*
Y157332D01*
X264286Y154000D02*
Y157332D01*
X266785D01*
X267618Y156499D01*
Y154000D01*
X272617Y158998D02*
Y154000D01*
X270117D01*
X269284Y154833D01*
Y156499D01*
X270117Y157332D01*
X272617D01*
X37830Y144000D02*
X39496D01*
X38663D01*
Y148998D01*
X37830Y148165D01*
X41995D02*
X42828Y148998D01*
X44494D01*
X45327Y148165D01*
Y147332D01*
X44494Y146499D01*
X43661D01*
X44494D01*
X45327Y145666D01*
Y144833D01*
X44494Y144000D01*
X42828D01*
X41995Y144833D01*
X95654Y148165D02*
X96487Y148998D01*
X98153D01*
X98986Y148165D01*
Y147332D01*
X98153Y146499D01*
X97320D01*
X98153D01*
X98986Y145666D01*
Y144833D01*
X98153Y144000D01*
X96487D01*
X95654Y144833D01*
X103985Y148998D02*
X100653D01*
Y146499D01*
X102319Y147332D01*
X103152D01*
X103985Y146499D01*
Y144833D01*
X103152Y144000D01*
X101486D01*
X100653Y144833D01*
X105651Y144000D02*
Y144833D01*
X106484D01*
Y144000D01*
X105651D01*
X112315D02*
Y148998D01*
X109816Y146499D01*
X113148D01*
X114815Y148165D02*
X115648Y148998D01*
X117314D01*
X118147Y148165D01*
Y147332D01*
X117314Y146499D01*
X116481D01*
X117314D01*
X118147Y145666D01*
Y144833D01*
X117314Y144000D01*
X115648D01*
X114815Y144833D01*
X119813Y148165D02*
X120646Y148998D01*
X122312D01*
X123145Y148165D01*
Y147332D01*
X122312Y146499D01*
X121479D01*
X122312D01*
X123145Y145666D01*
Y144833D01*
X122312Y144000D01*
X120646D01*
X119813Y144833D01*
X124811Y144000D02*
Y147332D01*
X125644D01*
X126478Y146499D01*
Y144000D01*
Y146499D01*
X127311Y147332D01*
X128144Y146499D01*
Y144000D01*
X129810D02*
X131476D01*
X130643D01*
Y147332D01*
X129810D01*
X133975Y144000D02*
X135641D01*
X134808D01*
Y148998D01*
X133975D01*
X144805Y144000D02*
X143139Y145666D01*
Y147332D01*
X144805Y148998D01*
X147304Y148165D02*
X148137Y148998D01*
X149803D01*
X150636Y148165D01*
Y144833D01*
X149803Y144000D01*
X148137D01*
X147304Y144833D01*
Y148165D01*
X152302Y144000D02*
Y144833D01*
X153136D01*
Y144000D01*
X152302D01*
X156468Y144833D02*
X157301Y144000D01*
X158967D01*
X159800Y144833D01*
Y148165D01*
X158967Y148998D01*
X157301D01*
X156468Y148165D01*
Y147332D01*
X157301Y146499D01*
X159800D01*
X161466Y144000D02*
Y147332D01*
X162299D01*
X163132Y146499D01*
Y144000D01*
Y146499D01*
X163965Y147332D01*
X164798Y146499D01*
Y144000D01*
X166464D02*
Y147332D01*
X167298D01*
X168131Y146499D01*
Y144000D01*
Y146499D01*
X168964Y147332D01*
X169797Y146499D01*
Y144000D01*
X171463D02*
X173129Y145666D01*
Y147332D01*
X171463Y148998D01*
X207461Y144000D02*
Y148998D01*
X209960D01*
X210793Y148165D01*
Y146499D01*
X209960Y145666D01*
X207461D01*
X212459Y148998D02*
X215792D01*
X214126D01*
Y144000D01*
X217458Y148998D02*
Y144000D01*
Y146499D01*
X220790D01*
Y148998D01*
Y144000D01*
X249291D02*
Y148998D01*
X251790D01*
X252623Y148165D01*
Y146499D01*
X251790Y145666D01*
X249291D01*
X250957D02*
X252623Y144000D01*
X255122D02*
X256788D01*
X257621Y144833D01*
Y146499D01*
X256788Y147332D01*
X255122D01*
X254289Y146499D01*
Y144833D01*
X255122Y144000D01*
X259288Y147332D02*
Y144833D01*
X260121Y144000D01*
X262620D01*
Y147332D01*
X264286Y144000D02*
Y147332D01*
X266785D01*
X267618Y146499D01*
Y144000D01*
X272617Y148998D02*
Y144000D01*
X270117D01*
X269284Y144833D01*
Y146499D01*
X270117Y147332D01*
X272617D01*
X40329Y134000D02*
Y138998D01*
X37830Y136499D01*
X41162D01*
X95654Y138165D02*
X96487Y138998D01*
X98153D01*
X98986Y138165D01*
Y137332D01*
X98153Y136499D01*
X98986Y135666D01*
Y134833D01*
X98153Y134000D01*
X96487D01*
X95654Y134833D01*
Y135666D01*
X96487Y136499D01*
X95654Y137332D01*
Y138165D01*
X96487Y136499D02*
X98153D01*
X103985Y138998D02*
X102319Y138165D01*
X100653Y136499D01*
Y134833D01*
X101486Y134000D01*
X103152D01*
X103985Y134833D01*
Y135666D01*
X103152Y136499D01*
X100653D01*
X105651Y134000D02*
Y134833D01*
X106484D01*
Y134000D01*
X105651D01*
X113148Y138998D02*
X111482Y138165D01*
X109816Y136499D01*
Y134833D01*
X110649Y134000D01*
X112315D01*
X113148Y134833D01*
Y135666D01*
X112315Y136499D01*
X109816D01*
X114815Y134000D02*
X116481D01*
X115648D01*
Y138998D01*
X114815Y138165D01*
X121479Y134000D02*
Y138998D01*
X118980Y136499D01*
X122312D01*
X123978Y134000D02*
Y137332D01*
X124811D01*
X125644Y136499D01*
Y134000D01*
Y136499D01*
X126478Y137332D01*
X127311Y136499D01*
Y134000D01*
X128977D02*
X130643D01*
X129810D01*
Y137332D01*
X128977D01*
X133142Y134000D02*
X134808D01*
X133975D01*
Y138998D01*
X133142D01*
X143972Y134000D02*
X142306Y135666D01*
Y137332D01*
X143972Y138998D01*
X149803Y134000D02*
X146471D01*
X149803Y137332D01*
Y138165D01*
X148970Y138998D01*
X147304D01*
X146471Y138165D01*
X151469Y134000D02*
Y134833D01*
X152302D01*
Y134000D01*
X151469D01*
X158967D02*
X155635D01*
X158967Y137332D01*
Y138165D01*
X158134Y138998D01*
X156468D01*
X155635Y138165D01*
X160633Y134000D02*
Y137332D01*
X161466D01*
X162299Y136499D01*
Y134000D01*
Y136499D01*
X163132Y137332D01*
X163965Y136499D01*
Y134000D01*
X165631D02*
Y137332D01*
X166464D01*
X167298Y136499D01*
Y134000D01*
Y136499D01*
X168131Y137332D01*
X168964Y136499D01*
Y134000D01*
X170630D02*
X172296Y135666D01*
Y137332D01*
X170630Y138998D01*
X207461Y134000D02*
Y138998D01*
X210793Y134000D01*
Y138998D01*
X212459Y134000D02*
Y138998D01*
X214959D01*
X215792Y138165D01*
Y136499D01*
X214959Y135666D01*
X212459D01*
X217458Y138998D02*
X220790D01*
X219124D01*
Y134000D01*
X222456Y138998D02*
Y134000D01*
Y136499D01*
X225788D01*
Y138998D01*
Y134000D01*
X249291D02*
Y138998D01*
X251790D01*
X252623Y138165D01*
Y136499D01*
X251790Y135666D01*
X249291D01*
X250957D02*
X252623Y134000D01*
X255122D02*
X256788D01*
X257621Y134833D01*
Y136499D01*
X256788Y137332D01*
X255122D01*
X254289Y136499D01*
Y134833D01*
X255122Y134000D01*
X259288Y137332D02*
Y134833D01*
X260121Y134000D01*
X262620D01*
Y137332D01*
X264286Y134000D02*
Y137332D01*
X266785D01*
X267618Y136499D01*
Y134000D01*
X272617Y138998D02*
Y134000D01*
X270117D01*
X269284Y134833D01*
Y136499D01*
X270117Y137332D01*
X272617D01*
X41162Y128998D02*
X39496Y128165D01*
X37830Y126499D01*
Y124833D01*
X38663Y124000D01*
X40329D01*
X41162Y124833D01*
Y125666D01*
X40329Y126499D01*
X37830D01*
X46160Y124000D02*
X42828D01*
X46160Y127332D01*
Y128165D01*
X45327Y128998D01*
X43661D01*
X42828Y128165D01*
X55040Y128998D02*
X58373D01*
X56706D01*
Y124000D01*
X60872D02*
X62538D01*
X63371Y124833D01*
Y126499D01*
X62538Y127332D01*
X60872D01*
X60039Y126499D01*
Y124833D01*
X60872Y124000D01*
X65870Y128165D02*
Y127332D01*
X65037D01*
X66703D01*
X65870D01*
Y124833D01*
X66703Y124000D01*
X70035Y127332D02*
X71702D01*
X72535Y126499D01*
Y124000D01*
X70035D01*
X69202Y124833D01*
X70035Y125666D01*
X72535D01*
X74201Y124000D02*
X75867D01*
X75034D01*
Y128998D01*
X74201D01*
D63*
X109830Y9830D02*
Y11430D01*
X111430D01*
Y9830D01*
X109830D01*
X101956D02*
Y11430D01*
X103556D01*
Y9830D01*
X101956D01*
X76365D02*
Y11430D01*
X77965D01*
Y9830D01*
X76365D01*
X84239D02*
Y11430D01*
X85839D01*
Y9830D01*
X84239D01*
X125972Y66129D02*
Y67729D01*
X127572D01*
Y66129D01*
X125972D01*
Y58255D02*
Y59855D01*
X127572D01*
Y58255D01*
X125972D01*
X50775Y9830D02*
Y11430D01*
X52375D01*
Y9830D01*
X50775D01*
X58649D02*
Y11430D01*
X60249D01*
Y9830D01*
X58649D01*
X33058D02*
Y11430D01*
X34658D01*
Y9830D01*
X33058D01*
X25184D02*
Y11430D01*
X26784D01*
Y9830D01*
X25184D01*
X127953Y9042D02*
X127153Y10643D01*
X128753D01*
X127953Y9042D01*
X9843D02*
X9042Y10643D01*
X10643D01*
X9843Y9042D01*
X127953Y83846D02*
X127153Y85446D01*
X128753D01*
X127953Y83846D01*
X9449D02*
X8649Y85446D01*
X10249D01*
X9449Y83846D01*
X116500Y42200D02*
X116900Y42600D01*
X117300D01*
X116900Y43000D01*
X117300Y43400D01*
X116900D01*
X116500Y43800D01*
X116100Y43400D01*
X115700D01*
X116100Y43000D01*
X115700Y42600D01*
X116100D01*
X116500Y42200D01*
X106000Y37700D02*
X106400Y38100D01*
X106800D01*
X106400Y38500D01*
X106800Y38900D01*
X106400D01*
X106000Y39300D01*
X105600Y38900D01*
X105200D01*
X105600Y38500D01*
X105200Y38100D01*
X105600D01*
X106000Y37700D01*
X94200Y79700D02*
X94600Y80500D01*
X94200Y81300D01*
X95000Y80900D01*
X95800Y81300D01*
X95400Y80500D01*
X95800Y79700D01*
X95000Y80100D01*
X94200Y79700D01*
X80000Y85200D02*
X80400Y85600D01*
X80800D01*
X80400Y86000D01*
X80800Y86400D01*
X80400D01*
X80000Y86800D01*
X79600Y86400D01*
X79200D01*
X79600Y86000D01*
X79200Y85600D01*
X79600D01*
X80000Y85200D01*
X106000Y70200D02*
X106400Y70600D01*
X106800D01*
X106400Y71000D01*
X106800Y71400D01*
X106400D01*
X106000Y71800D01*
X105600Y71400D01*
X105200D01*
X105600Y71000D01*
X105200Y70600D01*
X105600D01*
X106000Y70200D01*
X95000D02*
X95400Y70600D01*
X95800D01*
X95400Y71000D01*
X95800Y71400D01*
X95400D01*
X95000Y71800D01*
X94600Y71400D01*
X94200D01*
X94600Y71000D01*
X94200Y70600D01*
X94600D01*
X95000Y70200D01*
X87500Y88200D02*
X87900Y88600D01*
X88300D01*
X87900Y89000D01*
X88300Y89400D01*
X87900D01*
X87500Y89800D01*
X87100Y89400D01*
X86700D01*
X87100Y89000D01*
X86700Y88600D01*
X87100D01*
X87500Y88200D01*
X95000D02*
X95400Y88600D01*
X95800D01*
X95400Y89000D01*
X95800Y89400D01*
X95400D01*
X95000Y89800D01*
X94600Y89400D01*
X94200D01*
X94600Y89000D01*
X94200Y88600D01*
X94600D01*
X95000Y88200D01*
X104000D02*
X104400Y88600D01*
X104800D01*
X104400Y89000D01*
X104800Y89400D01*
X104400D01*
X104000Y89800D01*
X103600Y89400D01*
X103200D01*
X103600Y89000D01*
X103200Y88600D01*
X103600D01*
X104000Y88200D01*
X111500D02*
X111900Y88600D01*
X112300D01*
X111900Y89000D01*
X112300Y89400D01*
X111900D01*
X111500Y89800D01*
X111100Y89400D01*
X110700D01*
X111100Y89000D01*
X110700Y88600D01*
X111100D01*
X111500Y88200D01*
X46500Y57700D02*
X46900Y58100D01*
X47300D01*
X46900Y58500D01*
X47300Y58900D01*
X46900D01*
X46500Y59300D01*
X46100Y58900D01*
X45700D01*
X46100Y58500D01*
X45700Y58100D01*
X46100D01*
X46500Y57700D01*
X66000Y69200D02*
X66400Y69600D01*
X66800D01*
X66400Y70000D01*
X66800Y70400D01*
X66400D01*
X66000Y70800D01*
X65600Y70400D01*
X65200D01*
X65600Y70000D01*
X65200Y69600D01*
X65600D01*
X66000Y69200D01*
X35500Y61700D02*
X35900Y62100D01*
X36300D01*
X35900Y62500D01*
X36300Y62900D01*
X35900D01*
X35500Y63300D01*
X35100Y62900D01*
X34700D01*
X35100Y62500D01*
X34700Y62100D01*
X35100D01*
X35500Y61700D01*
X35461Y57239D02*
X35861Y57639D01*
X36261D01*
X35861Y58039D01*
X36261Y58439D01*
X35861D01*
X35461Y58839D01*
X35061Y58439D01*
X34661D01*
X35061Y58039D01*
X34661Y57639D01*
X35061D01*
X35461Y57239D01*
X52000Y53200D02*
X52400Y53600D01*
X52800D01*
X52400Y54000D01*
X52800Y54400D01*
X52400D01*
X52000Y54800D01*
X51600Y54400D01*
X51200D01*
X51600Y54000D01*
X51200Y53600D01*
X51600D01*
X52000Y53200D01*
Y47700D02*
X52400Y48100D01*
X52800D01*
X52400Y48500D01*
X52800Y48900D01*
X52400D01*
X52000Y49300D01*
X51600Y48900D01*
X51200D01*
X51600Y48500D01*
X51200Y48100D01*
X51600D01*
X52000Y47700D01*
X45988Y52700D02*
X46388Y53100D01*
X46788D01*
X46388Y53500D01*
X46788Y53900D01*
X46388D01*
X45988Y54300D01*
X45588Y53900D01*
X45188D01*
X45588Y53500D01*
X45188Y53100D01*
X45588D01*
X45988Y52700D01*
X56500Y33200D02*
X56900Y33600D01*
X57300D01*
X56900Y34000D01*
X57300Y34400D01*
X56900D01*
X56500Y34800D01*
X56100Y34400D01*
X55700D01*
X56100Y34000D01*
X55700Y33600D01*
X56100D01*
X56500Y33200D01*
X59992Y71192D02*
X60392Y71592D01*
X60792D01*
X60392Y71992D01*
X60792Y72392D01*
X60392D01*
X59992Y72792D01*
X59592Y72392D01*
X59192D01*
X59592Y71992D01*
X59192Y71592D01*
X59592D01*
X59992Y71192D01*
X73500Y69700D02*
X73900Y70100D01*
X74300D01*
X73900Y70500D01*
X74300Y70900D01*
X73900D01*
X73500Y71300D01*
X73100Y70900D01*
X72700D01*
X73100Y70500D01*
X72700Y70100D01*
X73100D01*
X73500Y69700D01*
X81500Y67700D02*
X81900Y68100D01*
X82300D01*
X81900Y68500D01*
X82300Y68900D01*
X81900D01*
X81500Y69300D01*
X81100Y68900D01*
X80700D01*
X81100Y68500D01*
X80700Y68100D01*
X81100D01*
X81500Y67700D01*
X40500Y52200D02*
X40900Y52600D01*
X41300D01*
X40900Y53000D01*
X41300Y53400D01*
X40900D01*
X40500Y53800D01*
X40100Y53400D01*
X39700D01*
X40100Y53000D01*
X39700Y52600D01*
X40100D01*
X40500Y52200D01*
X28102Y40802D02*
X28502Y41202D01*
X28902D01*
X28502Y41602D01*
X28902Y42002D01*
X28502D01*
X28102Y42402D01*
X27702Y42002D01*
X27302D01*
X27702Y41602D01*
X27302Y41202D01*
X27702D01*
X28102Y40802D01*
X12500Y23700D02*
X12900Y24100D01*
X13300D01*
X12900Y24500D01*
X13300Y24900D01*
X12900D01*
X12500Y25300D01*
X12100Y24900D01*
X11700D01*
X12100Y24500D01*
X11700Y24100D01*
X12100D01*
X12500Y23700D01*
X8000Y23200D02*
X8400Y23600D01*
X8800D01*
X8400Y24000D01*
X8800Y24400D01*
X8400D01*
X8000Y24800D01*
X7600Y24400D01*
X7200D01*
X7600Y24000D01*
X7200Y23600D01*
X7600D01*
X8000Y23200D01*
X24500Y36200D02*
X24900Y36600D01*
X25300D01*
X24900Y37000D01*
X25300Y37400D01*
X24900D01*
X24500Y37800D01*
X24100Y37400D01*
X23700D01*
X24100Y37000D01*
X23700Y36600D01*
X24100D01*
X24500Y36200D01*
X46000Y62700D02*
X46400Y63100D01*
X46800D01*
X46400Y63500D01*
X46800Y63900D01*
X46400D01*
X46000Y64300D01*
X45600Y63900D01*
X45200D01*
X45600Y63500D01*
X45200Y63100D01*
X45600D01*
X46000Y62700D01*
X42000Y65200D02*
X42400Y65600D01*
X42800D01*
X42400Y66000D01*
X42800Y66400D01*
X42400D01*
X42000Y66800D01*
X41600Y66400D01*
X41200D01*
X41600Y66000D01*
X41200Y65600D01*
X41600D01*
X42000Y65200D01*
X22000Y68700D02*
X22400Y69100D01*
X22800D01*
X22400Y69500D01*
X22800Y69900D01*
X22400D01*
X22000Y70300D01*
X21600Y69900D01*
X21200D01*
X21600Y69500D01*
X21200Y69100D01*
X21600D01*
X22000Y68700D01*
X26000Y72700D02*
X26400Y73100D01*
X26800D01*
X26400Y73500D01*
X26800Y73900D01*
X26400D01*
X26000Y74300D01*
X25600Y73900D01*
X25200D01*
X25600Y73500D01*
X25200Y73100D01*
X25600D01*
X26000Y72700D01*
X76000Y37700D02*
X76400Y38100D01*
X76800D01*
X76400Y38500D01*
X76800Y38900D01*
X76400D01*
X76000Y39300D01*
X75600Y38900D01*
X75200D01*
X75600Y38500D01*
X75200Y38100D01*
X75600D01*
X76000Y37700D01*
X70500Y51700D02*
X70900Y52100D01*
X71300D01*
X70900Y52500D01*
X71300Y52900D01*
X70900D01*
X70500Y53300D01*
X70100Y52900D01*
X69700D01*
X70100Y52500D01*
X69700Y52100D01*
X70100D01*
X70500Y51700D01*
X95000Y54688D02*
X95400Y55088D01*
X95800D01*
X95400Y55488D01*
X95800Y55888D01*
X95400D01*
X95000Y56288D01*
X94600Y55888D01*
X94200D01*
X94600Y55488D01*
X94200Y55088D01*
X94600D01*
X95000Y54688D01*
X19500Y23700D02*
X19900Y24100D01*
X20300D01*
X19900Y24500D01*
X20300Y24900D01*
X19900D01*
X19500Y25300D01*
X19100Y24900D01*
X18700D01*
X19100Y24500D01*
X18700Y24100D01*
X19100D01*
X19500Y23700D01*
X88000Y43940D02*
X88400Y44340D01*
X88800D01*
X88400Y44740D01*
X88800Y45140D01*
X88400D01*
X88000Y45540D01*
X87600Y45140D01*
X87200D01*
X87600Y44740D01*
X87200Y44340D01*
X87600D01*
X88000Y43940D01*
X-2000Y174500D02*
X-1000Y175500D01*
X0D01*
X-1000Y176500D01*
X0Y177500D01*
X-1000D01*
X-2000Y178500D01*
X-3000Y177500D01*
X-4000D01*
X-3000Y176500D01*
X-4000Y175500D01*
X-3000D01*
X-2000Y174500D01*
X-4000Y164500D02*
X-3000Y166500D01*
X-4000Y168500D01*
X-2000Y167500D01*
X0Y168500D01*
X-1000Y166500D01*
X0Y164500D01*
X-2000Y165500D01*
X-4000Y164500D01*
Y154500D02*
Y158500D01*
X0D01*
Y154500D01*
X-4000D01*
X-2000Y134500D02*
X-4000Y138500D01*
X0D01*
X-2000Y134500D01*
D64*
X68800Y86500D02*
X68247Y87261D01*
X67353Y86970D01*
Y86030D01*
X68247Y85739D01*
X68800Y86500D01*
X58800D02*
X58247Y87261D01*
X57353Y86970D01*
Y86030D01*
X58247Y85739D01*
X58800Y86500D01*
X48800D02*
X48247Y87261D01*
X47353Y86970D01*
Y86030D01*
X48247Y85739D01*
X48800Y86500D01*
X38800D02*
X38247Y87261D01*
X37353Y86970D01*
Y86030D01*
X38247Y85739D01*
X38800Y86500D01*
X28800D02*
X28247Y87261D01*
X27353Y86970D01*
Y86030D01*
X28247Y85739D01*
X28800Y86500D01*
X17800Y31000D02*
X17247Y31761D01*
X16353Y31470D01*
Y30530D01*
X17247Y30239D01*
X17800Y31000D01*
X7800D02*
X7247Y31761D01*
X6353Y31470D01*
Y30530D01*
X7247Y30239D01*
X7800Y31000D01*
X17800Y41000D02*
X17247Y41761D01*
X16353Y41470D01*
Y40530D01*
X17247Y40239D01*
X17800Y41000D01*
X7800D02*
X7247Y41761D01*
X6353Y41470D01*
Y40530D01*
X7247Y40239D01*
X7800Y41000D01*
X17800Y51000D02*
X17247Y51761D01*
X16353Y51470D01*
Y50530D01*
X17247Y50239D01*
X17800Y51000D01*
X7800D02*
X7247Y51761D01*
X6353Y51470D01*
Y50530D01*
X7247Y50239D01*
X7800Y51000D01*
X17800Y61000D02*
X17247Y61761D01*
X16353Y61470D01*
Y60530D01*
X17247Y60239D01*
X17800Y61000D01*
X7800D02*
X7247Y61761D01*
X6353Y61470D01*
Y60530D01*
X7247Y60239D01*
X7800Y61000D01*
D65*
X-1Y190998D02*
X-1001Y191998D01*
X-3000D01*
X-4000Y190998D01*
Y189999D01*
X-3000Y188999D01*
X-1001D01*
X-1Y187999D01*
Y187000D01*
X-1001Y186000D01*
X-3000D01*
X-4000Y187000D01*
X1998Y189999D02*
Y187000D01*
X2998Y186000D01*
X5997D01*
Y185000D01*
X4997Y184001D01*
X3997D01*
X5997Y186000D02*
Y189999D01*
X7996Y186000D02*
Y189999D01*
X8996D01*
X9995Y188999D01*
Y186000D01*
Y188999D01*
X10995Y189999D01*
X11995Y188999D01*
Y186000D01*
X13994Y191998D02*
Y186000D01*
X16993D01*
X17993Y187000D01*
Y187999D01*
Y188999D01*
X16993Y189999D01*
X13994D01*
X20992Y186000D02*
X22991D01*
X23991Y187000D01*
Y188999D01*
X22991Y189999D01*
X20992D01*
X19992Y188999D01*
Y187000D01*
X20992Y186000D01*
X25990D02*
X27990D01*
X26990D01*
Y191998D01*
X25990D01*
X37830D02*
Y186000D01*
Y188999D01*
X41828D01*
Y191998D01*
Y186000D01*
X43828D02*
X45827D01*
X44827D01*
Y189999D01*
X43828D01*
X49826Y190998D02*
Y189999D01*
X48826D01*
X50825D01*
X49826D01*
Y187000D01*
X50825Y186000D01*
X63821Y190998D02*
X62822Y191998D01*
X60822D01*
X59822Y190998D01*
Y187000D01*
X60822Y186000D01*
X62822D01*
X63821Y187000D01*
X66820Y186000D02*
X68820D01*
X69819Y187000D01*
Y188999D01*
X68820Y189999D01*
X66820D01*
X65821Y188999D01*
Y187000D01*
X66820Y186000D01*
X71819Y189999D02*
Y187000D01*
X72818Y186000D01*
X75817D01*
Y189999D01*
X77817Y186000D02*
Y189999D01*
X80816D01*
X81815Y188999D01*
Y186000D01*
X84814Y190998D02*
Y189999D01*
X83815D01*
X85814D01*
X84814D01*
Y187000D01*
X85814Y186000D01*
X99653Y191998D02*
X95654D01*
Y188999D01*
X97654D01*
X95654D01*
Y186000D01*
X101652D02*
X103651D01*
X102652D01*
Y189999D01*
X101652D01*
X106651Y186000D02*
Y189999D01*
X109650D01*
X110649Y188999D01*
Y186000D01*
X112649D02*
X114648D01*
X113648D01*
Y189999D01*
X112649D01*
X117647Y186000D02*
X120646D01*
X121646Y187000D01*
X120646Y187999D01*
X118647D01*
X117647Y188999D01*
X118647Y189999D01*
X121646D01*
X123645Y191998D02*
Y186000D01*
Y188999D01*
X124645Y189999D01*
X126644D01*
X127644Y188999D01*
Y186000D01*
X132642D02*
X130643D01*
X129643Y187000D01*
Y188999D01*
X130643Y189999D01*
X132642D01*
X133642Y188999D01*
Y187999D01*
X129643D01*
X139640Y191998D02*
Y186000D01*
X136641D01*
X135641Y187000D01*
Y188999D01*
X136641Y189999D01*
X139640D01*
X147637Y191998D02*
Y186000D01*
Y188999D01*
X151636D01*
Y191998D01*
Y186000D01*
X154635D02*
X156634D01*
X157634Y187000D01*
Y188999D01*
X156634Y189999D01*
X154635D01*
X153635Y188999D01*
Y187000D01*
X154635Y186000D01*
X159633D02*
X161633D01*
X160633D01*
Y191998D01*
X159633D01*
X167631Y186000D02*
X165631D01*
X164632Y187000D01*
Y188999D01*
X165631Y189999D01*
X167631D01*
X168631Y188999D01*
Y187999D01*
X164632D01*
X180627Y190998D02*
X179627Y191998D01*
X177628D01*
X176628Y190998D01*
Y189999D01*
X177628Y188999D01*
X179627D01*
X180627Y187999D01*
Y187000D01*
X179627Y186000D01*
X177628D01*
X176628Y187000D01*
X182626Y186000D02*
X184625D01*
X183626D01*
Y189999D01*
X182626D01*
X187624D02*
X191623D01*
X187624Y186000D01*
X191623D01*
X196622D02*
X194622D01*
X193622Y187000D01*
Y188999D01*
X194622Y189999D01*
X196622D01*
X197621Y188999D01*
Y187999D01*
X193622D01*
X207461Y186000D02*
Y191998D01*
X210460D01*
X211460Y190998D01*
Y188999D01*
X210460Y187999D01*
X207461D01*
X213459Y186000D02*
X215458D01*
X214459D01*
Y191998D01*
X213459D01*
X219457Y189999D02*
X221457D01*
X222456Y188999D01*
Y186000D01*
X219457D01*
X218458Y187000D01*
X219457Y187999D01*
X222456D01*
X225455Y190998D02*
Y189999D01*
X224456D01*
X226455D01*
X225455D01*
Y187000D01*
X226455Y186000D01*
X232453D02*
X230454D01*
X229454Y187000D01*
Y188999D01*
X230454Y189999D01*
X232453D01*
X233453Y188999D01*
Y187999D01*
X229454D01*
X239451Y191998D02*
Y186000D01*
X236452D01*
X235452Y187000D01*
Y188999D01*
X236452Y189999D01*
X239451D01*
X249291Y191998D02*
Y186000D01*
Y188999D01*
X253290D01*
Y191998D01*
Y186000D01*
X256289D02*
X258288D01*
X259288Y187000D01*
Y188999D01*
X258288Y189999D01*
X256289D01*
X255289Y188999D01*
Y187000D01*
X256289Y186000D01*
X261287D02*
X263286D01*
X262287D01*
Y191998D01*
X261287D01*
X269284Y186000D02*
X267285D01*
X266285Y187000D01*
Y188999D01*
X267285Y189999D01*
X269284D01*
X270284Y188999D01*
Y187999D01*
X266285D01*
X278281Y191998D02*
X282280D01*
X280281D01*
Y186000D01*
X284279Y189999D02*
Y187000D01*
X285279Y186000D01*
X288278D01*
Y185000D01*
X287279Y184001D01*
X286279D01*
X288278Y186000D02*
Y189999D01*
X290278Y184001D02*
Y189999D01*
X293277D01*
X294276Y188999D01*
Y187000D01*
X293277Y186000D01*
X290278D01*
X299275D02*
X297275D01*
X296276Y187000D01*
Y188999D01*
X297275Y189999D01*
X299275D01*
X300274Y188999D01*
Y187999D01*
X296276D01*
X-11280Y195000D02*
X310114D01*
X-11280Y181500D02*
X310114D01*
X-11280Y195000D02*
Y121500D01*
X310114Y195000D02*
Y121500D01*
X34190Y195000D02*
Y121500D01*
X92014Y195000D02*
Y121500D01*
X203821Y195000D02*
Y121500D01*
X245651Y195000D02*
Y121500D01*
X-11280Y131500D02*
X310114D01*
X-11280Y121500D02*
X310114D01*
D66*
X0Y146500D02*
X-229Y147429D01*
X-864Y148146D01*
X-1759Y148485D01*
X-2709Y148370D01*
X-3497Y147826D01*
X-3942Y146979D01*
Y146021D01*
X-3497Y145174D01*
X-2709Y144630D01*
X-1759Y144515D01*
X-864Y144854D01*
X-229Y145571D01*
X0Y146500D01*
M02*
