G04 Layer_Color=32768*
%FSLAX25Y25*%
%MOIN*%
G70*
G01*
G75*
%ADD37C,0.00800*%
%ADD62C,0.00394*%
D37*
X129032Y47512D02*
X132968D01*
X129032Y18378D02*
X132968D01*
X131000Y16409D02*
Y20346D01*
X76500Y48976D02*
Y52913D01*
X74532Y50945D02*
X78469D01*
X74532Y69055D02*
X78469D01*
D62*
X101335Y21520D02*
X105665D01*
X101335Y30968D02*
X105665D01*
Y21520D02*
Y30968D01*
X101335Y21520D02*
Y30968D01*
X103500Y24374D02*
Y28114D01*
X101630Y26244D02*
X105370D01*
X108630Y26244D02*
X112370D01*
X110500Y24374D02*
Y28114D01*
X112665Y21520D02*
Y30968D01*
X108335Y21520D02*
Y30968D01*
Y21520D02*
X112665D01*
X108335Y30968D02*
X112665D01*
X94335Y21520D02*
X98665D01*
X94335Y30968D02*
X98665D01*
Y21520D02*
Y30968D01*
X94335Y21520D02*
Y30968D01*
X96500Y24374D02*
Y28114D01*
X94630Y26244D02*
X98370D01*
X62335Y40031D02*
X66665D01*
X62335Y49480D02*
X66665D01*
Y40031D02*
Y49480D01*
X62335Y40031D02*
Y49480D01*
X64500Y42886D02*
Y46626D01*
X62630Y44756D02*
X66370D01*
X56130Y44756D02*
X59870D01*
X58000Y42886D02*
Y46626D01*
X60165Y40031D02*
Y49480D01*
X55835Y40031D02*
Y49480D01*
Y40031D02*
X60165D01*
X55835Y49480D02*
X60165D01*
X44630Y44744D02*
X48370D01*
X46500Y42874D02*
Y46614D01*
X48665Y40020D02*
Y49468D01*
X44335Y40020D02*
Y49468D01*
Y40020D02*
X48665D01*
X44335Y49468D02*
X48665D01*
X68335Y40020D02*
X72665D01*
X68335Y49468D02*
X72665D01*
Y40020D02*
Y49468D01*
X68335Y40020D02*
Y49468D01*
X70500Y42874D02*
Y46614D01*
X68630Y44744D02*
X72370D01*
X37835Y49480D02*
X42165D01*
X37835Y40031D02*
X42165D01*
X37835D02*
Y49480D01*
X42165Y40031D02*
Y49480D01*
X40000Y42886D02*
Y46626D01*
X38130Y44756D02*
X41870D01*
X49835Y57531D02*
X54165D01*
X49835Y66980D02*
X54165D01*
Y57531D02*
Y66980D01*
X49835Y57531D02*
Y66980D01*
X52000Y60386D02*
Y64126D01*
X50130Y62256D02*
X53870D01*
X31630Y44756D02*
X35370D01*
X33500Y42886D02*
Y46626D01*
X35665Y40031D02*
Y49480D01*
X31335Y40031D02*
Y49480D01*
Y40031D02*
X35665D01*
X31335Y49480D02*
X35665D01*
X57130Y62256D02*
X60870D01*
X59000Y60386D02*
Y64126D01*
X56835Y57531D02*
Y66980D01*
X61165Y57531D02*
Y66980D01*
X56835D02*
X61165D01*
X56835Y57531D02*
X61165D01*
X98130Y45756D02*
X101870D01*
X100000Y43886D02*
Y47626D01*
X102165Y41032D02*
Y50480D01*
X97835Y41032D02*
Y50480D01*
X102165D01*
X97835Y41032D02*
X102165D01*
X117532Y32500D02*
X121468D01*
X119500Y30531D02*
Y34468D01*
X122500Y26000D02*
Y39000D01*
X116500Y26000D02*
Y39000D01*
X122500D01*
X116500Y26000D02*
X122500D01*
X103835Y41020D02*
X108165D01*
X103835Y50468D02*
X108165D01*
X103835Y41020D02*
Y50468D01*
X108165Y41020D02*
Y50468D01*
X106000Y43874D02*
Y47614D01*
X104130Y45744D02*
X107870D01*
X99032Y28500D02*
X102969D01*
X101000Y26531D02*
Y30468D01*
X98000Y22000D02*
Y35000D01*
X104000Y22000D02*
Y35000D01*
X98000Y22000D02*
X104000D01*
X98000Y35000D02*
X104000D01*
X91130Y28256D02*
X94870D01*
X93000Y26386D02*
Y30126D01*
X95165Y23531D02*
Y32980D01*
X90835Y23531D02*
Y32980D01*
X95165D01*
X90835Y23531D02*
X95165D01*
X107000Y35000D02*
X113000D01*
X107000Y22000D02*
X113000D01*
Y35000D01*
X107000Y22000D02*
Y35000D01*
X110000Y26531D02*
Y30468D01*
X108031Y28500D02*
X111969D01*
X106130Y58244D02*
X109870D01*
X108000Y56374D02*
Y60114D01*
X110165Y53520D02*
Y62968D01*
X105835Y53520D02*
Y62968D01*
X110165D01*
X105835Y53520D02*
X110165D01*
X97500Y53500D02*
X103500D01*
X97500Y66500D02*
X103500D01*
X97500Y53500D02*
Y66500D01*
X103500Y53500D02*
Y66500D01*
X100500Y58031D02*
Y61968D01*
X98532Y60000D02*
X102469D01*
X87532D02*
X91469D01*
X89500Y58031D02*
Y61968D01*
X92500Y53500D02*
Y66500D01*
X86500Y53500D02*
Y66500D01*
X92500D01*
X86500Y53500D02*
X92500D01*
X114130Y68244D02*
X117870D01*
X116000Y66374D02*
Y70114D01*
X113835Y63520D02*
Y72969D01*
X118165Y63520D02*
Y72969D01*
X113835Y63520D02*
X118165D01*
X113835Y72969D02*
X118165D01*
X109835Y50480D02*
X114165D01*
X109835Y41032D02*
X114165D01*
Y50480D01*
X109835Y41032D02*
Y50480D01*
X112000Y43886D02*
Y47626D01*
X110130Y45756D02*
X113870D01*
X73835Y52469D02*
X78165D01*
X73835Y43020D02*
X78165D01*
Y52469D01*
X73835Y43020D02*
Y52469D01*
X76000Y45874D02*
Y49614D01*
X74130Y47744D02*
X77870D01*
X80000Y22000D02*
X86000D01*
X80000Y35000D02*
X86000D01*
X80000Y22000D02*
Y35000D01*
X86000Y22000D02*
Y35000D01*
X83000Y26531D02*
Y30468D01*
X81032Y28500D02*
X84969D01*
X79835Y55032D02*
X84165D01*
X79835Y64480D02*
X84165D01*
X79835Y55032D02*
Y64480D01*
X84165Y55032D02*
Y64480D01*
X82000Y57886D02*
Y61626D01*
X80130Y59756D02*
X83870D01*
X64130Y26256D02*
X67870D01*
X66000Y24386D02*
Y28126D01*
X63835Y21531D02*
Y30980D01*
X68165Y21531D02*
Y30980D01*
X63835Y21531D02*
X68165D01*
X63835Y30980D02*
X68165D01*
X72031Y28500D02*
X75968D01*
X74000Y26531D02*
Y30468D01*
X71000Y22000D02*
Y35000D01*
X77000Y22000D02*
Y35000D01*
X71000Y22000D02*
X77000D01*
X71000Y35000D02*
X77000D01*
X58130Y26256D02*
X61870D01*
X60000Y24386D02*
Y28126D01*
X62165Y21531D02*
Y30980D01*
X57835Y21531D02*
Y30980D01*
X62165D01*
X57835Y21531D02*
X62165D01*
X24130Y26256D02*
X27870D01*
X26000Y24386D02*
Y28126D01*
X23835Y21531D02*
Y30980D01*
X28165Y21531D02*
Y30980D01*
X23835Y21531D02*
X28165D01*
X23835Y30980D02*
X28165D01*
X51835D02*
X56165D01*
X51835Y21531D02*
X56165D01*
Y30980D01*
X51835Y21531D02*
Y30980D01*
X54000Y24386D02*
Y28126D01*
X52130Y26256D02*
X55870D01*
X30130D02*
X33870D01*
X32000Y24386D02*
Y28126D01*
X29835Y21531D02*
Y30980D01*
X34165Y21531D02*
Y30980D01*
X29835Y21531D02*
X34165D01*
X29835Y30980D02*
X34165D01*
X67835Y55020D02*
X72165D01*
X67835Y64468D02*
X72165D01*
X67835Y55020D02*
Y64468D01*
X72165Y55020D02*
Y64468D01*
X70000Y57874D02*
Y61614D01*
X68130Y59744D02*
X71870D01*
X8531Y66335D02*
Y70665D01*
X17980Y66335D02*
Y70665D01*
X8531Y66335D02*
X17980D01*
X8531Y70665D02*
X17980D01*
X11386Y68500D02*
X15126D01*
X13256Y66630D02*
Y70370D01*
M02*
