G04 Layer_Color=255*
%FSLAX25Y25*%
%MOIN*%
G70*
G01*
G75*
%ADD16R,0.04921X0.02756*%
%ADD18R,0.03543X0.03150*%
%ADD24O,0.05512X0.07874*%
%ADD25R,0.05512X0.07874*%
%ADD26O,0.07874X0.05512*%
%ADD27R,0.07874X0.05512*%
%ADD28R,0.05906X0.05906*%
%ADD29C,0.05906*%
%ADD30R,0.05906X0.05906*%
%ADD33R,0.03150X0.03543*%
D16*
X75157Y27240D02*
D03*
X85000Y23500D02*
D03*
Y30980D02*
D03*
D18*
X103500Y29000D02*
D03*
Y23488D02*
D03*
X110500Y29000D02*
D03*
Y23488D02*
D03*
X96500Y29000D02*
D03*
Y23488D02*
D03*
X64500Y47512D02*
D03*
Y42000D02*
D03*
X58000Y47512D02*
D03*
Y42000D02*
D03*
X46500Y47500D02*
D03*
Y41988D02*
D03*
X70500Y47500D02*
D03*
Y41988D02*
D03*
X40000Y42000D02*
D03*
Y47512D02*
D03*
X52000Y65012D02*
D03*
Y59500D02*
D03*
X33500Y47512D02*
D03*
Y42000D02*
D03*
X59000Y59500D02*
D03*
Y65012D02*
D03*
D24*
X110630Y10630D02*
D03*
X85039D02*
D03*
X59449D02*
D03*
X33858D02*
D03*
D25*
X102756D02*
D03*
X77165D02*
D03*
X51575D02*
D03*
X25984D02*
D03*
D26*
X126772Y66929D02*
D03*
D27*
Y59055D02*
D03*
D28*
X68000Y86500D02*
D03*
D29*
X58000D02*
D03*
X48000D02*
D03*
X38000D02*
D03*
X28000D02*
D03*
X17000Y31000D02*
D03*
X7000D02*
D03*
X17000Y41000D02*
D03*
X7000D02*
D03*
X17000Y51000D02*
D03*
X7000D02*
D03*
X17000Y61000D02*
D03*
D30*
X7000D02*
D03*
D33*
X16012Y68500D02*
D03*
X10500D02*
D03*
M02*
