G04 Layer_Color=16711935*
%FSLAX25Y25*%
%MOIN*%
G70*
G01*
G75*
%ADD46R,0.05721X0.03556*%
%ADD48R,0.04343X0.03950*%
%ADD50O,0.06312X0.08674*%
%ADD51R,0.06312X0.08674*%
%ADD52O,0.08674X0.06312*%
%ADD53R,0.08674X0.06312*%
%ADD54R,0.06706X0.06706*%
%ADD55C,0.06706*%
%ADD56R,0.06706X0.06706*%
%ADD57C,0.00800*%
%ADD58C,0.04300*%
%ADD60R,0.03950X0.04343*%
%ADD61C,0.04800*%
D46*
X75157Y27240D02*
D03*
X85000Y23500D02*
D03*
Y30980D02*
D03*
D48*
X103500Y29000D02*
D03*
Y23488D02*
D03*
X110500Y29000D02*
D03*
Y23488D02*
D03*
X96500Y29000D02*
D03*
Y23488D02*
D03*
X64500Y47512D02*
D03*
Y42000D02*
D03*
X58000Y47512D02*
D03*
Y42000D02*
D03*
X46500Y47500D02*
D03*
Y41988D02*
D03*
X70500Y47500D02*
D03*
Y41988D02*
D03*
X40000Y42000D02*
D03*
Y47512D02*
D03*
X52000Y65012D02*
D03*
Y59500D02*
D03*
X33500Y47512D02*
D03*
Y42000D02*
D03*
X59000Y59500D02*
D03*
Y65012D02*
D03*
D50*
X110630Y10630D02*
D03*
X85039D02*
D03*
X59449D02*
D03*
X33858D02*
D03*
D51*
X102756D02*
D03*
X77165D02*
D03*
X51575D02*
D03*
X25984D02*
D03*
D52*
X126772Y66929D02*
D03*
D53*
Y59055D02*
D03*
D54*
X68000Y86500D02*
D03*
D55*
X58000D02*
D03*
X48000D02*
D03*
X38000D02*
D03*
X28000D02*
D03*
X17000Y31000D02*
D03*
X7000D02*
D03*
X17000Y41000D02*
D03*
X7000D02*
D03*
X17000Y51000D02*
D03*
X7000D02*
D03*
X17000Y61000D02*
D03*
D56*
X7000D02*
D03*
D57*
X127953Y9843D02*
D03*
X9843D02*
D03*
X127953Y84646D02*
D03*
X9449D02*
D03*
D58*
X116500Y43000D02*
D03*
X88000Y44740D02*
D03*
D60*
X16012Y68500D02*
D03*
X10500D02*
D03*
D61*
X95000Y80500D02*
D03*
M02*
