G04 Layer_Color=255*
%FSLAX25Y25*%
%MOIN*%
G70*
G01*
G75*
%ADD10O,0.07087X0.01102*%
%ADD11O,0.01102X0.07087*%
%ADD12R,0.02362X0.01102*%
%ADD13R,0.03000X0.06299*%
%ADD14R,0.07874X0.07874*%
%ADD15R,0.03858X0.03661*%
%ADD16R,0.04921X0.02756*%
%ADD17R,0.04331X0.02362*%
%ADD18R,0.03543X0.03150*%
%ADD19R,0.05512X0.05000*%
%ADD24O,0.05512X0.07874*%
%ADD25R,0.05512X0.07874*%
%ADD26O,0.07874X0.05512*%
%ADD27R,0.07874X0.05512*%
%ADD28R,0.05906X0.05906*%
%ADD29C,0.05906*%
%ADD30R,0.05906X0.05906*%
D10*
X28102Y46228D02*
D03*
Y48197D02*
D03*
Y50165D02*
D03*
Y52134D02*
D03*
Y54102D02*
D03*
Y56071D02*
D03*
Y58039D02*
D03*
Y60008D02*
D03*
Y61976D02*
D03*
Y63945D02*
D03*
Y65913D02*
D03*
Y67882D02*
D03*
X59992D02*
D03*
Y65913D02*
D03*
Y63945D02*
D03*
Y61976D02*
D03*
Y60008D02*
D03*
Y58039D02*
D03*
Y56071D02*
D03*
Y54102D02*
D03*
Y52134D02*
D03*
Y50165D02*
D03*
Y48197D02*
D03*
Y46228D02*
D03*
D11*
X33220Y73000D02*
D03*
X35189D02*
D03*
X37157D02*
D03*
X39126D02*
D03*
X41094D02*
D03*
X43063D02*
D03*
X45031D02*
D03*
X47000D02*
D03*
X48968D02*
D03*
X50937D02*
D03*
X52905D02*
D03*
X54874D02*
D03*
Y41110D02*
D03*
X52905D02*
D03*
X50937D02*
D03*
X48968D02*
D03*
X47000D02*
D03*
X45031D02*
D03*
X43063D02*
D03*
X41094D02*
D03*
X39126D02*
D03*
X37157D02*
D03*
X35189D02*
D03*
X33220D02*
D03*
D12*
X98740Y77547D02*
D03*
Y79516D02*
D03*
Y81484D02*
D03*
Y83453D02*
D03*
X91260D02*
D03*
Y81484D02*
D03*
Y79516D02*
D03*
Y77547D02*
D03*
D13*
X95000Y80500D02*
D03*
D14*
X131000Y42000D02*
D03*
Y25465D02*
D03*
D15*
X76500Y63032D02*
D03*
Y56968D02*
D03*
D16*
X37291Y26500D02*
D03*
X47134Y30240D02*
D03*
Y22760D02*
D03*
D17*
X93512Y41000D02*
D03*
Y44740D02*
D03*
Y48480D02*
D03*
X82488D02*
D03*
Y41000D02*
D03*
D18*
X100000Y43000D02*
D03*
Y48512D02*
D03*
X106000Y48500D02*
D03*
Y42988D02*
D03*
X93000Y25500D02*
D03*
Y31012D02*
D03*
X108000Y55488D02*
D03*
Y61000D02*
D03*
X116000Y71000D02*
D03*
Y65488D02*
D03*
X112000Y43000D02*
D03*
Y48512D02*
D03*
X76000Y44988D02*
D03*
Y50500D02*
D03*
X82000Y62512D02*
D03*
Y57000D02*
D03*
X66000Y29012D02*
D03*
Y23500D02*
D03*
X60000D02*
D03*
Y29012D02*
D03*
X26000D02*
D03*
Y23500D02*
D03*
X54000D02*
D03*
Y29012D02*
D03*
X32000D02*
D03*
Y23500D02*
D03*
X70000Y62500D02*
D03*
Y56988D02*
D03*
D19*
X119500Y36500D02*
D03*
Y28500D02*
D03*
X101000Y24500D02*
D03*
Y32500D02*
D03*
X110000D02*
D03*
Y24500D02*
D03*
X100500Y56000D02*
D03*
Y64000D02*
D03*
X89500D02*
D03*
Y56000D02*
D03*
X83000Y24500D02*
D03*
Y32500D02*
D03*
X74000Y24500D02*
D03*
Y32500D02*
D03*
D24*
X110630Y10630D02*
D03*
X85039D02*
D03*
X59449D02*
D03*
X33858D02*
D03*
D25*
X102756D02*
D03*
X77165D02*
D03*
X51575D02*
D03*
X25984D02*
D03*
D26*
X126772Y66929D02*
D03*
D27*
Y59055D02*
D03*
D28*
X68000Y86500D02*
D03*
D29*
X58000D02*
D03*
X48000D02*
D03*
X38000D02*
D03*
X28000D02*
D03*
X17000Y31000D02*
D03*
X7000D02*
D03*
X17000Y41000D02*
D03*
X7000D02*
D03*
X17000Y51000D02*
D03*
X7000D02*
D03*
X17000Y61000D02*
D03*
D30*
X7000D02*
D03*
M02*
