G04 Layer_Color=65535*
%FSLAX25Y25*%
%MOIN*%
G70*
G01*
G75*
%ADD22C,0.01000*%
%ADD23C,0.01200*%
%ADD35C,0.01575*%
%ADD36C,0.01181*%
%ADD37C,0.00800*%
%ADD38C,0.00984*%
%ADD39C,0.00787*%
D22*
X131000Y30701D02*
Y36764D01*
X127063Y35701D02*
X134937D01*
X131000D02*
X134937Y31764D01*
X127063D02*
X134937D01*
X127063D02*
X131000Y35701D01*
X136906Y23890D02*
Y43575D01*
X125094Y23890D02*
Y43575D01*
X136118D02*
X136906D01*
X136118Y23890D02*
X136906D01*
X125094Y43575D02*
X125882D01*
X125094Y23890D02*
X125882D01*
X39654Y29650D02*
Y32248D01*
Y29650D02*
Y32248D01*
Y29650D02*
Y32248D01*
X42862D01*
X39654Y20752D02*
X42862D01*
X39654D02*
Y23350D01*
X86032Y39228D02*
X89969D01*
X86032Y50252D02*
X89969D01*
Y39228D02*
Y50252D01*
X86032Y39228D02*
Y50252D01*
D23*
X103543Y17323D02*
X108661D01*
X94882Y-394D02*
X118504D01*
X94882Y17323D02*
X100787D01*
X94882Y-394D02*
Y9055D01*
Y12205D02*
Y17323D01*
X111811D02*
X118504D01*
Y-394D02*
Y9055D01*
Y12205D02*
Y17323D01*
X92913Y12205D02*
Y17323D01*
Y-394D02*
Y9055D01*
X86221Y17323D02*
X92913D01*
X69291Y12205D02*
Y17323D01*
Y-394D02*
Y9055D01*
Y17323D02*
X75197D01*
X69291Y-394D02*
X92913D01*
X77953Y17323D02*
X83071D01*
X120079Y59842D02*
Y64961D01*
X137795Y51181D02*
Y74803D01*
X120079Y51181D02*
Y57087D01*
X128347Y51181D02*
X137795D01*
X120079D02*
X125197D01*
X120079Y68110D02*
Y74803D01*
X128347D02*
X137795D01*
X120079D02*
X125197D01*
X67323Y12205D02*
Y17323D01*
Y-394D02*
Y9055D01*
X60630Y17323D02*
X67323D01*
X43701Y12205D02*
Y17323D01*
Y-394D02*
Y9055D01*
Y17323D02*
X49606D01*
X43701Y-394D02*
X67323D01*
X52362Y17323D02*
X57480D01*
X26772D02*
X31890D01*
X18110Y-394D02*
X41732D01*
X18110Y17323D02*
X24016D01*
X18110Y-394D02*
Y9055D01*
Y12205D02*
Y17323D01*
X35039D02*
X41732D01*
Y-394D02*
Y9055D01*
Y12205D02*
Y17323D01*
D35*
X36862Y49083D02*
X36318Y49832D01*
X35438Y49545D01*
Y48620D01*
X36318Y48334D01*
X36862Y49083D01*
D36*
X31055Y40224D02*
X30465Y40815D01*
X29874Y40224D01*
X30465Y39634D01*
X31055Y40224D01*
D37*
X101299Y75776D02*
X100512D01*
X101299D01*
X102800Y47756D02*
Y51256D01*
X97200Y51256D02*
X102800D01*
X97200Y47756D02*
Y51256D01*
X102800Y40256D02*
Y43756D01*
X97200Y40256D02*
X102800D01*
X97200Y40256D02*
Y43756D01*
X115500Y34697D02*
Y40000D01*
X123500D01*
Y34697D02*
Y40000D01*
Y25000D02*
Y30303D01*
X115500Y25000D02*
X123500D01*
X115500D02*
Y30303D01*
X103200Y40244D02*
Y43744D01*
X103200Y40244D02*
X108800D01*
Y40244D02*
Y43744D01*
X103200Y47744D02*
Y51244D01*
Y51244D02*
X108800D01*
X108800Y47744D02*
Y51244D01*
X105000Y21000D02*
Y24000D01*
X97000Y21000D02*
X105000D01*
X97000D02*
Y24000D01*
X105000Y33000D02*
Y36000D01*
X97000D02*
X105000D01*
X97000Y33000D02*
Y36000D01*
X90200Y22756D02*
X95800D01*
X90200D02*
Y24556D01*
X95800Y22756D02*
Y24556D01*
X90200Y31956D02*
Y33756D01*
X95800Y31956D02*
Y33756D01*
X90200D02*
X95800D01*
X106000Y33000D02*
Y36000D01*
X114000D01*
Y33000D02*
Y36000D01*
X106000Y21000D02*
Y24000D01*
Y21000D02*
X114000D01*
Y24000D01*
X105200Y52744D02*
X110800D01*
X105200D02*
Y54544D01*
X110800Y52744D02*
Y54544D01*
X105200Y61944D02*
Y63744D01*
X110800Y61944D02*
Y63744D01*
X105200D02*
X110800D01*
X104500Y52500D02*
Y55500D01*
X96500Y52500D02*
X104500D01*
X96500D02*
Y55500D01*
X104500Y64500D02*
Y67500D01*
X96500D02*
X104500D01*
X96500Y64500D02*
Y67500D01*
X85500Y64500D02*
Y67500D01*
X93500D01*
Y64500D02*
Y67500D01*
X85500Y52500D02*
Y55500D01*
Y52500D02*
X93500D01*
Y55500D01*
X113200Y73744D02*
X118800D01*
Y71944D02*
Y73744D01*
X113200Y71944D02*
Y73744D01*
X118800Y62744D02*
Y64544D01*
X113200Y62744D02*
Y64544D01*
Y62744D02*
X118800D01*
X109200Y40256D02*
X114800D01*
X109200D02*
Y42056D01*
X114800Y40256D02*
Y42056D01*
X109200Y49456D02*
Y51256D01*
X114800Y49456D02*
Y51256D01*
X109200D02*
X114800D01*
X73200Y42244D02*
X78800D01*
X73200D02*
Y44044D01*
X78800Y42244D02*
Y44044D01*
X73200Y51444D02*
Y53244D01*
X78800Y51444D02*
Y53244D01*
X73200D02*
X78800D01*
X87000Y21000D02*
Y24000D01*
X79000Y21000D02*
X87000D01*
X79000D02*
Y24000D01*
X87000Y33000D02*
Y36000D01*
X79000D02*
X87000D01*
X79000Y33000D02*
Y36000D01*
X79200Y65256D02*
X84800D01*
Y63456D02*
Y65256D01*
X79200Y63456D02*
Y65256D01*
X84800Y54256D02*
Y56056D01*
X79200Y54256D02*
Y56056D01*
Y54256D02*
X84800D01*
X63200Y31756D02*
X68800D01*
Y29956D02*
Y31756D01*
X63200Y29956D02*
Y31756D01*
X68800Y20756D02*
Y22556D01*
X63200Y20756D02*
Y22556D01*
Y20756D02*
X68800D01*
X78000Y21000D02*
Y24000D01*
X70000Y21000D02*
X78000D01*
X70000D02*
Y24000D01*
X78000Y33000D02*
Y36000D01*
X70000D02*
X78000D01*
X70000Y33000D02*
Y36000D01*
X62800Y28256D02*
Y31756D01*
X57200Y31756D02*
X62800D01*
X57200Y28256D02*
Y31756D01*
X62800Y20756D02*
Y24256D01*
X57200Y20756D02*
X62800D01*
X57200Y20756D02*
Y24256D01*
X23200Y20756D02*
Y24256D01*
X23200Y20756D02*
X28800D01*
Y20756D02*
Y24256D01*
X23200Y28256D02*
Y31756D01*
Y31756D02*
X28800D01*
X28800Y28256D02*
Y31756D01*
X56800Y28256D02*
Y31756D01*
X51200Y31756D02*
X56800D01*
X51200Y28256D02*
Y31756D01*
X56800Y20756D02*
Y24256D01*
X51200Y20756D02*
X56800D01*
X51200Y20756D02*
Y24256D01*
X29200Y20756D02*
Y24256D01*
X29200Y20756D02*
X34800D01*
Y20756D02*
Y24256D01*
X29200Y28256D02*
Y31756D01*
Y31756D02*
X34800D01*
X34800Y28256D02*
Y31756D01*
X67200Y54244D02*
Y57744D01*
X67200Y54244D02*
X72800D01*
Y54244D02*
Y57744D01*
X67200Y61744D02*
Y65244D01*
Y65244D02*
X72800D01*
X72800Y61744D02*
Y65244D01*
X29001Y74000D02*
X31084D01*
X31500Y74417D01*
Y75250D01*
X31084Y75666D01*
X29001D01*
X29417Y76499D02*
X29001Y76916D01*
Y77749D01*
X29417Y78165D01*
X29834D01*
X30250Y77749D01*
Y77332D01*
Y77749D01*
X30667Y78165D01*
X31084D01*
X31500Y77749D01*
Y76916D01*
X31084Y76499D01*
X42666Y33917D02*
Y35583D01*
X42250Y35999D01*
X41416D01*
X41000Y35583D01*
Y33917D01*
X41416Y33500D01*
X42250D01*
X41833Y34333D02*
X42666Y33500D01*
X42250D02*
X42666Y33917D01*
X43499Y33500D02*
X44332D01*
X43916D01*
Y35999D01*
X43499Y35583D01*
X123417Y47166D02*
X123001Y46750D01*
Y45917D01*
X123417Y45500D01*
X125083D01*
X125500Y45917D01*
Y46750D01*
X125083Y47166D01*
X123001Y49665D02*
Y47999D01*
X124250D01*
X123834Y48832D01*
Y49249D01*
X124250Y49665D01*
X125083D01*
X125500Y49249D01*
Y48416D01*
X125083Y47999D01*
X13500Y70000D02*
X10501D01*
X11501Y71000D01*
X10501Y71999D01*
X13500D01*
Y72999D02*
Y73999D01*
Y73499D01*
X10501D01*
X11001Y72999D01*
X114917Y77666D02*
X114501Y77250D01*
Y76416D01*
X114917Y76000D01*
X116584D01*
X117000Y76416D01*
Y77250D01*
X116584Y77666D01*
X117000Y80165D02*
Y78499D01*
X115334Y80165D01*
X114917D01*
X114501Y79749D01*
Y78916D01*
X114917Y78499D01*
Y80998D02*
X114501Y81415D01*
Y82248D01*
X114917Y82665D01*
X115334D01*
X115750Y82248D01*
Y81831D01*
Y82248D01*
X116167Y82665D01*
X116584D01*
X117000Y82248D01*
Y81415D01*
X116584Y80998D01*
X69917Y45666D02*
X69501Y45250D01*
Y44416D01*
X69917Y44000D01*
X71583D01*
X72000Y44416D01*
Y45250D01*
X71583Y45666D01*
X72000Y48165D02*
Y46499D01*
X70334Y48165D01*
X69917D01*
X69501Y47749D01*
Y46916D01*
X69917Y46499D01*
X72000Y48998D02*
Y49831D01*
Y49415D01*
X69501D01*
X69917Y48998D01*
X17500Y19000D02*
Y21499D01*
X18750D01*
X19166Y21083D01*
Y20250D01*
X18750Y19833D01*
X17500D01*
X21665Y21499D02*
X20832Y21083D01*
X19999Y20250D01*
Y19417D01*
X20416Y19000D01*
X21249D01*
X21665Y19417D01*
Y19833D01*
X21249Y20250D01*
X19999D01*
X46500Y18000D02*
Y20499D01*
X47750D01*
X48166Y20083D01*
Y19250D01*
X47750Y18833D01*
X46500D01*
X50665Y20499D02*
X48999D01*
Y19250D01*
X49832Y19666D01*
X50249D01*
X50665Y19250D01*
Y18417D01*
X50249Y18000D01*
X49416D01*
X48999Y18417D01*
X122500Y76500D02*
X120001D01*
Y77750D01*
X120417Y78166D01*
X121250D01*
X121667Y77750D01*
Y76500D01*
X122500Y80249D02*
X120001D01*
X121250Y78999D01*
Y80665D01*
X88500Y18500D02*
Y20999D01*
X89750D01*
X90166Y20583D01*
Y19750D01*
X89750Y19333D01*
X88500D01*
X92665Y18500D02*
X90999D01*
X92665Y20166D01*
Y20583D01*
X92249Y20999D01*
X91416D01*
X90999Y20583D01*
X120500Y14000D02*
Y16499D01*
X121750D01*
X122166Y16083D01*
Y15250D01*
X121750Y14833D01*
X120500D01*
X122999Y14000D02*
X123832D01*
X123416D01*
Y16499D01*
X122999Y16083D01*
X132001Y17500D02*
X134500D01*
Y18750D01*
X134083Y19166D01*
X132417D01*
X132001Y18750D01*
Y17500D01*
X134500Y19999D02*
Y20832D01*
Y20416D01*
X132001D01*
X132417Y19999D01*
X81166Y38583D02*
X80750Y38999D01*
X79917D01*
X79500Y38583D01*
Y36917D01*
X79917Y36500D01*
X80750D01*
X81166Y36917D01*
X81999Y36500D02*
X82832D01*
X82416D01*
Y38999D01*
X81999Y38583D01*
X84082Y36917D02*
X84498Y36500D01*
X85331D01*
X85748Y36917D01*
Y38583D01*
X85331Y38999D01*
X84498D01*
X84082Y38583D01*
Y38166D01*
X84498Y37750D01*
X85748D01*
X72417Y75666D02*
X72001Y75250D01*
Y74417D01*
X72417Y74000D01*
X74084D01*
X74500Y74417D01*
Y75250D01*
X74084Y75666D01*
X74500Y76499D02*
Y77332D01*
Y76916D01*
X72001D01*
X72417Y76499D01*
X72001Y80248D02*
X72417Y79415D01*
X73250Y78582D01*
X74084D01*
X74500Y78998D01*
Y79831D01*
X74084Y80248D01*
X73667D01*
X73250Y79831D01*
Y78582D01*
X75917Y75666D02*
X75501Y75250D01*
Y74417D01*
X75917Y74000D01*
X77583D01*
X78000Y74417D01*
Y75250D01*
X77583Y75666D01*
X78000Y76499D02*
Y77332D01*
Y76916D01*
X75501D01*
X75917Y76499D01*
X78000Y79831D02*
X75501D01*
X76750Y78582D01*
Y80248D01*
X112917Y54666D02*
X112501Y54250D01*
Y53417D01*
X112917Y53000D01*
X114584D01*
X115000Y53417D01*
Y54250D01*
X114584Y54666D01*
X115000Y55499D02*
Y56332D01*
Y55916D01*
X112501D01*
X112917Y55499D01*
Y57582D02*
X112501Y57998D01*
Y58831D01*
X112917Y59248D01*
X113334D01*
X113750Y58831D01*
Y58415D01*
Y58831D01*
X114167Y59248D01*
X114584D01*
X115000Y58831D01*
Y57998D01*
X114584Y57582D01*
X68917Y75666D02*
X68501Y75250D01*
Y74417D01*
X68917Y74000D01*
X70583D01*
X71000Y74417D01*
Y75250D01*
X70583Y75666D01*
X71000Y76499D02*
Y77332D01*
Y76916D01*
X68501D01*
X68917Y76499D01*
X71000Y78582D02*
Y79415D01*
Y78998D01*
X68501D01*
X68917Y78582D01*
X64917Y34166D02*
X64501Y33750D01*
Y32917D01*
X64917Y32500D01*
X66584D01*
X67000Y32917D01*
Y33750D01*
X66584Y34166D01*
X67000Y34999D02*
Y35832D01*
Y35416D01*
X64501D01*
X64917Y34999D01*
Y37082D02*
X64501Y37498D01*
Y38331D01*
X64917Y38748D01*
X66584D01*
X67000Y38331D01*
Y37498D01*
X66584Y37082D01*
X64917D01*
X69917Y39166D02*
X69501Y38750D01*
Y37916D01*
X69917Y37500D01*
X71583D01*
X72000Y37916D01*
Y38750D01*
X71583Y39166D01*
X69501Y39999D02*
Y41665D01*
X69917D01*
X71583Y39999D01*
X72000D01*
X122917Y20666D02*
X122501Y20250D01*
Y19417D01*
X122917Y19000D01*
X124583D01*
X125000Y19417D01*
Y20250D01*
X124583Y20666D01*
X125000Y22749D02*
X122501D01*
X123750Y21499D01*
Y23165D01*
X115917Y20666D02*
X115501Y20250D01*
Y19417D01*
X115917Y19000D01*
X117584D01*
X118000Y19417D01*
Y20250D01*
X117584Y20666D01*
X115917Y21499D02*
X115501Y21916D01*
Y22749D01*
X115917Y23165D01*
X116334D01*
X116750Y22749D01*
Y22332D01*
Y22749D01*
X117167Y23165D01*
X117584D01*
X118000Y22749D01*
Y21916D01*
X117584Y21499D01*
X119417Y20666D02*
X119001Y20250D01*
Y19417D01*
X119417Y19000D01*
X121083D01*
X121500Y19417D01*
Y20250D01*
X121083Y20666D01*
X121500Y23165D02*
Y21499D01*
X119834Y23165D01*
X119417D01*
X119001Y22749D01*
Y21916D01*
X119417Y21499D01*
X65001Y74000D02*
X67500D01*
Y75250D01*
X67084Y75666D01*
X65417D01*
X65001Y75250D01*
Y74000D01*
X65417Y76499D02*
X65001Y76916D01*
Y77749D01*
X65417Y78165D01*
X65834D01*
X66250Y77749D01*
Y77332D01*
Y77749D01*
X66667Y78165D01*
X67084D01*
X67500Y77749D01*
Y76916D01*
X67084Y76499D01*
X122000Y45500D02*
X119501D01*
Y46750D01*
X119917Y47166D01*
X120750D01*
X121167Y46750D01*
Y45500D01*
Y46333D02*
X122000Y47166D01*
X119501Y49665D02*
Y47999D01*
X120750D01*
X120334Y48832D01*
Y49249D01*
X120750Y49665D01*
X121583D01*
X122000Y49249D01*
Y48416D01*
X121583Y47999D01*
X61500Y33000D02*
X59001D01*
Y34250D01*
X59417Y34666D01*
X60250D01*
X60667Y34250D01*
Y33000D01*
Y33833D02*
X61500Y34666D01*
X59001Y37165D02*
X59417Y36332D01*
X60250Y35499D01*
X61084D01*
X61500Y35916D01*
Y36749D01*
X61084Y37165D01*
X60667D01*
X60250Y36749D01*
Y35499D01*
X27000Y33000D02*
Y35499D01*
X28250D01*
X28666Y35083D01*
Y34250D01*
X28250Y33833D01*
X27000D01*
X27833D02*
X28666Y33000D01*
X29499Y35083D02*
X29916Y35499D01*
X30749D01*
X31165Y35083D01*
Y34666D01*
X30749Y34250D01*
X31165Y33833D01*
Y33417D01*
X30749Y33000D01*
X29916D01*
X29499Y33417D01*
Y33833D01*
X29916Y34250D01*
X29499Y34666D01*
Y35083D01*
X29916Y34250D02*
X30749D01*
X88500Y37499D02*
Y35416D01*
X88916Y35000D01*
X89750D01*
X90166Y35416D01*
Y37499D01*
X90999Y35000D02*
X91832D01*
X91416D01*
Y37499D01*
X90999Y37083D01*
X103235Y79516D02*
X105318D01*
X105734Y79932D01*
Y80765D01*
X105318Y81182D01*
X103235D01*
X105734Y83681D02*
Y82015D01*
X104068Y83681D01*
X103652D01*
X103235Y83264D01*
Y82432D01*
X103652Y82015D01*
X127501Y19166D02*
Y17500D01*
X128750D01*
Y18333D01*
Y17500D01*
X130000D01*
Y19999D02*
Y20832D01*
Y20416D01*
X127501D01*
X127917Y19999D01*
X118500Y45500D02*
X116001D01*
Y46750D01*
X116417Y47166D01*
X117250D01*
X117667Y46750D01*
Y45500D01*
Y46333D02*
X118500Y47166D01*
Y49249D02*
X116001D01*
X117250Y47999D01*
Y49665D01*
X47500Y33000D02*
Y35499D01*
X48750D01*
X49166Y35083D01*
Y34250D01*
X48750Y33833D01*
X47500D01*
X48333D02*
X49166Y33000D01*
X49999D02*
X50832D01*
X50416D01*
Y35499D01*
X49999Y35083D01*
X52082D02*
X52498Y35499D01*
X53331D01*
X53748Y35083D01*
Y33417D01*
X53331Y33000D01*
X52498D01*
X52082Y33417D01*
Y35083D01*
X33000Y33000D02*
Y35499D01*
X34250D01*
X34666Y35083D01*
Y34250D01*
X34250Y33833D01*
X33000D01*
X33833D02*
X34666Y33000D01*
X35499D02*
X36332D01*
X35916D01*
Y35499D01*
X35499Y35083D01*
X37582Y33000D02*
X38415D01*
X37998D01*
Y35499D01*
X37582Y35083D01*
X64000Y74000D02*
X61501D01*
Y75250D01*
X61917Y75666D01*
X62750D01*
X63167Y75250D01*
Y74000D01*
Y74833D02*
X64000Y75666D01*
X61917Y76499D02*
X61501Y76916D01*
Y77749D01*
X61917Y78165D01*
X62334D01*
X62750Y77749D01*
Y77332D01*
Y77749D01*
X63167Y78165D01*
X63583D01*
X64000Y77749D01*
Y76916D01*
X63583Y76499D01*
X77000Y86000D02*
X74501D01*
Y87250D01*
X74917Y87666D01*
X75750D01*
X76167Y87250D01*
Y86000D01*
X74917Y88499D02*
X74501Y88916D01*
Y89749D01*
X74917Y90165D01*
X75334D01*
X75750Y89749D01*
Y89332D01*
Y89749D01*
X76167Y90165D01*
X76583D01*
X77000Y89749D01*
Y88916D01*
X76583Y88499D01*
X15000Y67501D02*
Y69500D01*
X16999Y67501D01*
X17499D01*
X17999Y68001D01*
Y69000D01*
X17499Y69500D01*
X5000Y69000D02*
Y68000D01*
Y68500D01*
X7999D01*
X7499Y69000D01*
D38*
X94398Y37850D02*
X93660Y38277D01*
Y37424D01*
X94398Y37850D01*
D39*
X54874Y46228D02*
Y67882D01*
X33220Y46228D02*
Y67882D01*
X54874D01*
X33220Y46228D02*
X54874D01*
X91063Y75776D02*
X98937D01*
X91063Y85224D02*
X98937D01*
X73390Y53957D02*
Y58425D01*
Y61575D02*
Y66043D01*
X79610Y53957D02*
Y58425D01*
X73390Y66043D02*
X79610D01*
X73390Y53957D02*
X79610D01*
Y61575D02*
Y66043D01*
X77730Y67923D02*
X79610Y66043D01*
X76500Y66693D02*
X77730Y67923D01*
X75270D02*
X76500Y66693D01*
X73390Y66043D02*
X75270Y67923D01*
X45756Y25319D02*
Y27681D01*
X23000Y81500D02*
Y91500D01*
X73000D01*
X23000Y81500D02*
X73000D01*
Y91500D01*
X2000Y26000D02*
Y66000D01*
X22000Y26000D02*
Y66000D01*
X2000D02*
X22000D01*
X2000Y26000D02*
X22000D01*
M02*
