G04 Layer_Color=8388736*
%FSLAX25Y25*%
%MOIN*%
G70*
G01*
G75*
%ADD40O,0.07487X0.01502*%
%ADD41O,0.01502X0.07487*%
%ADD42R,0.02762X0.01502*%
%ADD43R,0.03400X0.06699*%
%ADD44R,0.08674X0.08674*%
%ADD45R,0.04658X0.04461*%
%ADD46R,0.05721X0.03556*%
%ADD47R,0.05131X0.03162*%
%ADD48R,0.04343X0.03950*%
%ADD49R,0.06312X0.05800*%
%ADD50O,0.06312X0.08674*%
%ADD51R,0.06312X0.08674*%
%ADD52O,0.08674X0.06312*%
%ADD53R,0.08674X0.06312*%
%ADD54R,0.06706X0.06706*%
%ADD55C,0.06706*%
%ADD56R,0.06706X0.06706*%
%ADD57C,0.00800*%
%ADD58C,0.04300*%
%ADD59C,0.03800*%
D40*
X28102Y46228D02*
D03*
Y48197D02*
D03*
Y50165D02*
D03*
Y52134D02*
D03*
Y54102D02*
D03*
Y56071D02*
D03*
Y58039D02*
D03*
Y60008D02*
D03*
Y61976D02*
D03*
Y63945D02*
D03*
Y65913D02*
D03*
Y67882D02*
D03*
X59992D02*
D03*
Y65913D02*
D03*
Y63945D02*
D03*
Y61976D02*
D03*
Y60008D02*
D03*
Y58039D02*
D03*
Y56071D02*
D03*
Y54102D02*
D03*
Y52134D02*
D03*
Y50165D02*
D03*
Y48197D02*
D03*
Y46228D02*
D03*
D41*
X33220Y73000D02*
D03*
X35189D02*
D03*
X37157D02*
D03*
X39126D02*
D03*
X41094D02*
D03*
X43063D02*
D03*
X45031D02*
D03*
X47000D02*
D03*
X48968D02*
D03*
X50937D02*
D03*
X52905D02*
D03*
X54874D02*
D03*
Y41110D02*
D03*
X52905D02*
D03*
X50937D02*
D03*
X48968D02*
D03*
X47000D02*
D03*
X45031D02*
D03*
X43063D02*
D03*
X41094D02*
D03*
X39126D02*
D03*
X37157D02*
D03*
X35189D02*
D03*
X33220D02*
D03*
D42*
X98740Y77547D02*
D03*
Y79516D02*
D03*
Y81484D02*
D03*
Y83453D02*
D03*
X91260D02*
D03*
Y81484D02*
D03*
Y79516D02*
D03*
Y77547D02*
D03*
D43*
X95000Y80500D02*
D03*
D44*
X131000Y42000D02*
D03*
Y25465D02*
D03*
D45*
X76500Y63032D02*
D03*
Y56968D02*
D03*
D46*
X37291Y26500D02*
D03*
X47134Y30240D02*
D03*
Y22760D02*
D03*
D47*
X93512Y41000D02*
D03*
Y44740D02*
D03*
Y48480D02*
D03*
X82488D02*
D03*
Y41000D02*
D03*
D48*
X100000Y43000D02*
D03*
Y48512D02*
D03*
X106000Y48500D02*
D03*
Y42988D02*
D03*
X93000Y25500D02*
D03*
Y31012D02*
D03*
X108000Y55488D02*
D03*
Y61000D02*
D03*
X116000Y71000D02*
D03*
Y65488D02*
D03*
X112000Y43000D02*
D03*
Y48512D02*
D03*
X76000Y44988D02*
D03*
Y50500D02*
D03*
X82000Y62512D02*
D03*
Y57000D02*
D03*
X66000Y29012D02*
D03*
Y23500D02*
D03*
X60000D02*
D03*
Y29012D02*
D03*
X26000D02*
D03*
Y23500D02*
D03*
X54000D02*
D03*
Y29012D02*
D03*
X32000D02*
D03*
Y23500D02*
D03*
X70000Y62500D02*
D03*
Y56988D02*
D03*
D49*
X119500Y36500D02*
D03*
Y28500D02*
D03*
X101000Y24500D02*
D03*
Y32500D02*
D03*
X110000D02*
D03*
Y24500D02*
D03*
X100500Y56000D02*
D03*
Y64000D02*
D03*
X89500D02*
D03*
Y56000D02*
D03*
X83000Y24500D02*
D03*
Y32500D02*
D03*
X74000Y24500D02*
D03*
Y32500D02*
D03*
D50*
X110630Y10630D02*
D03*
X85039D02*
D03*
X59449D02*
D03*
X33858D02*
D03*
D51*
X102756D02*
D03*
X77165D02*
D03*
X51575D02*
D03*
X25984D02*
D03*
D52*
X126772Y66929D02*
D03*
D53*
Y59055D02*
D03*
D54*
X68000Y86500D02*
D03*
D55*
X58000D02*
D03*
X48000D02*
D03*
X38000D02*
D03*
X28000D02*
D03*
X17000Y31000D02*
D03*
X7000D02*
D03*
X17000Y41000D02*
D03*
X7000D02*
D03*
X17000Y51000D02*
D03*
X7000D02*
D03*
X17000Y61000D02*
D03*
D56*
X7000D02*
D03*
D57*
X127953Y9843D02*
D03*
X9843D02*
D03*
X127953Y84646D02*
D03*
X9449D02*
D03*
D58*
X116500Y43000D02*
D03*
X88000Y44740D02*
D03*
D59*
X95000Y80500D02*
D03*
M02*
