G04 Layer_Physical_Order=2*
G04 Layer_Color=16711680*
%FSLAX25Y25*%
%MOIN*%
G70*
G01*
G75*
%ADD10R,0.03543X0.03150*%
%ADD13R,0.04921X0.02756*%
%ADD20C,0.02000*%
%ADD22C,0.01000*%
%ADD24R,0.05906X0.05906*%
%ADD25C,0.05906*%
%ADD26R,0.05906X0.05906*%
%ADD27R,0.05512X0.07874*%
%ADD28O,0.05512X0.07874*%
%ADD29R,0.07874X0.05512*%
%ADD30O,0.07874X0.05512*%
%ADD31C,0.03500*%
%ADD33R,0.03150X0.03543*%
%ADD34C,0.04000*%
G36*
X116482Y41250D02*
X116416Y41243D01*
X116340Y41223D01*
X116257Y41187D01*
X116166Y41137D01*
X116067Y41073D01*
X115959Y40994D01*
X115720Y40793D01*
X115449Y40535D01*
X114035Y41949D01*
X114171Y42089D01*
X114494Y42459D01*
X114573Y42567D01*
X114637Y42666D01*
X114687Y42757D01*
X114723Y42840D01*
X114743Y42915D01*
X114750Y42983D01*
X116482Y41250D01*
D02*
G37*
G36*
X55560Y43653D02*
X55597Y43634D01*
X55643Y43617D01*
X55700Y43603D01*
X55765Y43591D01*
X55926Y43573D01*
X56126Y43564D01*
X56240Y43563D01*
X56252Y40845D01*
X56241Y40989D01*
X56208Y41140D01*
X56155Y41298D01*
X56079Y41463D01*
X55983Y41636D01*
X55865Y41817D01*
X55726Y42005D01*
X55383Y42403D01*
X55180Y42613D01*
X55533Y43674D01*
X55560Y43653D01*
D02*
G37*
G36*
X23087Y68108D02*
X22964Y67964D01*
X22855Y67819D01*
X22761Y67673D01*
X22681Y67526D01*
X22616Y67377D01*
X22565Y67228D01*
X22529Y67077D01*
X22507Y66926D01*
X22500Y66773D01*
X21500D01*
X21493Y66926D01*
X21471Y67077D01*
X21435Y67228D01*
X21384Y67377D01*
X21319Y67526D01*
X21239Y67673D01*
X21145Y67819D01*
X21036Y67964D01*
X20913Y68108D01*
X20775Y68250D01*
X23225D01*
X23087Y68108D01*
D02*
G37*
G36*
X44282Y67575D02*
X44179Y67462D01*
X44087Y67339D01*
X44006Y67207D01*
X43936Y67065D01*
X43878Y66914D01*
X43830Y66754D01*
X43793Y66584D01*
X43768Y66405D01*
X43753Y66216D01*
X43750Y66018D01*
X42017Y67750D01*
X42216Y67753D01*
X42405Y67768D01*
X42584Y67794D01*
X42754Y67830D01*
X42914Y67878D01*
X43065Y67936D01*
X43207Y68006D01*
X43339Y68087D01*
X43462Y68179D01*
X43575Y68282D01*
X44282Y67575D01*
D02*
G37*
G36*
X48478Y64512D02*
X48301Y64506D01*
X48145Y64490D01*
X48012Y64462D01*
X47900Y64424D01*
X47810Y64375D01*
X47742Y64314D01*
X47696Y64243D01*
X47671Y64160D01*
X47668Y64067D01*
X47688Y63963D01*
X45984Y65250D01*
X47931Y65512D01*
X48478Y64512D01*
D02*
G37*
G36*
X44740Y43551D02*
X44752Y41357D01*
X44745Y41497D01*
X44722Y41638D01*
X44686Y41778D01*
X44635Y41919D01*
X44571Y42060D01*
X44492Y42202D01*
X44398Y42344D01*
X44291Y42486D01*
X44169Y42629D01*
X44033Y42772D01*
Y44186D01*
X44740Y43551D01*
D02*
G37*
G36*
X59502Y67505D02*
X59523Y67194D01*
X59545Y67058D01*
X59580Y66927D01*
X59625Y66816D01*
X59680Y66724D01*
X59745Y66654D01*
X59820Y66603D01*
X59905Y66573D01*
X60000Y66563D01*
X59565D01*
X59602Y66000D01*
X59633Y65871D01*
X59668Y65777D01*
X59708Y65719D01*
X58292D01*
X58332Y65777D01*
X58367Y65871D01*
X58398Y66000D01*
X58425Y66164D01*
X58464Y66563D01*
X58000D01*
X58095Y66573D01*
X58180Y66603D01*
X58255Y66654D01*
X58320Y66724D01*
X58375Y66816D01*
X58420Y66927D01*
X58455Y67058D01*
X58480Y67210D01*
X58493Y67358D01*
X58498Y67505D01*
X58500Y67878D01*
X59500D01*
X59502Y67505D01*
D02*
G37*
G36*
X50252Y64012D02*
X50242Y64107D01*
X50212Y64192D01*
X50161Y64267D01*
X50090Y64332D01*
X49999Y64387D01*
X49888Y64432D01*
X49757Y64467D01*
X49605Y64492D01*
X49433Y64507D01*
X49240Y64512D01*
Y65512D01*
X49433Y65517D01*
X49605Y65532D01*
X49757Y65557D01*
X49888Y65592D01*
X49999Y65637D01*
X50090Y65692D01*
X50161Y65757D01*
X50212Y65832D01*
X50242Y65917D01*
X50252Y66012D01*
Y64012D01*
D02*
G37*
G36*
X74750Y37275D02*
X74698Y37318D01*
X74630Y37356D01*
X74546Y37390D01*
X74447Y37419D01*
X74331Y37444D01*
X74199Y37464D01*
X73888Y37491D01*
X73514Y37500D01*
Y39500D01*
X73709Y39502D01*
X74199Y39536D01*
X74331Y39556D01*
X74447Y39581D01*
X74546Y39610D01*
X74630Y39644D01*
X74698Y39682D01*
X74750Y39725D01*
Y37275D01*
D02*
G37*
G36*
X65520Y41120D02*
X65580Y40780D01*
X65680Y40480D01*
X65703Y40437D01*
X66260D01*
X66115Y40418D01*
X65986Y40360D01*
X65872Y40263D01*
X65831Y40206D01*
X66000Y40000D01*
X66220Y39820D01*
X66480Y39680D01*
X66780Y39580D01*
X67120Y39520D01*
X67500Y39500D01*
X64500Y37500D01*
X61500Y39500D01*
X61880Y39520D01*
X62220Y39580D01*
X62520Y39680D01*
X62780Y39820D01*
X63000Y40000D01*
X63169Y40206D01*
X63128Y40263D01*
X63014Y40360D01*
X62885Y40418D01*
X62740Y40437D01*
X63297D01*
X63320Y40480D01*
X63420Y40780D01*
X63480Y41120D01*
X63500Y41500D01*
X65500D01*
X65520Y41120D01*
D02*
G37*
G36*
X24044Y35311D02*
X23897Y35346D01*
X23566Y35407D01*
X23186Y35453D01*
X22520Y35492D01*
X22014Y35500D01*
X21773Y36500D01*
X21939Y36508D01*
X22091Y36532D01*
X22228Y36571D01*
X22350Y36627D01*
X22457Y36698D01*
X22550Y36785D01*
X22628Y36888D01*
X22692Y37006D01*
X22740Y37141D01*
X22774Y37291D01*
X24044Y35311D01*
D02*
G37*
G36*
X80589Y70829D02*
X80959Y70506D01*
X81067Y70427D01*
X81166Y70363D01*
X81257Y70313D01*
X81340Y70278D01*
X81415Y70257D01*
X81482Y70250D01*
X79750Y68518D01*
X79743Y68585D01*
X79722Y68660D01*
X79687Y68743D01*
X79637Y68834D01*
X79573Y68933D01*
X79494Y69041D01*
X79293Y69280D01*
X79035Y69551D01*
X80449Y70965D01*
X80589Y70829D01*
D02*
G37*
G36*
X77002Y40791D02*
X77036Y40301D01*
X77056Y40169D01*
X77081Y40053D01*
X77110Y39954D01*
X77144Y39870D01*
X77182Y39802D01*
X77225Y39750D01*
X74775D01*
X74818Y39802D01*
X74856Y39870D01*
X74890Y39954D01*
X74919Y40053D01*
X74944Y40169D01*
X74964Y40301D01*
X74991Y40612D01*
X75000Y40986D01*
X77000D01*
X77002Y40791D01*
D02*
G37*
G36*
X66180Y76733D02*
X66455Y76680D01*
X66718Y76608D01*
X66971Y76515D01*
X67215Y76402D01*
X67452Y76267D01*
X67684Y76110D01*
X67855Y75972D01*
X71257Y72571D01*
Y72543D01*
X71249Y72447D01*
X71242Y72403D01*
X70923Y71988D01*
X70626Y71270D01*
X70525Y70500D01*
X70626Y69730D01*
X70923Y69012D01*
X71396Y68396D01*
X71729Y68141D01*
Y61000D01*
X71899Y60142D01*
X72386Y59414D01*
X73757Y58043D01*
Y52661D01*
X73257Y52628D01*
X73179Y53218D01*
X72902Y53887D01*
X72461Y54461D01*
X71887Y54902D01*
X71218Y55179D01*
X71000Y55208D01*
Y54986D01*
X71500D01*
X71502Y54791D01*
X71536Y54301D01*
X71556Y54169D01*
X71581Y54053D01*
X71610Y53954D01*
X71644Y53870D01*
X71682Y53802D01*
X71725Y53750D01*
X71000D01*
Y52500D01*
X70500D01*
Y52000D01*
X67792D01*
X67821Y51782D01*
X68098Y51113D01*
X68510Y50577D01*
X68341Y50140D01*
X67860Y50087D01*
X67472Y50287D01*
X67316Y50287D01*
X61528D01*
Y47543D01*
X61238Y47295D01*
X60772Y47495D01*
Y50087D01*
X58500D01*
Y49221D01*
X58608Y49160D01*
X58880Y49044D01*
X59130Y48977D01*
X59360Y48960D01*
X59567Y48992D01*
X59754Y49075D01*
X58500Y48310D01*
Y47512D01*
X57500D01*
Y47700D01*
X56240Y46931D01*
X56384Y47056D01*
X56465Y47216D01*
X56482Y47411D01*
X56436Y47641D01*
X56326Y47906D01*
X56153Y48207D01*
X55916Y48542D01*
X55616Y48913D01*
X54919Y49660D01*
X54728Y49622D01*
X54577Y49988D01*
X54104Y50604D01*
X53488Y51077D01*
X53387Y51119D01*
Y51134D01*
X53439Y51638D01*
X53961Y52039D01*
X54402Y52613D01*
X54679Y53282D01*
X54708Y53500D01*
X53976D01*
X54006Y53459D01*
X54207Y53220D01*
X54465Y52949D01*
X53051Y51535D01*
X52911Y51671D01*
X52541Y51994D01*
X52433Y52073D01*
X52334Y52137D01*
X52243Y52187D01*
X52160Y52223D01*
X52084Y52244D01*
X52017Y52250D01*
X53267Y53500D01*
X52000D01*
Y54500D01*
X54708D01*
X54679Y54718D01*
X54402Y55387D01*
X53961Y55961D01*
X53387Y56402D01*
X53331Y56425D01*
X53431Y56925D01*
X54772D01*
Y58452D01*
X54740Y58449D01*
X54480Y58410D01*
X54260Y58359D01*
X54080Y58297D01*
X53940Y58224D01*
X53840Y58140D01*
X53780Y58044D01*
X53760Y57937D01*
X53615Y57917D01*
X53486Y57857D01*
X53372Y57757D01*
X53273Y57617D01*
X53190Y57437D01*
X53122Y57217D01*
X53068Y56957D01*
X53030Y56657D01*
X53008Y56317D01*
X53006Y56237D01*
X53036Y55801D01*
X53056Y55669D01*
X53081Y55553D01*
X53110Y55454D01*
X53144Y55370D01*
X53182Y55302D01*
X53225Y55250D01*
X50775D01*
X50818Y55302D01*
X50856Y55370D01*
X50890Y55454D01*
X50919Y55553D01*
X50944Y55669D01*
X50964Y55801D01*
X50991Y56112D01*
X50994Y56237D01*
X50992Y56317D01*
X50932Y56957D01*
X50879Y57217D01*
X50810Y57437D01*
X50726Y57617D01*
X50628Y57757D01*
X50514Y57857D01*
X50385Y57917D01*
X50240Y57937D01*
X50220Y58044D01*
X50160Y58140D01*
X50060Y58224D01*
X49920Y58297D01*
X49740Y58359D01*
X49520Y58410D01*
X49260Y58449D01*
X48960Y58477D01*
X48867Y58480D01*
X48773Y58474D01*
X48636Y58453D01*
X48519Y58427D01*
X48421Y58395D01*
X48343Y58357D01*
X48284Y58314D01*
X48245Y58264D01*
X48226Y58209D01*
X46956Y60189D01*
X48240Y60386D01*
Y60500D01*
X48620Y60506D01*
X49260Y60551D01*
X49520Y60590D01*
X49740Y60641D01*
X49920Y60703D01*
X50060Y60776D01*
X50160Y60860D01*
X50220Y60956D01*
X50240Y61063D01*
Y57937D01*
X53760D01*
Y59000D01*
X52000D01*
Y60000D01*
X53760D01*
Y61063D01*
X53780Y60956D01*
X53840Y60860D01*
X53940Y60776D01*
X54080Y60703D01*
X54260Y60641D01*
X54480Y60590D01*
X54740Y60551D01*
X54772Y60548D01*
Y61820D01*
X54972Y62237D01*
X54972Y62237D01*
X54972Y62237D01*
Y67787D01*
X49028D01*
Y66745D01*
X46512D01*
X45849Y66613D01*
X45799Y66640D01*
X45708Y67257D01*
X52718Y74267D01*
X57389D01*
X57635Y73767D01*
X57415Y73480D01*
X57118Y72762D01*
X57017Y71992D01*
X57106Y71315D01*
X57106Y71282D01*
X57117Y71228D01*
X57118Y71222D01*
X57119Y71220D01*
X57198Y70840D01*
X57211Y70741D01*
X57267Y69846D01*
Y67787D01*
X56028D01*
X56028Y62237D01*
X56228Y61820D01*
Y60548D01*
X56260Y60551D01*
X56520Y60590D01*
X56740Y60641D01*
X56920Y60703D01*
X57060Y60776D01*
X57160Y60860D01*
X57220Y60956D01*
X57240Y61063D01*
Y60000D01*
X60760D01*
Y61063D01*
X60780Y60956D01*
X60840Y60860D01*
X60940Y60776D01*
X61080Y60703D01*
X61260Y60641D01*
X61480Y60590D01*
X61740Y60551D01*
X61772Y60548D01*
Y61820D01*
X61972Y62237D01*
X61972Y62492D01*
Y67787D01*
X60733D01*
Y69114D01*
X60762Y69118D01*
X61480Y69415D01*
X62096Y69888D01*
X62569Y70504D01*
X62595Y70567D01*
X63082Y70437D01*
X63024Y70000D01*
X63126Y69230D01*
X63423Y68512D01*
X63896Y67896D01*
X64512Y67423D01*
X65230Y67126D01*
X66000Y67024D01*
X66770Y67126D01*
X67488Y67423D01*
X68104Y67896D01*
X68577Y68512D01*
X68874Y69230D01*
X68976Y70000D01*
X68874Y70770D01*
X68577Y71488D01*
X68104Y72104D01*
X67733Y72388D01*
Y72500D01*
X67601Y73163D01*
X67226Y73726D01*
X64656Y76295D01*
X64848Y76757D01*
X65961D01*
X66180Y76733D01*
D02*
G37*
G36*
X72047Y40409D02*
X71932Y40358D01*
X71831Y40275D01*
X71743Y40157D01*
X71669Y40007D01*
X71608Y39822D01*
X71561Y39604D01*
X71527Y39353D01*
X71507Y39068D01*
X71500Y38750D01*
X69500D01*
X69493Y39068D01*
X69439Y39604D01*
X69392Y39822D01*
X69331Y40007D01*
X69257Y40157D01*
X69169Y40275D01*
X69068Y40358D01*
X68953Y40409D01*
X68825Y40425D01*
X72175D01*
X72047Y40409D01*
D02*
G37*
G36*
X74802Y71682D02*
X74870Y71644D01*
X74954Y71610D01*
X75053Y71581D01*
X75169Y71556D01*
X75301Y71536D01*
X75612Y71509D01*
X75986Y71500D01*
Y69500D01*
X75791Y69498D01*
X75301Y69464D01*
X75169Y69444D01*
X75053Y69419D01*
X74989Y69400D01*
X74979Y69185D01*
X74972Y68503D01*
X72972Y67782D01*
X72969Y67976D01*
X72943Y68313D01*
X72921Y68457D01*
X72893Y68584D01*
X72858Y68694D01*
X72818Y68787D01*
X72770Y68864D01*
X72717Y68923D01*
X72657Y68966D01*
X74750Y69552D01*
Y71725D01*
X74802Y71682D01*
D02*
G37*
G36*
X39417Y51625D02*
X39294Y51711D01*
X39172Y51774D01*
X39049Y51816D01*
X38926Y51836D01*
X38802Y51833D01*
X38679Y51808D01*
X38556Y51762D01*
X38432Y51693D01*
X38309Y51602D01*
X38190Y51494D01*
X38539Y51039D01*
X38867Y50787D01*
X38697Y50287D01*
X37028D01*
Y44894D01*
X36865Y44806D01*
X36361Y45006D01*
X36272Y45192D01*
Y47012D01*
X33500D01*
X30728D01*
Y45192D01*
X30528Y44775D01*
Y44638D01*
X30036Y44243D01*
X29456D01*
X29430Y44246D01*
X28872Y44476D01*
X28102Y44578D01*
X27332Y44476D01*
X26615Y44179D01*
X25998Y43706D01*
X25526Y43090D01*
X25228Y42373D01*
X25127Y41602D01*
X25228Y40832D01*
X25434Y40336D01*
X25407Y40261D01*
X25089Y39898D01*
X24500Y39976D01*
X23730Y39874D01*
X23012Y39577D01*
X22396Y39104D01*
X21923Y38488D01*
X21626Y37770D01*
X21621Y37733D01*
X20358D01*
X20111Y38233D01*
X20627Y38906D01*
X20881Y39519D01*
X20940Y39615D01*
X21414Y40912D01*
X21671Y41531D01*
X21884Y41971D01*
X21952Y42088D01*
X21969Y42114D01*
X31622Y51767D01*
X35500D01*
X36163Y51899D01*
X36726Y52274D01*
X37249Y52797D01*
X37776Y52618D01*
X37791Y52511D01*
X37869Y52589D01*
X38942Y53814D01*
X39010Y53918D01*
X39417Y51625D01*
D02*
G37*
G36*
X51982Y52250D02*
X51916Y52244D01*
X51840Y52223D01*
X51757Y52187D01*
X51666Y52137D01*
X51567Y52073D01*
X51459Y51994D01*
X51220Y51793D01*
X50949Y51535D01*
X49535Y52949D01*
X49671Y53089D01*
X49994Y53459D01*
X50073Y53567D01*
X50137Y53666D01*
X50187Y53757D01*
X50222Y53840D01*
X50244Y53916D01*
X50250Y53983D01*
X51982Y52250D01*
D02*
G37*
G36*
X63863Y45961D02*
X63800Y46029D01*
X63719Y46067D01*
X63620Y46073D01*
X63505Y46047D01*
X63372Y45991D01*
X63222Y45904D01*
X63055Y45785D01*
X62870Y45635D01*
X62449Y45242D01*
X62033Y46240D01*
X62219Y46433D01*
X62516Y46785D01*
X62626Y46944D01*
X62710Y47091D01*
X62770Y47227D01*
X62803Y47351D01*
X62812Y47464D01*
X62795Y47565D01*
X62752Y47655D01*
X63863Y45961D01*
D02*
G37*
G36*
X49674Y50260D02*
X49231Y49803D01*
X48547Y49005D01*
X48305Y48665D01*
X48130Y48362D01*
X48022Y48099D01*
X47981Y47874D01*
X48007Y47688D01*
X48100Y47540D01*
X48260Y47431D01*
X44740Y49063D01*
X44934Y49084D01*
X45152Y49148D01*
X45395Y49254D01*
X45661Y49402D01*
X45952Y49593D01*
X46267Y49826D01*
X46970Y50420D01*
X47770Y51184D01*
X49674Y50260D01*
D02*
G37*
G36*
X71682Y51198D02*
X71644Y51130D01*
X71610Y51046D01*
X71581Y50947D01*
X71556Y50831D01*
X71536Y50699D01*
X71522Y50534D01*
X71568Y50043D01*
X71622Y49783D01*
X71690Y49563D01*
X71773Y49383D01*
X71872Y49243D01*
X71986Y49143D01*
X72115Y49083D01*
X72260Y49063D01*
X68740D01*
X68885Y49083D01*
X69014Y49143D01*
X69128Y49243D01*
X69226Y49383D01*
X69310Y49563D01*
X69379Y49783D01*
X69432Y50043D01*
X69470Y50343D01*
X69479Y50482D01*
X69464Y50699D01*
X69444Y50831D01*
X69419Y50947D01*
X69390Y51046D01*
X69356Y51130D01*
X69318Y51198D01*
X69275Y51250D01*
X71725D01*
X71682Y51198D01*
D02*
G37*
G36*
X42467Y49272D02*
X42260Y49057D01*
X41937Y48678D01*
X41821Y48513D01*
X41735Y48363D01*
X41679Y48230D01*
X41654Y48112D01*
X41659Y48011D01*
X41694Y47926D01*
X41760Y47857D01*
X40149Y49075D01*
X40235Y49027D01*
X40334Y49005D01*
X40445Y49010D01*
X40568Y49042D01*
X40703Y49099D01*
X40851Y49183D01*
X41011Y49293D01*
X41183Y49430D01*
X41367Y49593D01*
X41563Y49782D01*
X42467Y49272D01*
D02*
G37*
G36*
X45971Y51750D02*
X45772Y51747D01*
X45584Y51732D01*
X45404Y51706D01*
X45234Y51670D01*
X45074Y51622D01*
X44923Y51564D01*
X44781Y51494D01*
X44649Y51413D01*
X44527Y51321D01*
X44413Y51218D01*
X43706Y51925D01*
X43809Y52038D01*
X43901Y52161D01*
X43982Y52293D01*
X44052Y52435D01*
X44110Y52586D01*
X44158Y52746D01*
X44195Y52916D01*
X44220Y53095D01*
X44235Y53284D01*
X44238Y53483D01*
X45971Y51750D01*
D02*
G37*
G36*
X20664Y53957D02*
X20525Y53796D01*
X20401Y53605D01*
X20292Y53386D01*
X20198Y53136D01*
X20120Y52858D01*
X20056Y52551D01*
X20007Y52214D01*
X19956Y51454D01*
X19953Y51029D01*
X17030Y53953D01*
X17454Y53956D01*
X18214Y54007D01*
X18551Y54056D01*
X18858Y54119D01*
X19137Y54198D01*
X19386Y54292D01*
X19605Y54401D01*
X19796Y54525D01*
X19957Y54664D01*
X20664Y53957D01*
D02*
G37*
G36*
X38240Y40437D02*
X38220Y40544D01*
X38160Y40640D01*
X38060Y40724D01*
X37920Y40797D01*
X37740Y40859D01*
X37520Y40910D01*
X37260Y40949D01*
X36960Y40977D01*
X36738Y40984D01*
X36240Y40949D01*
X35980Y40910D01*
X35760Y40859D01*
X35580Y40797D01*
X35440Y40724D01*
X35340Y40640D01*
X35280Y40544D01*
X35260Y40437D01*
Y43563D01*
X35280Y43456D01*
X35340Y43360D01*
X35440Y43276D01*
X35580Y43203D01*
X35760Y43141D01*
X35980Y43090D01*
X36240Y43051D01*
X36540Y43023D01*
X36762Y43016D01*
X37260Y43051D01*
X37520Y43090D01*
X37740Y43141D01*
X37920Y43203D01*
X38060Y43276D01*
X38160Y43360D01*
X38220Y43456D01*
X38240Y43563D01*
Y40437D01*
D02*
G37*
G36*
X60467Y43260D02*
X60281Y43067D01*
X59986Y42716D01*
X59876Y42557D01*
X59791Y42410D01*
X59732Y42275D01*
X59698Y42150D01*
X59689Y42037D01*
X59706Y41936D01*
X59748Y41845D01*
X58649Y43551D01*
X58712Y43482D01*
X58792Y43444D01*
X58890Y43438D01*
X59006Y43463D01*
X59138Y43519D01*
X59289Y43607D01*
X59456Y43726D01*
X59641Y43876D01*
X60063Y44270D01*
X60467Y43260D01*
D02*
G37*
G36*
X37262Y62631D02*
X37368Y62254D01*
X37430Y62082D01*
X37498Y61921D01*
X37572Y61771D01*
X37651Y61632D01*
X37737Y61504D01*
X37829Y61387D01*
X37926Y61281D01*
X37372Y60421D01*
X37254Y60527D01*
X37129Y60618D01*
X36997Y60694D01*
X36858Y60754D01*
X36711Y60798D01*
X36558Y60827D01*
X36397Y60841D01*
X36229Y60839D01*
X36053Y60822D01*
X35871Y60790D01*
X37217Y62836D01*
X37262Y62631D01*
D02*
G37*
G36*
X31740Y40437D02*
X31720Y40544D01*
X31660Y40640D01*
X31560Y40724D01*
X31420Y40797D01*
X31240Y40859D01*
X31020Y40910D01*
X30760Y40949D01*
X30460Y40977D01*
X30371Y40980D01*
X30263Y40972D01*
X30118Y40951D01*
X29990Y40923D01*
X29879Y40890D01*
X29784Y40850D01*
X29705Y40804D01*
X29643Y40752D01*
X29598Y40693D01*
X29041Y43079D01*
X29075Y43064D01*
X29128Y43051D01*
X29198Y43039D01*
X29395Y43020D01*
X29826Y43003D01*
X29908Y43003D01*
X30120Y43006D01*
X30760Y43051D01*
X31020Y43090D01*
X31240Y43141D01*
X31420Y43203D01*
X31560Y43276D01*
X31660Y43360D01*
X31720Y43456D01*
X31740Y43563D01*
Y40437D01*
D02*
G37*
G36*
X44527Y55679D02*
X44649Y55587D01*
X44781Y55506D01*
X44923Y55436D01*
X45074Y55378D01*
X45234Y55330D01*
X45404Y55294D01*
X45584Y55268D01*
X45772Y55253D01*
X45971Y55250D01*
X44238Y53518D01*
X44235Y53716D01*
X44220Y53905D01*
X44195Y54084D01*
X44158Y54254D01*
X44110Y54414D01*
X44052Y54565D01*
X43982Y54707D01*
X43901Y54839D01*
X43809Y54962D01*
X43706Y55075D01*
X44413Y55782D01*
X44527Y55679D01*
D02*
G37*
G36*
X41684Y47098D02*
X41650Y47014D01*
X41646Y46914D01*
X41673Y46797D01*
X41729Y46663D01*
X41816Y46514D01*
X41934Y46348D01*
X42081Y46166D01*
X42467Y45752D01*
X41563Y45242D01*
X41365Y45432D01*
X41008Y45734D01*
X40848Y45845D01*
X40700Y45931D01*
X40565Y45989D01*
X40442Y46022D01*
X40332Y46028D01*
X40234Y46008D01*
X40149Y45961D01*
X41748Y47166D01*
X41684Y47098D01*
D02*
G37*
G36*
X21110Y42998D02*
X21016Y42888D01*
X20913Y42736D01*
X20802Y42543D01*
X20555Y42033D01*
X20274Y41357D01*
X19791Y40035D01*
X18021Y43771D01*
X18369Y43654D01*
X18699Y43568D01*
X19009Y43511D01*
X19301Y43485D01*
X19575Y43489D01*
X19829Y43524D01*
X20065Y43588D01*
X20282Y43683D01*
X20480Y43808D01*
X20660Y43963D01*
X21110Y42998D01*
D02*
G37*
G36*
X36179Y56444D02*
X35992Y56357D01*
X35342Y56003D01*
X35205Y55913D01*
X34960Y55731D01*
X34852Y55640D01*
X34754Y55547D01*
X33681Y55888D01*
X33790Y56009D01*
X33880Y56134D01*
X33951Y56262D01*
X34002Y56394D01*
X34033Y56530D01*
X34044Y56669D01*
X34036Y56812D01*
X34008Y56958D01*
X33961Y57108D01*
X33893Y57261D01*
X36179Y56444D01*
D02*
G37*
G36*
X60293Y70268D02*
X60142Y70233D01*
X60007Y70184D01*
X59888Y70120D01*
X59785Y70041D01*
X59698Y69948D01*
X59627Y69840D01*
X59571Y69717D01*
X59532Y69580D01*
X59508Y69429D01*
X59500Y69263D01*
X58500Y69500D01*
X58498Y69757D01*
X58429Y70862D01*
X58404Y71047D01*
X58304Y71530D01*
X60293Y70268D01*
D02*
G37*
G36*
X20802Y25682D02*
X20870Y25644D01*
X20954Y25610D01*
X21053Y25581D01*
X21169Y25556D01*
X21301Y25536D01*
X21612Y25509D01*
X21986Y25500D01*
Y23500D01*
X21791Y23498D01*
X21301Y23464D01*
X21169Y23444D01*
X21053Y23419D01*
X20954Y23390D01*
X20870Y23356D01*
X20802Y23318D01*
X20750Y23275D01*
Y25725D01*
X20802Y25682D01*
D02*
G37*
G36*
X87459Y24542D02*
X87491Y24533D01*
X87543Y24525D01*
X87617Y24519D01*
X88121Y24502D01*
X88500Y24500D01*
Y22500D01*
X87449Y22449D01*
Y24551D01*
X87459Y24542D01*
D02*
G37*
G36*
X69810Y83539D02*
X69640Y83479D01*
X69490Y83379D01*
X69360Y83239D01*
X69250Y83059D01*
X69160Y82839D01*
X69090Y82579D01*
X69040Y82279D01*
X69010Y81939D01*
X69000Y81559D01*
X68505D01*
X69000Y81414D01*
X69014Y81020D01*
X69057Y80638D01*
X69127Y80267D01*
X69226Y79908D01*
X69353Y79561D01*
X69509Y79225D01*
X69693Y78901D01*
X69905Y78589D01*
X70145Y78289D01*
X70414Y78000D01*
X69000Y76586D01*
X68711Y76854D01*
X68411Y77095D01*
X68099Y77307D01*
X67775Y77491D01*
X67439Y77646D01*
X67092Y77774D01*
X66733Y77873D01*
X66362Y77943D01*
X65980Y77986D01*
X65586Y78000D01*
X65000Y80000D01*
X65380Y80020D01*
X65720Y80080D01*
X66020Y80180D01*
X66280Y80320D01*
X66500Y80500D01*
X66680Y80720D01*
X66820Y80980D01*
X66920Y81280D01*
X66980Y81620D01*
X66992Y81853D01*
X66990Y81939D01*
X66960Y82279D01*
X66910Y82579D01*
X66840Y82839D01*
X66750Y83059D01*
X66640Y83239D01*
X66510Y83379D01*
X66360Y83479D01*
X66190Y83539D01*
X66000Y83559D01*
X70000D01*
X69810Y83539D01*
D02*
G37*
G36*
X13007Y27074D02*
X13029Y26923D01*
X13065Y26772D01*
X13116Y26623D01*
X13181Y26474D01*
X13261Y26327D01*
X13355Y26181D01*
X13464Y26036D01*
X13587Y25892D01*
X13725Y25750D01*
X11275D01*
X11413Y25892D01*
X11536Y26036D01*
X11645Y26181D01*
X11739Y26327D01*
X11819Y26474D01*
X11884Y26623D01*
X11935Y26772D01*
X11971Y26923D01*
X11993Y27074D01*
X12000Y27227D01*
X13000D01*
X13007Y27074D01*
D02*
G37*
G36*
X112140Y21905D02*
X112033Y21845D01*
X111939Y21745D01*
X111857Y21605D01*
X111787Y21425D01*
X111731Y21205D01*
X111687Y20945D01*
X111655Y20645D01*
X111630Y19925D01*
X109630D01*
X109621Y20305D01*
X109594Y20645D01*
X109550Y20945D01*
X109488Y21205D01*
X109407Y21425D01*
X109310Y21605D01*
X109194Y21745D01*
X109061Y21845D01*
X108909Y21905D01*
X108740Y21925D01*
X112260D01*
X112140Y21905D01*
D02*
G37*
G36*
X111640Y15865D02*
X111719Y15007D01*
X111788Y14658D01*
X111878Y14363D01*
X111987Y14121D01*
X112115Y13933D01*
X112264Y13799D01*
X112432Y13719D01*
X112621Y13692D01*
X108639D01*
X108827Y13719D01*
X108996Y13799D01*
X109144Y13933D01*
X109273Y14121D01*
X109382Y14363D01*
X109471Y14658D01*
X109541Y15007D01*
X109590Y15409D01*
X109620Y15865D01*
X109630Y16375D01*
X111630D01*
X111640Y15865D01*
D02*
G37*
G36*
X14253Y24284D02*
X14268Y24095D01*
X14293Y23916D01*
X14330Y23746D01*
X14378Y23586D01*
X14436Y23435D01*
X14506Y23293D01*
X14587Y23161D01*
X14679Y23038D01*
X14782Y22925D01*
X14075Y22218D01*
X13962Y22321D01*
X13839Y22413D01*
X13707Y22494D01*
X13565Y22564D01*
X13414Y22622D01*
X13254Y22670D01*
X13084Y22706D01*
X12905Y22732D01*
X12716Y22747D01*
X12517Y22750D01*
X14250Y24483D01*
X14253Y24284D01*
D02*
G37*
G36*
X9730Y24363D02*
X9898Y23974D01*
X9991Y23792D01*
X10196Y23450D01*
X10307Y23290D01*
X10547Y22995D01*
X10676Y22859D01*
X10039Y22082D01*
X9919Y22190D01*
X9794Y22281D01*
X9663Y22353D01*
X9527Y22408D01*
X9386Y22444D01*
X9240Y22462D01*
X9088Y22463D01*
X8932Y22445D01*
X8770Y22410D01*
X8602Y22357D01*
X9655Y24569D01*
X9730Y24363D01*
D02*
G37*
G36*
X115000Y80000D02*
X120500Y74500D01*
X135552D01*
Y21000D01*
X121000D01*
X117000Y17000D01*
Y2243D01*
X19500D01*
Y13328D01*
X15695Y17133D01*
X15887Y17595D01*
X29328D01*
X29991Y17727D01*
X30554Y18102D01*
X36718Y24267D01*
X66500D01*
X67163Y24399D01*
X67726Y24774D01*
X71235Y28284D01*
X71697Y28092D01*
Y27740D01*
X75157D01*
X78618D01*
Y27980D01*
X79080Y28172D01*
X81339Y25912D01*
Y20922D01*
X88661D01*
Y21289D01*
X89358Y21428D01*
X90086Y21914D01*
X93266Y25094D01*
X93728Y24903D01*
Y23988D01*
X98260D01*
Y25051D01*
X98280Y24944D01*
X98340Y24848D01*
X98440Y24764D01*
X98580Y24691D01*
X98760Y24629D01*
X98980Y24578D01*
X99240Y24539D01*
X99272Y24536D01*
Y26063D01*
X99472Y26225D01*
X99472D01*
Y26739D01*
X99724Y26757D01*
X100034D01*
X100528Y26332D01*
Y26225D01*
X100728Y25808D01*
Y24537D01*
X100760Y24539D01*
X101020Y24578D01*
X101240Y24629D01*
X101420Y24691D01*
X101560Y24764D01*
X101660Y24848D01*
X101720Y24944D01*
X101740Y25051D01*
Y23988D01*
X106272D01*
Y25808D01*
X106472Y26225D01*
Y26362D01*
X106964Y26757D01*
X107348D01*
X107384Y26756D01*
X107528Y26742D01*
Y22079D01*
X107525Y22069D01*
X107528Y22031D01*
Y21983D01*
X107517Y21925D01*
X107528Y21868D01*
Y20713D01*
X108347D01*
X108347Y20713D01*
X108378Y20508D01*
X108387Y20394D01*
Y15756D01*
X108372Y15524D01*
X108332Y15201D01*
X108293Y15004D01*
X107808Y14632D01*
X107174Y13806D01*
X107012Y13413D01*
X106512Y13513D01*
Y15567D01*
X103256D01*
Y10630D01*
Y5693D01*
X106512D01*
Y7747D01*
X107012Y7846D01*
X107174Y7454D01*
X107808Y6627D01*
X108635Y5993D01*
X109597Y5595D01*
X110630Y5459D01*
X111663Y5595D01*
X112625Y5993D01*
X113451Y6627D01*
X114085Y7454D01*
X114484Y8416D01*
X114620Y9449D01*
Y11811D01*
X114484Y12844D01*
X114085Y13806D01*
X113451Y14632D01*
X112967Y15004D01*
X112932Y15183D01*
X112873Y15817D01*
Y20464D01*
X112876Y20560D01*
X112892Y20713D01*
X113472D01*
Y21868D01*
X113483Y21925D01*
X113472Y21983D01*
Y26225D01*
Y31775D01*
X108798D01*
X108740Y31786D01*
X108683Y31775D01*
X107528D01*
Y31261D01*
X107276Y31243D01*
X106652D01*
X106616Y31244D01*
X106472Y31258D01*
Y31775D01*
X105317D01*
X105260Y31786D01*
X105202Y31775D01*
X101798D01*
X101740Y31786D01*
X101682Y31775D01*
X100528D01*
Y31261D01*
X100276Y31243D01*
X99652D01*
X99616Y31244D01*
X99472Y31258D01*
Y31775D01*
X98317D01*
X98260Y31786D01*
X98202Y31775D01*
X93528D01*
Y31149D01*
X93142Y31072D01*
X92414Y30586D01*
X87906Y26078D01*
X85659D01*
X85601Y26366D01*
X85226Y26929D01*
X84214Y27940D01*
X84405Y28402D01*
X88661D01*
Y32488D01*
X89429Y33257D01*
X109000D01*
X109858Y33428D01*
X110586Y33914D01*
X116642Y39970D01*
X116715Y40031D01*
X116751Y40058D01*
X117270Y40126D01*
X117988Y40423D01*
X118604Y40896D01*
X119077Y41512D01*
X119374Y42230D01*
X119475Y43000D01*
X119374Y43770D01*
X119077Y44488D01*
X118604Y45104D01*
X117988Y45577D01*
X117270Y45874D01*
X116500Y45976D01*
X115730Y45874D01*
X115012Y45577D01*
X114396Y45104D01*
X113923Y44488D01*
X113626Y43770D01*
X113558Y43251D01*
X113538Y43224D01*
X113442Y43115D01*
X108071Y37743D01*
X88500D01*
X87642Y37572D01*
X86914Y37086D01*
X83640Y33812D01*
X83026Y34426D01*
X82463Y34801D01*
X81800Y34933D01*
X71296D01*
X70632Y34801D01*
X70070Y34426D01*
X66078Y30433D01*
X36296D01*
X36162Y30407D01*
X35602Y30805D01*
X35586Y30914D01*
X40929Y36257D01*
X53771D01*
X53900Y36234D01*
X53944Y36167D01*
X54067Y35853D01*
X54083Y35696D01*
X53923Y35488D01*
X53626Y34770D01*
X53525Y34000D01*
X53626Y33230D01*
X53923Y32512D01*
X54396Y31896D01*
X55012Y31423D01*
X55730Y31126D01*
X56500Y31025D01*
X57270Y31126D01*
X57988Y31423D01*
X58604Y31896D01*
X59077Y32512D01*
X59374Y33230D01*
X59475Y34000D01*
X59374Y34770D01*
X59077Y35488D01*
X58917Y35696D01*
X58933Y35853D01*
X59056Y36167D01*
X59100Y36234D01*
X59229Y36257D01*
X73957D01*
X74053Y36249D01*
X74097Y36242D01*
X74512Y35923D01*
X75230Y35626D01*
X76000Y35524D01*
X76770Y35626D01*
X77488Y35923D01*
X78104Y36396D01*
X78577Y37012D01*
X78874Y37730D01*
X78975Y38500D01*
X78874Y39270D01*
X78577Y39988D01*
X78258Y40403D01*
X78253Y40436D01*
X78243Y40581D01*
Y58972D01*
X78072Y59830D01*
X77586Y60558D01*
X76215Y61929D01*
Y68257D01*
X78552D01*
X78558Y68249D01*
X78626Y67730D01*
X78923Y67012D01*
X79396Y66396D01*
X80012Y65923D01*
X80730Y65626D01*
X81500Y65525D01*
X82270Y65626D01*
X82988Y65923D01*
X83604Y66396D01*
X84077Y67012D01*
X84374Y67730D01*
X84475Y68500D01*
X84374Y69270D01*
X84077Y69988D01*
X83604Y70604D01*
X82988Y71077D01*
X82270Y71374D01*
X81751Y71442D01*
X81724Y71462D01*
X81615Y71558D01*
X81086Y72086D01*
X80358Y72572D01*
X79500Y72743D01*
X75743D01*
Y73500D01*
X75572Y74358D01*
X75086Y75086D01*
X71028Y79145D01*
X70890Y79316D01*
X70733Y79548D01*
X70598Y79785D01*
X70485Y80029D01*
X70392Y80282D01*
X70320Y80545D01*
X70267Y80820D01*
X70243Y81039D01*
Y81994D01*
X70255Y82125D01*
X70287Y82319D01*
X70295Y82347D01*
X72153D01*
Y90653D01*
X63847D01*
Y82347D01*
X65705D01*
X65713Y82319D01*
X65745Y82125D01*
X65757Y81994D01*
Y81729D01*
X65731Y81581D01*
X65693Y81467D01*
X65658Y81404D01*
X65631Y81370D01*
X65596Y81341D01*
X65533Y81307D01*
X65419Y81269D01*
X65271Y81243D01*
X26000D01*
X25142Y81072D01*
X24414Y80586D01*
X15299Y71472D01*
X13237Y71472D01*
X12820Y71272D01*
X12719D01*
X13477Y71063D01*
X13053Y70625D01*
X12393Y69852D01*
X12156Y69518D01*
X11983Y69218D01*
X11871Y68952D01*
X11822Y68721D01*
X11836Y68524D01*
X11912Y68362D01*
X12051Y68234D01*
X11000Y68918D01*
Y68500D01*
Y67394D01*
X11569Y66740D01*
X11422Y66862D01*
X11245Y66926D01*
X11038Y66931D01*
X11000Y66922D01*
Y65728D01*
X12820D01*
X13237Y65528D01*
X13492Y65528D01*
X15257D01*
Y64773D01*
X14906Y64627D01*
X14038Y63962D01*
X13373Y63094D01*
X12954Y62084D01*
X12811Y61000D01*
X12954Y59916D01*
X13373Y58906D01*
X14038Y58038D01*
X14906Y57373D01*
X15916Y56954D01*
X17000Y56811D01*
X18084Y56954D01*
X19094Y57373D01*
X19767Y57889D01*
X20267Y57643D01*
Y56718D01*
X19045Y55496D01*
X18998Y55465D01*
X18897Y55415D01*
X18754Y55361D01*
X18567Y55309D01*
X18340Y55262D01*
X18086Y55225D01*
X17408Y55179D01*
X17091Y55177D01*
X17000Y55189D01*
X15916Y55046D01*
X14906Y54627D01*
X14038Y53962D01*
X13373Y53094D01*
X12954Y52084D01*
X12811Y51000D01*
X12954Y49916D01*
X13373Y48906D01*
X13889Y48233D01*
X13643Y47733D01*
X12041D01*
X10698Y49076D01*
X11046Y49916D01*
X11189Y51000D01*
X11046Y52084D01*
X10627Y53094D01*
X9962Y53962D01*
X9094Y54627D01*
X8084Y55046D01*
X7000Y55189D01*
X5916Y55046D01*
X4906Y54627D01*
X4038Y53962D01*
X3373Y53094D01*
X2954Y52084D01*
X2811Y51000D01*
X2954Y49916D01*
X3373Y48906D01*
X4038Y48038D01*
X4906Y47373D01*
X5916Y46954D01*
X7000Y46811D01*
X7937Y46935D01*
X10097Y44774D01*
X10660Y44399D01*
X11323Y44267D01*
X13643D01*
X13889Y43767D01*
X13373Y43094D01*
X12954Y42084D01*
X12811Y41000D01*
X12954Y39916D01*
X13373Y38906D01*
X14038Y38038D01*
X14064Y38018D01*
X14042Y37405D01*
X13774Y37226D01*
X11274Y34726D01*
X10899Y34163D01*
X10804Y33686D01*
X10303Y33540D01*
X10284Y33542D01*
X9962Y33962D01*
X9094Y34627D01*
X8084Y35046D01*
X7000Y35189D01*
X5916Y35046D01*
X4906Y34627D01*
X4038Y33962D01*
X3373Y33094D01*
X2954Y32084D01*
X2811Y31000D01*
X2954Y29916D01*
X3373Y28906D01*
X4038Y28038D01*
X4906Y27373D01*
X5916Y26954D01*
X6144Y26924D01*
X6284Y26401D01*
X5896Y26104D01*
X5423Y25488D01*
X5126Y24770D01*
X5024Y24000D01*
X2243D01*
Y72500D01*
X15500D01*
X17500Y74500D01*
X20500Y77500D01*
Y92245D01*
X87250D01*
X87282Y91745D01*
X87232Y91738D01*
X86782Y91679D01*
X86113Y91402D01*
X85539Y90961D01*
X85098Y90387D01*
X84821Y89718D01*
X84792Y89500D01*
X85085D01*
X85016Y89570D01*
X86065Y91350D01*
X86204Y91214D01*
X86461Y90992D01*
X86578Y90904D01*
X86688Y90832D01*
X86791Y90776D01*
X86887Y90736D01*
X86975Y90712D01*
X87056Y90703D01*
X87129Y90710D01*
X86333Y89500D01*
X88750D01*
Y90225D01*
X88802Y90182D01*
X88870Y90144D01*
X88954Y90110D01*
X89053Y90081D01*
X89169Y90056D01*
X89301Y90036D01*
X89612Y90009D01*
X89986Y90000D01*
Y89500D01*
X90208D01*
X90179Y89718D01*
X89902Y90387D01*
X89461Y90961D01*
X88887Y91402D01*
X88218Y91679D01*
X87768Y91738D01*
X87718Y91745D01*
X87750Y92245D01*
X94750D01*
X94782Y91745D01*
X94732Y91738D01*
X94282Y91679D01*
X93613Y91402D01*
X93039Y90961D01*
X92598Y90387D01*
X92321Y89718D01*
X92292Y89500D01*
X92514D01*
Y90000D01*
X92709Y90002D01*
X93199Y90036D01*
X93331Y90056D01*
X93447Y90081D01*
X93546Y90110D01*
X93630Y90144D01*
X93698Y90182D01*
X93750Y90225D01*
Y89500D01*
X96250D01*
Y90225D01*
X96302Y90182D01*
X96370Y90144D01*
X96454Y90110D01*
X96553Y90081D01*
X96669Y90056D01*
X96801Y90036D01*
X97112Y90009D01*
X97486Y90000D01*
Y89500D01*
X97708D01*
X97679Y89718D01*
X97402Y90387D01*
X96961Y90961D01*
X96387Y91402D01*
X95718Y91679D01*
X95268Y91738D01*
X95218Y91745D01*
X95250Y92245D01*
X103750D01*
X103782Y91745D01*
X103732Y91738D01*
X103282Y91679D01*
X102613Y91402D01*
X102039Y90961D01*
X101598Y90387D01*
X101321Y89718D01*
X101292Y89500D01*
X101514D01*
Y90000D01*
X101709Y90002D01*
X102199Y90036D01*
X102331Y90056D01*
X102447Y90081D01*
X102546Y90110D01*
X102630Y90144D01*
X102698Y90182D01*
X102750Y90225D01*
Y89500D01*
X105250D01*
Y90225D01*
X105302Y90182D01*
X105370Y90144D01*
X105454Y90110D01*
X105553Y90081D01*
X105669Y90056D01*
X105801Y90036D01*
X106112Y90009D01*
X106486Y90000D01*
Y89500D01*
X106708D01*
X106679Y89718D01*
X106402Y90387D01*
X105961Y90961D01*
X105387Y91402D01*
X104718Y91679D01*
X104268Y91738D01*
X104218Y91745D01*
X104250Y92245D01*
X111250D01*
X111282Y91745D01*
X111232Y91738D01*
X110782Y91679D01*
X110113Y91402D01*
X109539Y90961D01*
X109098Y90387D01*
X108821Y89718D01*
X108792Y89500D01*
X109014D01*
Y90000D01*
X109209Y90002D01*
X109699Y90036D01*
X109831Y90056D01*
X109947Y90081D01*
X110046Y90110D01*
X110130Y90144D01*
X110198Y90182D01*
X110250Y90225D01*
Y89500D01*
X114208D01*
X114179Y89718D01*
X113902Y90387D01*
X113461Y90961D01*
X112887Y91402D01*
X112218Y91679D01*
X111768Y91738D01*
X111718Y91745D01*
X111750Y92245D01*
X115000D01*
Y80000D01*
D02*
G37*
G36*
X101740Y27437D02*
X101720Y27544D01*
X101660Y27640D01*
X101560Y27724D01*
X101420Y27797D01*
X101240Y27859D01*
X101020Y27910D01*
X100760Y27949D01*
X100460Y27977D01*
X99907Y27995D01*
X99880Y27994D01*
X99240Y27949D01*
X98980Y27910D01*
X98760Y27859D01*
X98580Y27797D01*
X98440Y27724D01*
X98340Y27640D01*
X98280Y27544D01*
X98260Y27437D01*
Y30563D01*
X98280Y30456D01*
X98340Y30360D01*
X98440Y30276D01*
X98580Y30203D01*
X98760Y30141D01*
X98980Y30090D01*
X99240Y30051D01*
X99540Y30022D01*
X100093Y30005D01*
X100120Y30006D01*
X100760Y30051D01*
X101020Y30090D01*
X101240Y30141D01*
X101420Y30203D01*
X101560Y30276D01*
X101660Y30360D01*
X101720Y30456D01*
X101740Y30563D01*
Y27437D01*
D02*
G37*
G36*
X108740D02*
X108720Y27544D01*
X108660Y27640D01*
X108560Y27724D01*
X108420Y27797D01*
X108240Y27859D01*
X108020Y27910D01*
X107760Y27949D01*
X107460Y27977D01*
X106907Y27995D01*
X106880Y27994D01*
X106240Y27949D01*
X105980Y27910D01*
X105760Y27859D01*
X105580Y27797D01*
X105440Y27724D01*
X105340Y27640D01*
X105280Y27544D01*
X105260Y27437D01*
Y30563D01*
X105280Y30456D01*
X105340Y30360D01*
X105440Y30276D01*
X105580Y30203D01*
X105760Y30141D01*
X105980Y30090D01*
X106240Y30051D01*
X106540Y30022D01*
X107093Y30005D01*
X107120Y30006D01*
X107760Y30051D01*
X108020Y30090D01*
X108240Y30141D01*
X108420Y30203D01*
X108560Y30276D01*
X108660Y30360D01*
X108720Y30456D01*
X108740Y30563D01*
Y27437D01*
D02*
G37*
G36*
X59500Y37500D02*
X59120Y37480D01*
X58780Y37420D01*
X58480Y37320D01*
X58220Y37180D01*
X58000Y37000D01*
X57820Y36780D01*
X57680Y36520D01*
X57580Y36220D01*
X57528Y35923D01*
X57536Y35801D01*
X57556Y35669D01*
X57581Y35553D01*
X57610Y35454D01*
X57644Y35370D01*
X57682Y35302D01*
X57725Y35250D01*
X55275D01*
X55318Y35302D01*
X55356Y35370D01*
X55390Y35454D01*
X55419Y35553D01*
X55444Y35669D01*
X55464Y35801D01*
X55474Y35915D01*
X55420Y36220D01*
X55320Y36520D01*
X55180Y36780D01*
X55000Y37000D01*
X54780Y37180D01*
X54520Y37320D01*
X54220Y37420D01*
X53880Y37480D01*
X53500Y37500D01*
X56500Y39500D01*
X59500Y37500D01*
D02*
G37*
G36*
X27392Y74587D02*
X27536Y74464D01*
X27681Y74355D01*
X27827Y74261D01*
X27974Y74181D01*
X28123Y74116D01*
X28272Y74065D01*
X28423Y74029D01*
X28574Y74007D01*
X28727Y74000D01*
Y73000D01*
X28574Y72993D01*
X28423Y72971D01*
X28272Y72935D01*
X28123Y72884D01*
X27974Y72819D01*
X27827Y72739D01*
X27681Y72645D01*
X27536Y72536D01*
X27392Y72413D01*
X27250Y72275D01*
Y74725D01*
X27392Y74587D01*
D02*
G37*
G36*
X74502Y72791D02*
X74536Y72301D01*
X74556Y72169D01*
X74581Y72053D01*
X74610Y71954D01*
X74644Y71870D01*
X74682Y71802D01*
X74725Y71750D01*
X72275D01*
X72318Y71802D01*
X72356Y71870D01*
X72390Y71954D01*
X72419Y72053D01*
X72444Y72169D01*
X72464Y72301D01*
X72491Y72612D01*
X72500Y72986D01*
X74500D01*
X74502Y72791D01*
D02*
G37*
G36*
X66504Y72352D02*
X66515Y72215D01*
X66534Y72089D01*
X66560Y71974D01*
X66594Y71870D01*
X66635Y71777D01*
X66684Y71695D01*
X66740Y71624D01*
X66804Y71564D01*
X66875Y71516D01*
X65125D01*
X65196Y71564D01*
X65260Y71624D01*
X65316Y71695D01*
X65365Y71777D01*
X65406Y71870D01*
X65440Y71974D01*
X65466Y72089D01*
X65485Y72215D01*
X65496Y72352D01*
X65500Y72500D01*
X66500D01*
X66504Y72352D01*
D02*
G37*
%LPC*%
G36*
X60760Y59000D02*
X59500D01*
Y56925D01*
X61772D01*
Y58452D01*
X61740Y58449D01*
X61480Y58410D01*
X61260Y58359D01*
X61080Y58297D01*
X60940Y58224D01*
X60840Y58140D01*
X60780Y58044D01*
X60760Y57937D01*
Y59000D01*
D02*
G37*
G36*
X57500Y50087D02*
X57349D01*
X57500Y49960D01*
Y50087D01*
D02*
G37*
G36*
X55767D02*
X55228D01*
Y49899D01*
X55767Y50087D01*
D02*
G37*
G36*
X70000Y55208D02*
X69782Y55179D01*
X69113Y54902D01*
X68539Y54461D01*
X68098Y53887D01*
X67821Y53218D01*
X67792Y53000D01*
X70000D01*
Y53750D01*
X69275D01*
X69318Y53802D01*
X69356Y53870D01*
X69390Y53954D01*
X69419Y54053D01*
X69444Y54169D01*
X69464Y54301D01*
X69491Y54612D01*
X69500Y54986D01*
X70000D01*
Y55208D01*
D02*
G37*
G36*
X58500Y59000D02*
X57240D01*
Y57937D01*
X57220Y58044D01*
X57160Y58140D01*
X57060Y58224D01*
X56920Y58297D01*
X56740Y58359D01*
X56520Y58410D01*
X56260Y58449D01*
X56228Y58452D01*
Y56925D01*
X58500D01*
Y59000D01*
D02*
G37*
G36*
X34000Y48809D02*
Y48012D01*
X35055D01*
X34000Y48809D01*
D02*
G37*
G36*
X36272Y50087D02*
X34000D01*
Y49024D01*
X34068Y49042D01*
X34203Y49099D01*
X34351Y49183D01*
X34511Y49293D01*
X34683Y49430D01*
X34867Y49593D01*
X35063Y49782D01*
X35967Y49272D01*
X35760Y49057D01*
X35437Y48678D01*
X35321Y48513D01*
X35235Y48363D01*
X35179Y48230D01*
X35154Y48112D01*
X35159Y48012D01*
X36272D01*
Y50087D01*
D02*
G37*
G36*
X33000D02*
X30728D01*
Y48012D01*
X33000D01*
Y50087D01*
D02*
G37*
G36*
X38057Y51713D02*
X38098Y51613D01*
X38162Y51529D01*
X38057Y51713D01*
D02*
G37*
G36*
X102256Y15567D02*
X99000D01*
Y11130D01*
X102256D01*
Y15567D01*
D02*
G37*
G36*
X25484D02*
X22228D01*
Y11130D01*
X25484D01*
Y15567D01*
D02*
G37*
G36*
X51075D02*
X47819D01*
Y11130D01*
X51075D01*
Y15567D01*
D02*
G37*
G36*
X33858Y15801D02*
X32826Y15665D01*
X31863Y15267D01*
X31037Y14632D01*
X30403Y13806D01*
X30240Y13413D01*
X29740Y13513D01*
Y15567D01*
X26484D01*
Y10630D01*
Y5693D01*
X29740D01*
Y7747D01*
X30240Y7846D01*
X30403Y7454D01*
X31037Y6627D01*
X31863Y5993D01*
X32826Y5595D01*
X33858Y5459D01*
X34891Y5595D01*
X35853Y5993D01*
X36680Y6627D01*
X37314Y7454D01*
X37712Y8416D01*
X37848Y9449D01*
Y11811D01*
X37712Y12844D01*
X37314Y13806D01*
X36680Y14632D01*
X35853Y15267D01*
X34891Y15665D01*
X33858Y15801D01*
D02*
G37*
G36*
X74951Y15567D02*
X73409D01*
Y11130D01*
X76665D01*
Y14547D01*
X74422Y14555D01*
X74531Y14575D01*
X74630Y14635D01*
X74717Y14735D01*
X74792Y14875D01*
X74855Y15055D01*
X74907Y15275D01*
X74948Y15535D01*
X74951Y15567D01*
D02*
G37*
G36*
X25484Y10130D02*
X22228D01*
Y5693D01*
X25484D01*
Y10130D01*
D02*
G37*
G36*
X51075D02*
X47819D01*
Y5693D01*
X51075D01*
Y10130D01*
D02*
G37*
G36*
X102256D02*
X99000D01*
Y5693D01*
X102256D01*
Y10130D01*
D02*
G37*
G36*
X76665D02*
X73409D01*
Y5693D01*
X76665D01*
Y10130D01*
D02*
G37*
G36*
X103000Y22988D02*
X101740D01*
Y21925D01*
X101720Y22032D01*
X101660Y22128D01*
X101560Y22212D01*
X101420Y22286D01*
X101240Y22347D01*
X101020Y22398D01*
X100760Y22437D01*
X100728Y22441D01*
Y20913D01*
X103000D01*
Y22988D01*
D02*
G37*
G36*
X106272D02*
X104000D01*
Y20913D01*
X106272D01*
Y22988D01*
D02*
G37*
G36*
X87500Y44240D02*
X85292D01*
X85321Y44022D01*
X85598Y43353D01*
X86039Y42779D01*
X86613Y42338D01*
X87282Y42061D01*
X87500Y42032D01*
Y44240D01*
D02*
G37*
G36*
X7000Y45189D02*
X5916Y45046D01*
X4906Y44627D01*
X4038Y43962D01*
X3373Y43094D01*
X2954Y42084D01*
X2811Y41000D01*
X2954Y39916D01*
X3373Y38906D01*
X4038Y38038D01*
X4906Y37373D01*
X5916Y36954D01*
X7000Y36811D01*
X8084Y36954D01*
X9094Y37373D01*
X9962Y38038D01*
X10627Y38906D01*
X11046Y39916D01*
X11189Y41000D01*
X11046Y42084D01*
X10627Y43094D01*
X9962Y43962D01*
X9094Y44627D01*
X8084Y45046D01*
X7000Y45189D01*
D02*
G37*
G36*
X74657Y26740D02*
X71697D01*
Y24862D01*
X74657D01*
Y25534D01*
X74640Y25563D01*
X74510Y25704D01*
X74360Y25805D01*
X74190Y25866D01*
X74000Y25886D01*
X74657Y25884D01*
Y26740D01*
D02*
G37*
G36*
X78618D02*
X75657D01*
Y25881D01*
X77606Y25874D01*
X77491Y25854D01*
X77388Y25794D01*
X77297Y25694D01*
X77218Y25554D01*
X77152Y25374D01*
X77097Y25154D01*
X77055Y24894D01*
X77051Y24862D01*
X78618D01*
Y26740D01*
D02*
G37*
G36*
X98260Y22988D02*
X97000D01*
Y20913D01*
X99272D01*
Y22440D01*
X99240Y22437D01*
X98980Y22398D01*
X98760Y22347D01*
X98580Y22286D01*
X98440Y22212D01*
X98340Y22128D01*
X98280Y22032D01*
X98260Y21925D01*
Y22988D01*
D02*
G37*
G36*
X87500Y47448D02*
X87282Y47419D01*
X86613Y47142D01*
X86039Y46701D01*
X85598Y46127D01*
X85321Y45458D01*
X85292Y45240D01*
X87500D01*
Y47448D01*
D02*
G37*
G36*
X59449Y15801D02*
X58416Y15665D01*
X57454Y15267D01*
X56627Y14632D01*
X55993Y13806D01*
X55831Y13413D01*
X55331Y13513D01*
Y15567D01*
X52075D01*
Y10630D01*
Y5693D01*
X55331D01*
Y7747D01*
X55831Y7846D01*
X55993Y7454D01*
X56627Y6627D01*
X57454Y5993D01*
X58416Y5595D01*
X59449Y5459D01*
X60482Y5595D01*
X61444Y5993D01*
X62270Y6627D01*
X62904Y7454D01*
X63303Y8416D01*
X63439Y9449D01*
Y11811D01*
X63303Y12844D01*
X62904Y13806D01*
X62270Y14632D01*
X61444Y15267D01*
X60482Y15665D01*
X59449Y15801D01*
D02*
G37*
G36*
X88500Y47448D02*
Y45240D01*
X90708D01*
X90679Y45458D01*
X90402Y46127D01*
X89961Y46701D01*
X89387Y47142D01*
X88718Y47419D01*
X88500Y47448D01*
D02*
G37*
G36*
X90708Y44240D02*
X88500D01*
Y42032D01*
X88718Y42061D01*
X89387Y42338D01*
X89961Y42779D01*
X90402Y43353D01*
X90679Y44022D01*
X90708Y44240D01*
D02*
G37*
G36*
X96000Y22988D02*
X93728D01*
Y20913D01*
X96000D01*
Y22988D01*
D02*
G37*
G36*
X85039Y15801D02*
X84007Y15665D01*
X83044Y15267D01*
X82218Y14632D01*
X81584Y13806D01*
X81421Y13413D01*
X80921Y13513D01*
Y15567D01*
X77665D01*
Y14615D01*
X77810Y14564D01*
X78000Y14543D01*
X77665Y14544D01*
Y10630D01*
Y5693D01*
X80921D01*
Y7747D01*
X81421Y7846D01*
X81584Y7454D01*
X82218Y6627D01*
X83044Y5993D01*
X84007Y5595D01*
X85039Y5459D01*
X86072Y5595D01*
X87034Y5993D01*
X87861Y6627D01*
X88495Y7454D01*
X88893Y8416D01*
X89029Y9449D01*
Y11811D01*
X88893Y12844D01*
X88495Y13806D01*
X87861Y14632D01*
X87034Y15267D01*
X86072Y15665D01*
X85039Y15801D01*
D02*
G37*
G36*
X58000Y90689D02*
X56916Y90546D01*
X55906Y90127D01*
X55038Y89462D01*
X54373Y88594D01*
X53954Y87584D01*
X53811Y86500D01*
X53954Y85416D01*
X54373Y84406D01*
X55038Y83538D01*
X55906Y82873D01*
X56916Y82454D01*
X58000Y82311D01*
X59084Y82454D01*
X60094Y82873D01*
X60962Y83538D01*
X61627Y84406D01*
X62046Y85416D01*
X62189Y86500D01*
X62046Y87584D01*
X61627Y88594D01*
X60962Y89462D01*
X60094Y90127D01*
X59084Y90546D01*
X58000Y90689D01*
D02*
G37*
G36*
X38000D02*
X36916Y90546D01*
X35906Y90127D01*
X35038Y89462D01*
X34373Y88594D01*
X33954Y87584D01*
X33811Y86500D01*
X33954Y85416D01*
X34373Y84406D01*
X35038Y83538D01*
X35906Y82873D01*
X36916Y82454D01*
X38000Y82311D01*
X39084Y82454D01*
X40094Y82873D01*
X40962Y83538D01*
X41627Y84406D01*
X42046Y85416D01*
X42189Y86500D01*
X42046Y87584D01*
X41627Y88594D01*
X40962Y89462D01*
X40094Y90127D01*
X39084Y90546D01*
X38000Y90689D01*
D02*
G37*
G36*
X28000D02*
X26916Y90546D01*
X25906Y90127D01*
X25038Y89462D01*
X24373Y88594D01*
X23954Y87584D01*
X23811Y86500D01*
X23954Y85416D01*
X24373Y84406D01*
X25038Y83538D01*
X25906Y82873D01*
X26916Y82454D01*
X28000Y82311D01*
X29084Y82454D01*
X30094Y82873D01*
X30962Y83538D01*
X31627Y84406D01*
X32046Y85416D01*
X32189Y86500D01*
X32046Y87584D01*
X31627Y88594D01*
X30962Y89462D01*
X30094Y90127D01*
X29084Y90546D01*
X28000Y90689D01*
D02*
G37*
G36*
X79500Y85500D02*
X77292D01*
X77321Y85282D01*
X77598Y84613D01*
X78039Y84039D01*
X78613Y83598D01*
X79282Y83321D01*
X79500Y83292D01*
Y85500D01*
D02*
G37*
G36*
X51921Y86000D02*
X48500D01*
Y82579D01*
X49032Y82649D01*
X49993Y83047D01*
X50819Y83681D01*
X51453Y84507D01*
X51851Y85468D01*
X51921Y86000D01*
D02*
G37*
G36*
X47500D02*
X44079D01*
X44149Y85468D01*
X44547Y84507D01*
X45181Y83681D01*
X46007Y83047D01*
X46968Y82649D01*
X47500Y82579D01*
Y86000D01*
D02*
G37*
G36*
X94500Y80000D02*
X92040D01*
X92077Y79717D01*
X92379Y78987D01*
X92860Y78360D01*
X93487Y77880D01*
X94217Y77577D01*
X94500Y77540D01*
Y80000D01*
D02*
G37*
G36*
X106500Y73708D02*
Y71500D01*
X108708D01*
X108679Y71718D01*
X108402Y72387D01*
X107961Y72961D01*
X107387Y73402D01*
X106718Y73679D01*
X106500Y73708D01*
D02*
G37*
G36*
X105500D02*
X105282Y73679D01*
X104613Y73402D01*
X104039Y72961D01*
X103598Y72387D01*
X103321Y71718D01*
X103292Y71500D01*
X105500D01*
Y73708D01*
D02*
G37*
G36*
X95500Y83460D02*
Y81000D01*
X97960D01*
X97923Y81283D01*
X97620Y82013D01*
X97140Y82640D01*
X96513Y83121D01*
X95783Y83423D01*
X95500Y83460D01*
D02*
G37*
G36*
X94500D02*
X94217Y83423D01*
X93487Y83121D01*
X92860Y82640D01*
X92379Y82013D01*
X92077Y81283D01*
X92040Y81000D01*
X94500D01*
Y83460D01*
D02*
G37*
G36*
X97960Y80000D02*
X95500D01*
Y77540D01*
X95783Y77577D01*
X96513Y77880D01*
X97140Y78360D01*
X97620Y78987D01*
X97923Y79717D01*
X97960Y80000D01*
D02*
G37*
G36*
X82708Y85500D02*
X80500D01*
Y83292D01*
X80718Y83321D01*
X81387Y83598D01*
X81961Y84039D01*
X82402Y84613D01*
X82679Y85282D01*
X82708Y85500D01*
D02*
G37*
G36*
X97708Y88500D02*
X97486D01*
Y88000D01*
X97291Y87998D01*
X96801Y87964D01*
X96669Y87944D01*
X96553Y87919D01*
X96454Y87890D01*
X96370Y87856D01*
X96302Y87818D01*
X96250Y87775D01*
Y88500D01*
X95500D01*
Y86292D01*
X95718Y86321D01*
X96387Y86598D01*
X96961Y87039D01*
X97402Y87613D01*
X97679Y88282D01*
X97708Y88500D01*
D02*
G37*
G36*
X94500D02*
X93750D01*
Y87775D01*
X93698Y87818D01*
X93630Y87856D01*
X93546Y87890D01*
X93447Y87919D01*
X93331Y87944D01*
X93199Y87964D01*
X92888Y87991D01*
X92514Y88000D01*
Y88500D01*
X92292D01*
X92321Y88282D01*
X92598Y87613D01*
X93039Y87039D01*
X93613Y86598D01*
X94282Y86321D01*
X94500Y86292D01*
Y88500D01*
D02*
G37*
G36*
X90208D02*
X89986D01*
Y88000D01*
X89791Y87998D01*
X89301Y87964D01*
X89169Y87944D01*
X89053Y87919D01*
X88954Y87890D01*
X88870Y87856D01*
X88802Y87818D01*
X88750Y87775D01*
Y88500D01*
X88000D01*
Y86292D01*
X88218Y86321D01*
X88887Y86598D01*
X89461Y87039D01*
X89902Y87613D01*
X90179Y88282D01*
X90208Y88500D01*
D02*
G37*
G36*
X111000D02*
X110250D01*
Y87775D01*
X110198Y87818D01*
X110130Y87856D01*
X110046Y87890D01*
X109947Y87919D01*
X109831Y87944D01*
X109699Y87964D01*
X109388Y87991D01*
X109014Y88000D01*
Y88500D01*
X108792D01*
X108821Y88282D01*
X109098Y87613D01*
X109539Y87039D01*
X110113Y86598D01*
X110782Y86321D01*
X111000Y86292D01*
Y88500D01*
D02*
G37*
G36*
X106708D02*
X106486D01*
Y88000D01*
X106291Y87998D01*
X105801Y87964D01*
X105669Y87944D01*
X105553Y87919D01*
X105454Y87890D01*
X105370Y87856D01*
X105302Y87818D01*
X105250Y87775D01*
Y88500D01*
X104500D01*
Y86292D01*
X104718Y86321D01*
X105387Y86598D01*
X105961Y87039D01*
X106402Y87613D01*
X106679Y88282D01*
X106708Y88500D01*
D02*
G37*
G36*
X103500D02*
X102750D01*
Y87775D01*
X102698Y87818D01*
X102630Y87856D01*
X102546Y87890D01*
X102447Y87919D01*
X102331Y87944D01*
X102199Y87964D01*
X101888Y87991D01*
X101514Y88000D01*
Y88500D01*
X101292D01*
X101321Y88282D01*
X101598Y87613D01*
X102039Y87039D01*
X102613Y86598D01*
X103282Y86321D01*
X103500Y86292D01*
Y88500D01*
D02*
G37*
G36*
X79500Y88708D02*
X79282Y88679D01*
X78613Y88402D01*
X78039Y87961D01*
X77598Y87387D01*
X77321Y86718D01*
X77292Y86500D01*
X79500D01*
Y88708D01*
D02*
G37*
G36*
X114208Y88500D02*
X112000D01*
Y86292D01*
X112218Y86321D01*
X112887Y86598D01*
X113461Y87039D01*
X113902Y87613D01*
X114179Y88282D01*
X114208Y88500D01*
D02*
G37*
G36*
X87000D02*
X84792D01*
X84821Y88282D01*
X85098Y87613D01*
X85539Y87039D01*
X86113Y86598D01*
X86782Y86321D01*
X87000Y86292D01*
Y88500D01*
D02*
G37*
G36*
X49044Y90346D02*
X49073Y90158D01*
X49129Y89914D01*
X49201Y89688D01*
X49290Y89481D01*
X49395Y89293D01*
X49515Y89122D01*
X49652Y88970D01*
X49805Y88837D01*
X48500D01*
Y87000D01*
X51921D01*
X51851Y87532D01*
X51453Y88493D01*
X50819Y89319D01*
X49993Y89953D01*
X49044Y90346D01*
D02*
G37*
G36*
X46956D02*
X46007Y89953D01*
X45181Y89319D01*
X44547Y88493D01*
X44149Y87532D01*
X44079Y87000D01*
X47500D01*
Y88837D01*
X46195D01*
X46348Y88970D01*
X46485Y89122D01*
X46606Y89293D01*
X46710Y89481D01*
X46799Y89688D01*
X46871Y89914D01*
X46927Y90158D01*
X46956Y90346D01*
D02*
G37*
G36*
X80500Y88708D02*
Y86500D01*
X82708D01*
X82679Y86718D01*
X82402Y87387D01*
X81961Y87961D01*
X81387Y88402D01*
X80718Y88679D01*
X80500Y88708D01*
D02*
G37*
G36*
X95500Y58196D02*
Y55988D01*
X97708D01*
X97679Y56206D01*
X97402Y56875D01*
X96961Y57450D01*
X96387Y57890D01*
X95718Y58167D01*
X95500Y58196D01*
D02*
G37*
G36*
X94500D02*
X94282Y58167D01*
X93613Y57890D01*
X93039Y57450D01*
X92598Y56875D01*
X92321Y56206D01*
X92292Y55988D01*
X94500D01*
Y58196D01*
D02*
G37*
G36*
X127953Y70919D02*
X125591D01*
X124558Y70783D01*
X123595Y70385D01*
X122769Y69750D01*
X122135Y68924D01*
X121737Y67962D01*
X121600Y66929D01*
X121737Y65896D01*
X122135Y64934D01*
X122769Y64108D01*
X123547Y63511D01*
X123544Y63347D01*
X123406Y63011D01*
X121635D01*
Y55099D01*
X131909D01*
Y63011D01*
X130138D01*
X130000Y63347D01*
X129997Y63511D01*
X130774Y64108D01*
X131408Y64934D01*
X131807Y65896D01*
X131943Y66929D01*
X131807Y67962D01*
X131408Y68924D01*
X130774Y69750D01*
X129948Y70385D01*
X128986Y70783D01*
X127953Y70919D01*
D02*
G37*
G36*
X10953Y60500D02*
X7500D01*
Y57047D01*
X10953D01*
Y60500D01*
D02*
G37*
G36*
X6500D02*
X3047D01*
Y57047D01*
X6500D01*
Y60500D01*
D02*
G37*
G36*
X97708Y54988D02*
X95500D01*
Y52780D01*
X95718Y52809D01*
X96387Y53086D01*
X96961Y53527D01*
X97402Y54101D01*
X97679Y54770D01*
X97708Y54988D01*
D02*
G37*
G36*
X94500D02*
X92292D01*
X92321Y54770D01*
X92598Y54101D01*
X93039Y53527D01*
X93613Y53086D01*
X94282Y52809D01*
X94500Y52780D01*
Y54988D01*
D02*
G37*
G36*
X108708Y70500D02*
X106500D01*
Y68292D01*
X106718Y68321D01*
X107387Y68598D01*
X107961Y69039D01*
X108402Y69613D01*
X108679Y70282D01*
X108708Y70500D01*
D02*
G37*
G36*
X105500D02*
X103292D01*
X103321Y70282D01*
X103598Y69613D01*
X104039Y69039D01*
X104613Y68598D01*
X105282Y68321D01*
X105500Y68292D01*
Y70500D01*
D02*
G37*
G36*
X97708D02*
X95500D01*
Y68292D01*
X95718Y68321D01*
X96387Y68598D01*
X96961Y69039D01*
X97402Y69613D01*
X97679Y70282D01*
X97708Y70500D01*
D02*
G37*
G36*
X95500Y73708D02*
Y71500D01*
X97708D01*
X97679Y71718D01*
X97402Y72387D01*
X96961Y72961D01*
X96387Y73402D01*
X95718Y73679D01*
X95500Y73708D01*
D02*
G37*
G36*
X94500D02*
X94282Y73679D01*
X93613Y73402D01*
X93039Y72961D01*
X92598Y72387D01*
X92321Y71718D01*
X92292Y71500D01*
X94500D01*
Y73708D01*
D02*
G37*
G36*
X10000Y71272D02*
X7925D01*
Y69000D01*
X9039D01*
X9086Y69193D01*
X9091Y69411D01*
X9042Y69601D01*
X8937Y69766D01*
X9603Y69000D01*
X10000D01*
Y69568D01*
X8937Y70260D01*
X9124Y70274D01*
X9321Y70316D01*
X9528Y70387D01*
X9745Y70486D01*
X9972Y70613D01*
X10000Y70632D01*
Y71272D01*
D02*
G37*
G36*
Y66430D02*
X9906Y66365D01*
X9548Y66077D01*
X9173Y65728D01*
X10000D01*
Y66430D01*
D02*
G37*
G36*
X10953Y64953D02*
X7500D01*
Y61500D01*
X10953D01*
Y64953D01*
D02*
G37*
G36*
X6500D02*
X3047D01*
Y61500D01*
X6500D01*
Y64953D01*
D02*
G37*
G36*
X94500Y70500D02*
X92292D01*
X92321Y70282D01*
X92598Y69613D01*
X93039Y69039D01*
X93613Y68598D01*
X94282Y68321D01*
X94500Y68292D01*
Y70500D01*
D02*
G37*
G36*
X8468Y68000D02*
X7925D01*
Y67356D01*
X8468Y68000D01*
D02*
G37*
G36*
X7925Y66405D02*
Y65728D01*
X8436D01*
X7925Y66405D01*
D02*
G37*
%LPD*%
D10*
X59000Y65012D02*
D03*
Y59500D02*
D03*
X33500Y42000D02*
D03*
Y47512D02*
D03*
X52000Y59500D02*
D03*
Y65012D02*
D03*
X40000Y47512D02*
D03*
Y42000D02*
D03*
X70500Y41988D02*
D03*
Y47500D02*
D03*
X46500Y41988D02*
D03*
Y47500D02*
D03*
X58000Y42000D02*
D03*
Y47512D02*
D03*
X64500Y42000D02*
D03*
Y47512D02*
D03*
X96500Y23488D02*
D03*
Y29000D02*
D03*
X110500Y23488D02*
D03*
Y29000D02*
D03*
X103500Y23488D02*
D03*
Y29000D02*
D03*
D13*
X85000Y30980D02*
D03*
Y23500D02*
D03*
X75157Y27240D02*
D03*
D20*
X102756Y10630D02*
Y23488D01*
X16142Y61181D02*
X17500Y62539D01*
Y68500D01*
X16142Y61181D02*
X17323Y60000D01*
X39602Y41602D02*
X40000Y41205D01*
X84000Y31000D02*
X88500Y35500D01*
X56500Y38500D02*
X64500D01*
X40000D02*
X56500D01*
Y34000D02*
Y38500D01*
X109000Y35500D02*
X116500Y43000D01*
X76000Y11795D02*
X77165Y10630D01*
X76000Y11795D02*
Y27200D01*
X33500Y42000D02*
X40000D01*
X19500Y24500D02*
X26000D01*
X40000Y38500D01*
X26000Y79000D02*
X68000D01*
X16012Y69012D02*
X26000Y79000D01*
X16012Y68500D02*
Y69012D01*
X25500Y91500D02*
X48500D01*
X48000Y91000D02*
X48500Y91500D01*
X48000Y86500D02*
Y91000D01*
X22500Y88500D02*
X25500Y91500D01*
X22500Y81500D02*
Y88500D01*
X10500Y69500D02*
X22500Y81500D01*
X10500Y68500D02*
Y69500D01*
X70500Y52500D02*
Y56000D01*
Y47500D02*
Y52500D01*
X76000Y38500D02*
Y58972D01*
X70250Y38500D02*
X76000D01*
X68000Y79000D02*
X73500Y73500D01*
X68000Y79000D02*
Y86500D01*
X73500Y70500D02*
Y73500D01*
X59000Y59500D02*
X67000D01*
X70500Y56000D01*
X73972Y61000D02*
X76000Y58972D01*
X73972Y61000D02*
Y70028D01*
X64500Y38500D02*
X70250D01*
X70500Y38750D01*
Y41988D01*
X73500Y70500D02*
X73972Y70028D01*
X28102Y41602D02*
X28500Y42000D01*
X33500D01*
X73500Y70500D02*
X79500D01*
X6142Y64142D02*
X10500Y68500D01*
X6142Y61181D02*
Y64142D01*
X52000Y59500D02*
X59000D01*
Y65012D02*
X59012Y65000D01*
X79500Y70500D02*
X81500Y68500D01*
X96500Y29000D02*
X103500D01*
X46500Y48500D02*
X52000Y54000D01*
X46500Y47500D02*
Y48500D01*
X52000Y54000D02*
X58000Y48000D01*
Y47512D02*
Y48000D01*
X64500Y38500D02*
Y42000D01*
X39602Y41602D02*
X40000Y42000D01*
Y38500D02*
Y41205D01*
X88500Y35500D02*
X109000D01*
X102756Y23488D02*
X103500D01*
X96500D02*
X102756D01*
X110630Y10630D02*
Y23358D01*
X88500Y23500D02*
X94000Y29000D01*
X96500D01*
X103500D02*
X110500D01*
Y23488D02*
X110630Y23358D01*
X47121Y59500D02*
X52000D01*
Y54000D02*
Y58000D01*
X84000Y23500D02*
X85000D01*
X88500D01*
X84500Y91500D02*
X87000Y89000D01*
X48500Y91500D02*
X84500D01*
X104000Y89000D02*
X111500D01*
X95000D02*
X104000D01*
X87000D02*
X87500D01*
X95000D01*
D22*
X6142Y51181D02*
X11323Y46000D01*
X16142Y41181D02*
X18585D01*
X84000Y23500D02*
Y25703D01*
X72000Y31500D02*
X78203D01*
X66500Y26000D02*
X72000Y31500D01*
X81800Y33200D02*
X84000Y31000D01*
X66796Y28700D02*
X71296Y33200D01*
X81800D01*
X36000Y26000D02*
X66500D01*
X36296Y28700D02*
X66796D01*
X29146Y21550D02*
X36296Y28700D01*
X29328Y19328D02*
X36000Y26000D01*
X13500Y19328D02*
X29328D01*
X15450Y21550D02*
X29146D01*
X9550Y23278D02*
X13500Y19328D01*
X12500Y24500D02*
X15450Y21550D01*
X40000Y47512D02*
X45988Y53500D01*
X40000Y47512D02*
X45524Y41988D01*
X62500Y76000D02*
X66000Y72500D01*
X42000Y66000D02*
X52000Y76000D01*
X62500D01*
X26000Y73500D02*
X29500D01*
X40750Y62250D01*
X22000Y56000D02*
Y69500D01*
X40750Y58738D02*
Y62250D01*
Y58738D02*
X45988Y53500D01*
X46000Y63500D02*
Y64500D01*
X46512Y65012D01*
X36000Y62500D02*
X38500Y60000D01*
Y56500D02*
Y60000D01*
X23500Y36000D02*
X24500Y37000D01*
X15000Y36000D02*
X23500D01*
X12500Y33500D02*
X15000Y36000D01*
X12500Y24500D02*
Y33500D01*
X9550Y23278D02*
Y23950D01*
X17000Y51000D02*
X22000Y56000D01*
X38988Y53000D02*
X40500D01*
X30500Y55500D02*
X34000D01*
X11323Y46000D02*
X21000D01*
X30500Y55500D01*
X18585Y41181D02*
X30904Y53500D01*
X35500D01*
X59000Y71000D02*
X59992Y71992D01*
X46512Y65012D02*
X52000D01*
X34000Y55500D02*
X35461Y56961D01*
X52000Y46500D02*
Y48500D01*
Y46500D02*
X56500Y42000D01*
X58000D01*
X58500D01*
X64012Y47512D01*
X64500D01*
X45524Y41988D02*
X46500D01*
X59000Y65012D02*
Y71000D01*
X33500Y47512D02*
X38988Y53000D01*
X35500Y53500D02*
X38500Y56500D01*
X35461Y56961D02*
Y58039D01*
X35500Y62500D02*
X36000D01*
X66000Y70000D02*
Y72500D01*
X78203Y31500D02*
X84000Y25703D01*
D24*
X7000Y61000D02*
D03*
D25*
X17000D02*
D03*
X7000Y51000D02*
D03*
X17000D02*
D03*
X7000Y41000D02*
D03*
X17000D02*
D03*
X7000Y31000D02*
D03*
X17000D02*
D03*
X28000Y86500D02*
D03*
X38000D02*
D03*
X48000D02*
D03*
X58000D02*
D03*
D26*
X68000D02*
D03*
D27*
X25984Y10630D02*
D03*
X51575D02*
D03*
X77165D02*
D03*
X102756D02*
D03*
D28*
X33858D02*
D03*
X59449D02*
D03*
X85039D02*
D03*
X110630D02*
D03*
D29*
X126772Y59055D02*
D03*
D30*
Y66929D02*
D03*
D31*
X88000Y44740D02*
D03*
X116500Y43000D02*
D03*
X19500Y24500D02*
D03*
X95000Y55488D02*
D03*
X70500Y52500D02*
D03*
X76000Y38500D02*
D03*
X26000Y73500D02*
D03*
X22000Y69500D02*
D03*
X42000Y66000D02*
D03*
X46000Y63500D02*
D03*
X24500Y37000D02*
D03*
X8000Y24000D02*
D03*
X12500Y24500D02*
D03*
X28102Y41602D02*
D03*
X40500Y53000D02*
D03*
X81500Y68500D02*
D03*
X73500Y70500D02*
D03*
X59992Y71992D02*
D03*
X56500Y34000D02*
D03*
X45988Y53500D02*
D03*
X52000Y48500D02*
D03*
Y54000D02*
D03*
X35461Y58039D02*
D03*
X35500Y62500D02*
D03*
X66000Y70000D02*
D03*
X46500Y58500D02*
D03*
X111500Y89000D02*
D03*
X104000D02*
D03*
X95000D02*
D03*
X87500D02*
D03*
X95000Y71000D02*
D03*
X106000D02*
D03*
X80000Y86000D02*
D03*
D33*
X10500Y68500D02*
D03*
X16012D02*
D03*
D34*
X95000Y80500D02*
D03*
M02*
